<?xml version="1.0" encoding="utf-8"?>
<!-- Generator: Adobe Illustrator 16.0.0, SVG Export Plug-In . SVG Version: 6.00 Build 0)  -->
<!DOCTYPE svg PUBLIC "-//W3C//DTD SVG 1.1//EN" "http://www.w3.org/Graphics/SVG/1.1/DTD/svg11.dtd">
<svg version="1.1" id="Layer_1" xmlns="http://www.w3.org/2000/svg" xmlns:xlink="http://www.w3.org/1999/xlink" x="0px" y="0px"
	 width="28.8px" height="28.8px" viewBox="0 0 28.8 28.8" enable-background="new 0 0 28.8 28.8" xml:space="preserve">
<g id="breadboard">
	<path fill="#006633" d="M0,0v28.8h28.8V0H0z M10.8,2.184c0.783,0,1.417,0.635,1.417,1.417S11.583,5.018,10.8,5.018
		S9.383,4.384,9.383,3.601S10.018,2.184,10.8,2.184z M3.6,2.184c0.783,0,1.417,0.635,1.417,1.417S4.383,5.018,3.6,5.018
		S2.183,4.384,2.183,3.601S2.817,2.184,3.6,2.184z M3.601,26.616c-0.783,0-1.418-0.635-1.418-1.417s0.635-1.417,1.418-1.417
		s1.417,0.635,1.417,1.417S4.384,26.616,3.601,26.616z M10.801,26.615c-0.783,0-1.418-0.635-1.418-1.417s0.635-1.417,1.418-1.417
		s1.417,0.635,1.417,1.417S11.584,26.615,10.801,26.615z M18,26.616c-0.783,0-1.418-0.635-1.418-1.417s0.635-1.417,1.418-1.417
		s1.417,0.635,1.417,1.417S18.783,26.616,18,26.616z M18,5.019c-0.783,0-1.418-0.634-1.418-1.417S17.217,2.184,18,2.184
		s1.417,0.635,1.417,1.417S18.783,5.019,18,5.019z M25.201,26.615c-0.783,0-1.418-0.635-1.418-1.417s0.635-1.417,1.418-1.417
		s1.417,0.635,1.417,1.417S25.984,26.615,25.201,26.615z M25.201,5.019c-0.783,0-1.418-0.634-1.418-1.417s0.635-1.417,1.418-1.417
		s1.417,0.635,1.417,1.417S25.984,5.019,25.201,5.019z"/>
	<g>
		
			<circle id="connector0pin" fill="none" stroke="#999966" stroke-width="1.5" stroke-miterlimit="10" cx="3.6" cy="25.198" r="2.126"/>
		
			<circle id="connector1pin" fill="none" stroke="#999966" stroke-width="1.5" stroke-miterlimit="10" cx="10.8" cy="25.198" r="2.126"/>
		
			<circle id="connector2pin" fill="none" stroke="#999966" stroke-width="1.5" stroke-miterlimit="10" cx="18" cy="25.198" r="2.126"/>
		
			<circle id="connector3pin" fill="none" stroke="#999966" stroke-width="1.5" stroke-miterlimit="10" cx="25.2" cy="25.199" r="2.126"/>
		
			<circle id="connector4pin" fill="none" stroke="#999966" stroke-width="1.5" stroke-miterlimit="10" cx="25.2" cy="3.602" r="2.126"/>
		
			<circle id="connector5pin" fill="none" stroke="#999966" stroke-width="1.5" stroke-miterlimit="10" cx="18" cy="3.601" r="2.126"/>
		
			<circle id="connector6pin" fill="none" stroke="#999966" stroke-width="1.5" stroke-miterlimit="10" cx="10.8" cy="3.601" r="2.126"/>
		
			<circle id="connector7pin" fill="none" stroke="#999966" stroke-width="1.5" stroke-miterlimit="10" cx="3.6" cy="3.601" r="2.126"/>
	</g>
	<text transform="matrix(1 0 0 1 1.4746 12.0947)" fill="#FFFFFF" font-family="'OCRAExtended'" font-size="6">RAW</text>
	<text transform="matrix(1 0 0 1 1.4736 19.5469)" font-family="'DroidSans'" font-size="6">label</text>
	<text transform="matrix(1 0 0 1 16.2461 15.0371)" font-family="'DroidSans'" font-size="6">part</text>
</g>
</svg>
