<?xml version="1.0" encoding="utf-8"?>
<!-- Generator: Adobe Illustrator 16.0.0, SVG Export Plug-In . SVG Version: 6.00 Build 0)  -->
<!DOCTYPE svg PUBLIC "-//W3C//DTD SVG 1.1//EN" "http://www.w3.org/Graphics/SVG/1.1/DTD/svg11.dtd">
<svg version="1.1" id="Layer_1" xmlns:xml="http://www.w3.org/XML/1998/namespace"
	 xmlns="http://www.w3.org/2000/svg" xmlns:xlink="http://www.w3.org/1999/xlink" x="0px" y="0px" width="15.307px"
	 height="14.172px" viewBox="14.103 3.714 15.307 14.172" enable-background="new 14.103 3.714 15.307 14.172" xml:space="preserve"
	>
<g id="icon">
	<g>
		<g id="pad">
			<rect x="14.103" y="13.918" fill="#B3B3B3" width="1.542" height="2.834"/>
			<rect x="14.103" y="9.383" fill="#B3B3B3" width="1.542" height="2.833"/>
			<rect x="14.103" y="4.846" fill="#B3B3B3" width="1.542" height="2.834"/>
			<rect x="27.865" y="13.918" fill="#B3B3B3" width="1.544" height="2.834"/>
			<rect x="27.865" y="9.383" fill="#B3B3B3" width="1.544" height="2.833"/>
			<rect x="27.865" y="4.846" fill="#B3B3B3" width="1.544" height="2.834"/>
		</g>
		<g id="base">
			<rect x="14.668" y="3.714" fill="#E6E6E6" width="14.173" height="14.172"/>
			<polygon fill="#999999" points="14.668,6.548 14.668,3.714 17.503,3.714 			"/>
			<circle fill="#CCCCCC" cx="21.569" cy="10.8" r="5.613"/>
		</g>
		<g id="inner_pad">
			<path fill="#999999" d="M18.602,8.904h-1.437c-0.25,0.582-0.393,1.227-0.393,1.896c0,0.682,0.146,1.329,0.404,1.917h1.426V8.904z
				"/>
			<path fill="#999999" d="M24.622,13.718c0-0.146,0-0.646,0-1c0-0.354-0.396-0.396-0.396-0.396H22.83l-0.625,0.625v2.584
				c1.162-0.155,2.186-0.721,2.929-1.553C24.88,13.962,24.622,13.85,24.622,13.718z"/>
			<path fill="#999999" d="M22.831,9.312h1.396c0,0,0.396-0.041,0.396-0.396c0-0.355,0-0.854,0-1c0-0.142,0.279-0.254,0.539-0.27
				c-0.746-0.851-1.779-1.426-2.955-1.583v2.619L22.831,9.312z"/>
			<path fill="#999999" d="M20.602,13.212l-1.084,0.006c0,0.008,0,0.061,0,0.334c0,0.418-0.459,0.438-0.459,0.438H18.01
				c0.793,0.884,1.9,1.46,3.154,1.564c0-0.399,0-1.375,0-1.814C21.165,13.177,20.602,13.212,20.602,13.212z"/>
			<path fill="#999999" d="M18.01,7.611h1.049c0,0,0.459,0.021,0.459,0.438c0,0.271,0,0.325,0,0.334l1.084,0.007
				c0,0,0.563,0.033,0.563-0.529c0-0.438,0-1.413,0-1.813C19.911,6.151,18.803,6.727,18.01,7.611z"/>
			<path fill="#999999" d="M21.754,10.144c0,0-0.27-0.041-0.27-0.457c0-0.418,0-0.418,0-0.418h-1.686c0,0-0.392-0.084-0.392,0.313
				c0,0.182,0,0.524,0,0.854c0,0,0,0.36,0,0.752c0,0.327,0,0.672,0,0.854c0,0.396,0.392,0.313,0.392,0.313h1.687c0,0,0,0,0-0.418
				c0-0.416,0.27-0.457,0.27-0.457h3.556l0.723,1.054c0.209-0.537,0.334-1.117,0.334-1.729c0-0.604-0.123-1.182-0.328-1.715
				l-0.729,1.059h-3.556L21.754,10.144L21.754,10.144z"/>
		</g>
		<circle id="lens" opacity="0.6" fill="#FFF800" enable-background="new    " cx="21.569" cy="10.801" r="4.796"/>
		<rect x="19.676" y="9.837" fill="#4F423C" width="1.64" height="2.034"/>
		<rect x="22.457" y="10.502" fill="#4D4D4D" width="0.646" height="0.694"/>
		<rect x="23.354" y="8.219" fill="#4D4D4D" width="0.709" height="0.709"/>
		<rect x="23.354" y="12.733" fill="#4D4D4D" width="0.709" height="0.709"/>
		<g id="inner_wire">
			<g>
				<path fill="#E6C47E" d="M20.284,7.779c-0.033,0.076,0.36,1.803-0.137,2.489l-0.082-0.062c0.491-0.676,0.119-2.449,0.127-2.464
					L20.284,7.779z"/>
				<circle fill="#E6C47E" cx="20.237" cy="7.759" r="0.132"/>
				<circle fill="#E6C47E" cx="20.104" cy="10.206" r="0.131"/>
			</g>
			<g>
				<path fill="#E6C47E" d="M22.5,6.937c-0.059,0.115-1.441,2.808-1.646,3.103l-0.082-0.06c0.199-0.291,1.623-3.062,1.638-3.088
					L22.5,6.937z"/>
				<circle fill="#E6C47E" cx="22.456" cy="6.916" r="0.132"/>
				<circle fill="#E6C47E" cx="20.815" cy="10.01" r="0.131"/>
			</g>
			<g>
				<path fill="#E6C47E" d="M23.642,8.505c-0.099,0.08-2.7,1.908-3,2.004l-0.031-0.097c0.236-0.073,2.295-1.441,2.969-1.986
					L23.642,8.505z"/>
				<circle fill="#E6C47E" cx="23.61" cy="8.466" r="0.132"/>
				<circle fill="#E6C47E" cx="20.627" cy="10.463" r="0.131"/>
			</g>
			<g>
				<path fill="#E6C47E" d="M25.421,10.587L25.4,10.685c-0.127-0.017-1.073-1.257-1.603-1.935l0.078-0.063
					C24.398,9.352,25.309,10.535,25.421,10.587z"/>
				<circle fill="#E6C47E" cx="23.837" cy="8.719" r="0.131"/>
				<circle fill="#E6C47E" cx="25.41" cy="10.634" r="0.132"/>
			</g>
			<g>
				<path fill="#E6C47E" d="M25.104,11.056c-0.563,0.665-1.152,1.793-1.226,1.904l-0.082-0.058c0.415-0.821,1.164-1.834,1.233-1.909
					L25.104,11.056z"/>
				<circle fill="#E6C47E" cx="25.066" cy="11.024" r="0.132"/>
				<circle fill="#E6C47E" cx="23.836" cy="12.932" r="0.132"/>
			</g>
			<g>
				<path fill="#E6C47E" d="M23.644,13.175l-0.063,0.073c-0.086-0.067-2.715-1.055-2.999-1.666l0.091-0.041
					C20.943,12.135,23.625,13.157,23.644,13.175z"/>
				<circle fill="#E6C47E" cx="23.611" cy="13.212" r="0.131"/>
				<circle fill="#E6C47E" cx="20.611" cy="11.562" r="0.131"/>
			</g>
			<g>
				<path fill="#E6C47E" d="M22.777,10.904c-0.396,0.064-2.083-0.084-2.153-0.092l0.009-0.1c0.019,0.002,1.748,0.155,2.129,0.092
					L22.777,10.904z"/>
				<circle fill="#E6C47E" cx="20.627" cy="10.763" r="0.131"/>
				<circle fill="#E6C47E" cx="22.77" cy="10.854" r="0.132"/>
			</g>
			<g>
				<path fill="#E6C47E" d="M20.72,13.634l-0.028,0.096c-0.023-0.006-0.101,0.04-0.261-0.788c-0.154-0.793-0.236-1.85-0.24-1.855
					l0.094-0.039c0.002,0.008,0.091,1.074,0.245,1.875C20.677,13.687,20.7,13.627,20.72,13.634z"/>
				<circle fill="#E6C47E" cx="20.237" cy="11.067" r="0.131"/>
				<circle fill="#E6C47E" cx="20.705" cy="13.681" r="0.132"/>
			</g>
			<g>
				<path fill="#E6C47E" d="M19.457,14.315l-0.098,0.019c-0.005-0.019,0.315-1.679,0.565-2.803l0.098,0.021
					C19.778,12.655,19.456,14.3,19.457,14.315z"/>
				<circle fill="#E6C47E" cx="19.409" cy="14.323" r="0.131"/>
				<circle fill="#E6C47E" cx="19.973" cy="11.542" r="0.132"/>
			</g>
			<g>
				<path fill="#E6C47E" d="M19.976,10.772c-0.768,0.028-2.462,0.951-2.469,0.957l-0.072-0.065c0.024-0.026,1.729-0.959,2.537-0.991
					L19.976,10.772z"/>
				<circle fill="#E6C47E" cx="17.471" cy="11.698" r="0.132"/>
				<circle fill="#E6C47E" cx="19.973" cy="10.712" r="0.132"/>
			</g>
		</g>
	</g>
</g>
</svg>
