<?xml version='1.0' encoding='utf-8'?>
<!DOCTYPE svg>
<!-- Generator: Adobe Illustrator 16.0.0, SVG Export Plug-In . SVG Version: 6.00 Build 0)  -->
<svg xmlns="http://www.w3.org/2000/svg" viewBox="0 0 15.292 14.287" enable-background="new 0 0 15.292 14.287" gorn="0" xmlns:xml="http://www.w3.org/XML/1998/namespace" width="0.212389in" height="0.198431in" x="0px" y="0px" version="1.1"  xml:space="preserve" id="Layer_1">
    <desc >
        <referenceFile >5050_ii.svg</referenceFile>
    </desc>
    <g >
        <g gorn="0.1.0"  id="icon">
            <path d="M15.833-1.106H-0.729v16h16.563V-1.106L15.833-1.106z" fill="#1F7A34" />
            <g >
                <g >
                    <rect width="1.541" height="2.834" fill="#B3B3B3" x="-0.022" y="10.263" />
                    <rect width="1.541" height="2.833" fill="#B3B3B3" x="-0.022" y="5.727" />
                    <rect width="1.541" height="2.834" fill="#B3B3B3" x="-0.022" y="1.19" />
                    <rect width="1.543" height="2.834" fill="#B3B3B3" x="13.726" y="10.263" />
                    <rect width="1.543" height="2.833" fill="#B3B3B3" x="13.726" y="5.727" />
                    <rect width="1.543" height="2.834" fill="#B3B3B3" x="13.726" y="1.19" />
                </g>
                <rect width="14.173" height="14.171" fill="#E6E6E6" x="0.535" y="0.058" />
                <polygon points="0.535,2.892 0.535,0.058 3.371,0.058 " fill="#999999" />
                <circle r="5.613" cx="7.437" cy="7.144" fill="#CCCCCC" />
                <g >
                    <g >
                        <g >
                            <path d="M4.47,5.247H3.033C2.783,5.829,2.64,6.475,2.64,7.144c0,0.682,0.146,1.33,0.403,1.917H4.47V5.247z" fill="#999999" />
                            <path d="M10.49,10.062c0-0.146,0-0.646,0-1c0-0.354-0.396-0.396-0.396-0.396H8.697L8.072,9.291v2.584c1.162-0.156,2.188-0.722,2.93-1.554C10.748,10.306,10.49,10.194,10.49,10.062z" fill="#999999" />
                            <path d="M8.699,5.655h1.396c0,0,0.395-0.041,0.395-0.396c0-0.355,0-0.854,0-1c0-0.142,0.279-0.254,0.539-0.271C10.283,3.139,9.25,2.563,8.074,2.407v2.62L8.699,5.655z" fill="#999999" />
                            <path d="M6.47,9.556L5.386,9.562c0,0.008,0,0.062,0,0.334c0,0.418-0.459,0.438-0.459,0.438h-1.05c0.794,0.883,1.9,1.459,3.154,1.563c0-0.397,0-1.375,0-1.813C7.033,9.521,6.47,9.556,6.47,9.556z" fill="#999999" />
                            <path d="M3.877,3.955h1.05c0,0,0.459,0.021,0.459,0.438c0,0.271,0,0.325,0,0.334L6.47,4.733c0,0,0.563,0.033,0.563-0.529c0-0.438,0-1.411,0-1.813C5.779,2.495,4.671,3.071,3.877,3.955z" fill="#999999" />
                            <path d="M7.621,6.487c0,0-0.27-0.041-0.27-0.457c0-0.418,0-0.418,0-0.418H5.666c0,0-0.393-0.084-0.393,0.313c0,0.183,0,0.524,0,0.854c0,0,0,0.359,0,0.752c0,0.325,0,0.672,0,0.854c0,0.396,0.393,0.313,0.393,0.313h1.687c0,0,0,0,0-0.418c0-0.416,0.271-0.457,0.271-0.457h3.556l0.723,1.055c0.209-0.537,0.334-1.117,0.334-1.729c0-0.604-0.123-1.183-0.327-1.716l-0.729,1.06H7.623L7.621,6.487L7.621,6.487z" fill="#999999" />
                        </g>
                        <circle r="4.796" enable-background="new    " cx="7.437" cy="7.145" fill="#FFF800" opacity="0.6" />
                        <rect width="3.104" height="2.229" fill="#4F423C" x="4.115" y="6.14"  display="none"/>
                    </g>
                    <rect width="0.646" height="0.695" fill="#4D4D4D" x="8.324" y="6.846"  display="none"/>
                    <rect width="0.988" height="0.961" fill="#4D4D4D" x="9.082" y="4.437"  display="none"/>
                    <g >
                        <g  display="none">
                            <g  display="inline">
                                <path d="M6.152,4.122c-0.033,0.076-0.82,1.904-1.318,2.592L4.752,6.651c0.492-0.676,1.3-2.551,1.309-2.564L6.152,4.122z" fill="#E6C47E" />
                            </g>
                            <g  display="inline">
                                <g >
                                    <circle r="0.132" cx="6.104" cy="4.103" fill="#E6C47E" />
                                </g>
                            </g>
                            <g  display="inline">
                                <g >
                                    <circle r="0.131" cx="4.791" cy="6.681" fill="#E6C47E" />
                                </g>
                            </g>
                        </g>
                        <g  display="none">
                            <g  display="inline">
                                <path d="M8.367,3.281c-0.059,0.115-1.44,2.808-1.645,3.103L6.64,6.323c0.199-0.291,1.624-3.063,1.637-3.087L8.367,3.281z" fill="#E6C47E" />
                            </g>
                            <g  display="inline">
                                <g >
                                    <circle r="0.132" cx="8.324" cy="3.26" fill="#E6C47E" />
                                </g>
                            </g>
                            <g  display="inline">
                                <g >
                                    <circle r="0.131" cx="6.683" cy="6.354" fill="#E6C47E" />
                                </g>
                            </g>
                        </g>
                        <g  display="none">
                            <g  display="inline">
                                <path d="M9.244,4.771c-0.1,0.08-2.434,1.985-2.734,2.082L6.479,6.756c0.236-0.073,2.03-1.519,2.705-2.063L9.244,4.771z" fill="#E6C47E" />
                            </g>
                            <g  display="inline">
                                <g >
                                    <circle r="0.132" cx="9.214" cy="4.732" fill="#E6C47E" />
                                </g>
                            </g>
                            <g  display="inline">
                                <g >
                                    <circle r="0.131" cx="6.494" cy="6.807" fill="#E6C47E" />
                                </g>
                            </g>
                        </g>
                        <g  display="none">
                            <g  display="inline">
                                <path d="M11.289,6.931l-0.021,0.098c-0.127-0.017-1.033-1.151-1.563-1.83l0.078-0.063C10.306,5.801,11.177,6.879,11.289,6.931z" fill="#E6C47E" />
                            </g>
                            <g  display="inline">
                                <g >
                                    <circle r="0.131" cx="9.744" cy="5.165" fill="#E6C47E" />
                                </g>
                            </g>
                            <g  display="inline">
                                <g >
                                    <circle r="0.132" cx="11.277" cy="6.978" fill="#E6C47E" />
                                </g>
                            </g>
                        </g>
                        <g  display="none">
                            <g  display="inline">
                                <path d="M10.972,7.399c-0.564,0.667-1.645,1.95-1.717,2.063L9.173,9.403c0.096-0.145,1.654-1.99,1.725-2.065L10.972,7.399z" fill="#E6C47E" />
                            </g>
                            <g  display="inline">
                                <g >
                                    <circle r="0.132" cx="10.933" cy="7.368" fill="#E6C47E" />
                                </g>
                            </g>
                            <g  display="inline">
                                <g >
                                    <circle r="0.132" cx="9.214" cy="9.431" fill="#E6C47E" />
                                </g>
                            </g>
                        </g>
                        <g  display="none">
                            <g  display="inline">
                                <path d="M8.871,9.752L8.808,9.825C8.722,9.758,6.736,8.077,6.453,7.466l0.09-0.041C6.813,8.019,8.851,9.735,8.871,9.752z" fill="#E6C47E" />
                            </g>
                            <g  display="inline">
                                <g >
                                    <circle r="0.131" cx="8.839" cy="9.792" fill="#E6C47E" />
                                </g>
                            </g>
                            <g  display="inline">
                                <g >
                                    <circle r="0.131" cx="6.494" cy="7.446" fill="#E6C47E" />
                                </g>
                            </g>
                        </g>
                        <g  display="none">
                            <g  display="inline">
                                <path d="M8.644,7.247C8.248,7.312,6.562,7.163,6.492,7.155l0.008-0.1C6.52,7.057,8.248,7.21,8.63,7.147L8.644,7.247z" fill="#E6C47E" />
                            </g>
                            <g  display="inline">
                                <g >
                                    <circle r="0.131" cx="6.494" cy="7.106" fill="#E6C47E" />
                                </g>
                            </g>
                            <g  display="inline">
                                <g >
                                    <circle r="0.132" cx="8.638" cy="7.197" fill="#E6C47E" />
                                </g>
                            </g>
                        </g>
                        <g  display="none">
                            <g  display="inline">
                                <path d="M6.588,9.978L6.56,10.073c-0.022-0.006-0.547-0.174-0.707-1.002C5.7,8.278,5.407,7.567,5.403,7.561l0.094-0.039c0.001,0.008,0.3,0.73,0.454,1.53C6.099,9.817,6.568,9.972,6.588,9.978z" fill="#E6C47E" />
                            </g>
                            <g  display="inline">
                                <g >
                                    <circle r="0.131" cx="5.449" cy="7.542" fill="#E6C47E" />
                                </g>
                            </g>
                            <g  display="inline">
                                <g >
                                    <circle r="0.132" cx="6.572" cy="10.025" fill="#E6C47E" />
                                </g>
                            </g>
                        </g>
                        <g  display="none">
                            <g  display="inline">
                                <path d="M5.324,10.659l-0.098,0.019c-0.005-0.019-0.25-1.646,0-2.771l0.098,0.021C5.08,9.03,5.324,10.644,5.324,10.659z" fill="#E6C47E" />
                            </g>
                            <g  display="inline">
                                <g >
                                    <circle r="0.131" cx="5.277" cy="10.667" fill="#E6C47E" />
                                </g>
                            </g>
                            <g  display="inline">
                                <g >
                                    <circle r="0.132" cx="5.277" cy="7.917" fill="#E6C47E" />
                                </g>
                            </g>
                        </g>
                        <g  display="none">
                            <g  display="inline">
                                <path d="M4.746,7.418C3.979,7.446,3.381,8.065,3.375,8.071L3.303,8.007c0.023-0.025,0.632-0.656,1.439-0.688L4.746,7.418z" fill="#E6C47E" />
                            </g>
                            <g  display="inline">
                                <g >
                                    <circle r="0.132" cx="3.339" cy="8.042" fill="#E6C47E" />
                                </g>
                            </g>
                            <g  display="inline">
                                <g >
                                    <circle r="0.132" cx="4.744" cy="7.368" fill="#E6C47E" />
                                </g>
                            </g>
                        </g>
                    </g>
                </g>
            </g>
        </g>
    </g>
</svg>
