<?xml version='1.0' encoding='utf-8'?>
<!DOCTYPE svg>
<!-- Generator: Adobe Illustrator 16.0.0, SVG Export Plug-In . SVG Version: 6.00 Build 0)  -->
<svg xmlns="http://www.w3.org/2000/svg" viewBox="0 0 22.303 28.777" enable-background="new 0 0 22.303 28.777" gorn="0" xmlns:xml="http://www.w3.org/XML/1998/namespace" width="0.309764in" height="0.399681in" x="0px" y="0px" version="1.1"  xml:space="preserve" id="Layer_1">
    <desc >
        <referenceFile >Untitled Sketch 2_schem.svg</referenceFile>
    </desc>
    <g >
        <g gorn="0.1.0"  id="schematic">
            <rect stroke="#000000" width="13.438" height="23.938" fill="none" x="4.429" y="4.715"  stroke-miterlimit="10" stroke-width="0.5"/>
            <g >
                <g >
                    <path d="M7.198,27.483v-3.6c0-0.193,0.154-0.352,0.35-0.352s0.351,0.156,0.351,0.352v3.6c0,0.193-0.155,0.35-0.351,0.35S7.198,27.678,7.198,27.483z" />
                </g>
                <g >
                    <path d="M7.198,23.885v-3.602c0-0.193,0.154-0.35,0.35-0.35s0.351,0.152,0.351,0.35v3.602c0,0.191-0.155,0.35-0.351,0.35C7.352,24.233,7.198,24.076,7.198,23.885z" />
                </g>
                <g >
                    <polygon points="7.546,23.885 14.747,20.283 14.747,23.885 14.747,27.483 " fill="#FFFFFF" />
                    <path d="M6.764,23.885l8.333-4.166v8.33L6.764,23.885z M14.395,20.85l-6.065,3.033l6.065,3.031V20.85z" />
                </g>
                <g gorn="0.1.0.1.3"  id="connector5pin">
                    <path d="M14.395,23.885c0-0.193,0.158-0.352,0.353-0.352h7.201c0.192,0,0.35,0.156,0.35,0.352c0,0.191-0.156,0.35-0.35,0.35h-7.201C14.556,24.233,14.395,24.076,14.395,23.885z" fill="#787878" />
                </g>
                <rect gorn="0.1.0.1.4" stroke="none" width="0.015808" height="0.001404" fill="none" x="22.2911" y="23.8833"  stroke-width="0" id="connector5terminal"/>
                <g >
                    <path d="M21.948,23.885L21.948,23.885L21.948,23.885z" fill="none" />
                </g>
                <g gorn="0.1.0.1.6"  id="connector4pin">
                    <path d="M-0.003,23.885c0-0.193,0.155-0.352,0.35-0.352h7.2c0.193,0,0.351,0.156,0.351,0.352c0,0.191-0.155,0.35-0.351,0.35h-7.2C0.153,24.233-0.003,24.076-0.003,23.885z" fill="#787878" />
                </g>
                <rect gorn="0.1.0.1.7" stroke="none" width="0.015802" height="0.001404" fill="none" x="-0.010901" y="23.8833"  stroke-width="0" id="connector4terminal"/>
                <g >
                    <path d="M0.346,23.885L0.346,23.885L0.346,23.885z" fill="none" />
                </g>
            </g>
            <g >
                <g >
                    <path d="M7.198,20.283v-3.6c0-0.193,0.154-0.352,0.35-0.352s0.351,0.156,0.351,0.352v3.6c0,0.193-0.155,0.352-0.351,0.352S7.198,20.477,7.198,20.283z" />
                </g>
                <g >
                    <path d="M7.198,16.684v-3.601c0-0.19,0.154-0.35,0.35-0.35s0.351,0.156,0.351,0.35v3.601c0,0.191-0.155,0.35-0.351,0.35S7.198,16.877,7.198,16.684z" />
                </g>
                <g >
                    <polygon points="7.547,16.684 14.747,13.085 14.747,16.684 14.747,20.283 " fill="#FFFFFF" />
                    <path d="M6.766,16.684l8.333-4.166v8.332L6.766,16.684z M14.397,13.651L8.33,16.684l6.066,3.033V13.651z" />
                </g>
                <g gorn="0.1.0.2.3"  id="connector3pin">
                    <path d="M14.397,16.684c0-0.193,0.158-0.352,0.352-0.352h7.2c0.192,0,0.351,0.156,0.351,0.352c0,0.193-0.155,0.35-0.351,0.35h-7.2C14.556,17.033,14.397,16.877,14.397,16.684z" fill="#787878" />
                </g>
                <rect gorn="0.1.0.2.4" stroke="none" width="0.015806" height="0.001404" fill="none" x="22.2921" y="16.6823"  stroke-width="0" id="connector3terminal"/>
                <g >
                    <path d="M21.948,16.684L21.948,16.684L21.948,16.684z" fill="none" />
                </g>
                <g gorn="0.1.0.2.6"  id="connector2pin">
                    <path d="M-0.003,16.684c0-0.193,0.155-0.352,0.35-0.352h7.2c0.193,0,0.351,0.156,0.351,0.352c0,0.193-0.155,0.35-0.351,0.35h-7.2C0.154,17.033-0.003,16.877-0.003,16.684z" fill="#787878" />
                </g>
                <rect gorn="0.1.0.2.7" stroke="none" width="0.015802" height="0.001404" fill="none" x="-0.010901" y="16.6823"  stroke-width="0" id="connector2terminal"/>
                <g >
                    <path d="M0.347,16.684L0.347,16.684L0.347,16.684z" fill="none" />
                </g>
            </g>
            <g >
                <g >
                    <path d="M7.199,13.085v-3.6c0-0.193,0.154-0.351,0.35-0.351S7.9,9.289,7.9,9.485v3.6c0,0.193-0.155,0.353-0.351,0.353C7.354,13.436,7.199,13.278,7.199,13.085z" />
                </g>
                <g >
                    <path d="M7.199,9.485v-3.6c0-0.192,0.154-0.352,0.35-0.352s0.35,0.157,0.35,0.352v3.601c0,0.192-0.155,0.35-0.351,0.35S7.199,9.678,7.199,9.485z" />
                </g>
                <g >
                    <polygon points="7.548,9.485 14.748,5.885 14.748,9.485 14.748,13.085 " fill="#FFFFFF" />
                    <path d="M6.767,9.485L15.1,5.318v8.333L6.767,9.485z M14.397,6.451L8.33,9.485l6.066,3.033V6.451L14.397,6.451z" />
                </g>
                <g  display="none">
                    <path d="M7.324,9.485c0-0.125,0.101-0.226,0.225-0.226h7.2c0.125,0,0.227,0.101,0.227,0.226c0,0.123-0.102,0.225-0.227,0.225h-7.2C7.424,9.71,7.324,9.609,7.324,9.485z"  display="inline"/>
                </g>
                <g gorn="0.1.0.3.4"  id="connector1pin_1_">
                    <path gorn="0.1.0.3.4.0" d="M14.397,9.485c0-0.193,0.158-0.351,0.353-0.351h7.201c0.19,0,0.35,0.154,0.35,0.351c0,0.193-0.156,0.35-0.35,0.35h-7.201C14.556,9.835,14.397,9.678,14.397,9.485z" fill="#787878"  id="connector1pin"/>
                    <rect gorn="0.1.0.3.4.1" stroke="none" width="0.015808" height="0.001402" fill="none" x="22.2931" y="9.4838"  stroke-width="0" id="connector1terminal"/>
                </g>
                <g gorn="0.1.0.3.5"  id="connector1terminal_1_">
                    <path d="M21.95,9.485L21.95,9.485L21.95,9.485z" fill="none" />
                </g>
                <g gorn="0.1.0.3.6"  id="connector0pin_1_">
                    <path gorn="0.1.0.3.6.0" d="M-0.002,9.485c0-0.193,0.155-0.35,0.35-0.35h7.2c0.193,0,0.351,0.154,0.351,0.351c0,0.193-0.155,0.35-0.351,0.35h-7.2C0.156,9.835-0.002,9.678-0.002,9.485z" fill="#787878"  id="connector0pin"/>
                    <rect gorn="0.1.0.3.6.1" stroke="none" width="0.015802" height="0.001402" fill="none" x="-0.009901" y="9.4848"  stroke-width="0" id="connector0terminal"/>
                </g>
                <g gorn="0.1.0.3.7"  id="connector0terminal_1_">
                    <path d="M0.349,9.485L0.349,9.485L0.349,9.485z" fill="none" />
                </g>
                <g >
                    <path d="M6.784,1.745c0-0.059,0.021-0.114,0.063-0.159c0.088-0.088,0.23-0.088,0.318,0l2.34,2.342c0.088,0.089,0.088,0.229,0,0.316s-0.23,0.088-0.318,0l-2.34-2.341C6.805,1.86,6.784,1.803,6.784,1.745z" />
                </g>
                <g >
                    <path d="M5.389,0.125l2.521,1.08L6.471,2.644L5.389,0.125z" />
                </g>
                <g >
                    <path d="M10.234,1.745c0-0.059,0.021-0.114,0.064-0.159c0.088-0.088,0.229-0.088,0.318,0l2.339,2.342c0.089,0.089,0.089,0.229,0,0.316c-0.088,0.088-0.229,0.088-0.317,0l-2.34-2.341C10.255,1.86,10.234,1.803,10.234,1.745z" />
                </g>
                <g >
                    <path d="M8.839,0.125l2.521,1.08L9.921,2.644L8.839,0.125z" />
                </g>
            </g>
        </g>
    </g>
</svg>
