<?xml version="1.0" encoding="utf-8"?>
<!-- Generator: Adobe Illustrator 16.0.0, SVG Export Plug-In . SVG Version: 6.00 Build 0)  -->
<!DOCTYPE svg PUBLIC "-//W3C//DTD SVG 1.1//EN" "http://www.w3.org/Graphics/SVG/1.1/DTD/svg11.dtd">
<svg version="1.1" id="Layer_1" xmlns:svg="http://www.w3.org/2000/svg"
	 xmlns="http://www.w3.org/2000/svg" xmlns:xlink="http://www.w3.org/1999/xlink" x="0px" y="0px" width="29.593px"
	 height="58.367px" viewBox="0 0 29.593 58.367" enable-background="new 0 0 29.593 58.367" xml:space="preserve">
<g id="schematic">
	
		<rect x="7.55" y="7.585" fill="#FFFFFF" stroke="#000000" stroke-width="0.9" stroke-linecap="round" stroke-linejoin="round" width="21.599" height="43.2"/>
	
		<line id="connector8pin" fill="none" stroke="#787878" stroke-width="0.75" stroke-linecap="round" x1="0.35" y1="14.785" x2="7.55" y2="14.785"/>
	<circle id="connector8terminal" fill="none" cx="0.35" cy="14.785" r="0.283"/>
	
		<line id="connector7pin" fill="none" stroke="#787878" stroke-width="0.75" stroke-linecap="round" x1="0.35" y1="36.385" x2="7.55" y2="36.385"/>
	<circle id="connector7terminal" fill="none" cx="0.349" cy="36.385" r="0.283"/>
	
		<line id="connector6pin" fill="none" stroke="#787878" stroke-width="0.75" stroke-linecap="round" x1="0.35" y1="43.585" x2="7.55" y2="43.585"/>
	<circle id="connector6terminal" fill="none" cx="0.349" cy="43.586" r="0.283"/>
	
		<line id="connector5pin" fill="none" stroke="#787878" stroke-width="0.75" stroke-linecap="round" x1="0.35" y1="21.986" x2="7.55" y2="21.986"/>
	<circle id="connector5terminal" fill="none" cx="0.35" cy="21.986" r="0.283"/>
	
		<line id="connector4pin" fill="none" stroke="#787878" stroke-width="0.75" stroke-linecap="round" x1="0.35" y1="29.185" x2="7.55" y2="29.185"/>
	<circle id="connector4terminal" fill="none" cx="0.349" cy="29.186" r="0.283"/>
	
		<line id="connector3pin" fill="none" stroke="#787878" stroke-width="0.75" stroke-linecap="round" x1="21.951" y1="57.986" x2="21.951" y2="50.785"/>
	<circle id="connector3terminal" fill="none" cx="21.951" cy="57.986" r="0.283"/>
	
		<line id="connector2pin" fill="none" stroke="#787878" stroke-width="0.75" stroke-linecap="round" x1="14.75" y1="0.385" x2="14.75" y2="7.585"/>
	<circle id="connector2terminal" fill="none" cx="14.75" cy="0.385" r="0.283"/>
	
		<line id="connector1pin" fill="none" stroke="#787878" stroke-width="0.75" stroke-linecap="round" x1="14.75" y1="57.986" x2="14.75" y2="50.785"/>
	<circle id="connector1terminal" fill="none" cx="14.75" cy="57.986" r="0.283"/>
	
		<line id="connector0pin" fill="none" stroke="#787878" stroke-width="0.75" stroke-linecap="round" x1="21.951" y1="0.385" x2="21.951" y2="7.585"/>
	<circle id="connector0terminal" fill="none" cx="21.951" cy="0.385" r="0.283"/>
	<text transform="matrix(1 0 0 1 3.2612 35.335)" fill="#8C8C8C" font-family="'DroidSans'" font-size="2.5">8</text>
	<text transform="matrix(1 0 0 1 3.2612 28.1357)" fill="#8C8C8C" font-family="'DroidSans'" font-size="2.5">5</text>
	<text transform="matrix(1 0 0 1 3.2612 20.9355)" fill="#8C8C8C" font-family="'DroidSans'" font-size="2.5">6</text>
	<text transform="matrix(1 0 0 1 3.2612 13.7354)" fill="#8C8C8C" font-family="'DroidSans'" font-size="2.5">9</text>
	<text transform="matrix(1 0 0 1 3.2612 42.5352)" fill="#8C8C8C" font-family="'DroidSans'" font-size="2.5">7</text>
	<g transform="translate(7.99747,20)">
		<g transform="rotate(270)">
			<text transform="matrix(0 1 -1 0 -10.4961 6.4435)" fill="#505050" font-family="'DroidSans'" font-size="4.252">USB</text>
		</g>
	</g>
	<g transform="translate(4.83306,7.808)">
		<g transform="rotate(270)">
			<text transform="matrix(1 0 0 1 3.1361 8.8657)" fill="#8C8C8C" font-family="'DroidSans'" font-size="2.5">3</text>
		</g>
	</g>
	<g transform="translate(7.37306,7.808)">
		<g transform="rotate(270)">
			<text transform="matrix(1 0 0 1 3.1361 13.5268)" fill="#8C8C8C" font-family="'DroidSans'" font-size="2.5">1</text>
		</g>
	</g>
	<g transform="translate(4.83306,25.588)">
		<g transform="rotate(270)">
			<text transform="matrix(1 0 0 1 -29.4862 8.8657)" fill="#8C8C8C" font-family="'DroidSans'" font-size="2.5">2</text>
		</g>
	</g>
	<g transform="translate(7.37306,25.588)">
		<g transform="rotate(270)">
			<text transform="matrix(1 0 0 1 -29.4862 13.5268)" fill="#8C8C8C" font-family="'DroidSans'" font-size="2.5">4</text>
		</g>
	</g>
</g>
</svg>
