<?xml version='1.0' encoding='utf-8'?>
<!DOCTYPE svg>
<!-- Generator: Adobe Illustrator 16.0.0, SVG Export Plug-In . SVG Version: 6.00 Build 0)  -->
<svg xmlns="http://www.w3.org/2000/svg" viewBox="0 0 49.473 57.6" gorn="0" width="0.687125in" xml:space="preserve" id="Layer_1"  xmlns:xml="http://www.w3.org/XML/1998/namespace" x="0px" version="1.1" y="0px" enable-background="new 0 0 49.473 57.6" height="0.8in">
    <desc>
        <referenceFile>sparkfun-electromechanical_battcon_12mm_pth_breadboard.svg</referenceFile>
    </desc>
    <g gorn="0.0" id="breadboard" >
        <g gorn="0.0.0" id="icon" >
            <path d="M0,0v26.64c1.191,0,2.16,0.967,2.16,2.16S1.193,30.96,0,30.96V57.6h49.473V0H0z" fill="#1F7A34" />
            <g transform="translate(100,153.618)" >
                <g >
                    <g transform="matrix(1, 0, 0, 1, 507.988, 1414.62)" >
                        <g gorn="0.0.0.1.0.0.0" id="battcon_12mm_pth" >
                            <g transform="matrix(-1, 0, 0, -1, 859.458, 856.722)" >
                                <g >
                                    <g >
                                        <g >
                                            <g >
                                                <circle r="16.788" fill="#686868"  cx="1442.71" cy="2397.112"/>
                                            </g>
                                            <g opacity="0.5" >
                                                <path d="M1442.71,2413.379c-1.951,0-3.866-0.325-5.691-0.973c-0.146-0.055-0.225-0.215-0.172-0.361c0.052-0.146,0.213-0.224,0.358-0.172c2.604,0.92,5.458,1.168,8.186,0.722c0.147-0.023,0.3,0.08,0.323,0.233c0.023,0.151-0.08,0.301-0.23,0.322C1444.572,2413.302,1443.641,2413.379,1442.71,2413.379z" fill="#C6C6C6" />
                                            </g>
                                            <g opacity="0.43" >
                                                <g >
                                                    <path d="M1427.724,2395.165c0-3.153,2.558-5.711,5.71-5.711c2.03,0,3.811,1.063,4.821,2.658c-0.908-1.95-2.88-3.307-5.174-3.307c-3.154,0-5.713,2.558-5.713,5.712c0,1.122,0.33,2.169,0.891,3.052C1427.919,2396.839,1427.724,2396.024,1427.724,2395.165z" fill="#020202" />
                                                </g>
                                            </g>
                                            <g opacity="0.43" >
                                                <g >
                                                    <path d="M1446.943,2395.165c0-3.153,2.559-5.711,5.711-5.711c2.029,0,3.813,1.063,4.821,2.658c-0.909-1.95-2.882-3.307-5.177-3.307c-3.151,0-5.709,2.558-5.709,5.712c0,1.122,0.328,2.169,0.89,3.052C1447.141,2396.839,1446.943,2396.024,1446.943,2395.165z" fill="#020202" />
                                                </g>
                                            </g>
                                            <g >
                                                <g >
                                                    <g >
                                                        <path d="M1430.436,2393.05c0-1.271,1.146-2.305,2.559-2.305c1.413,0,2.56,1.029,2.56,2.305v2.721h-5.114L1430.436,2393.05L1430.436,2393.05z" fill="#9B9B9B" />
                                                        <path d="M1449.656,2393.05c0-1.271,1.146-2.305,2.561-2.305c1.412,0,2.559,1.029,2.559,2.305v2.721h-5.113v-2.721H1449.656z" fill="#9B9B9B" />
                                                    </g>
                                                    <rect width="5.115" fill="#898989"  x="1449.657" y="2395.766" height="12.269"/>
                                                    <rect width="5.114" fill="#898989"  x="1430.436" y="2395.766" height="12.269"/>
                                                    <g >
                                                        <path d="M1453.729,2379.22v-0.803h-22.204v0.803l-6.351,6.448v22.173c0,2.633,2.104,4.782,4.671,4.782c2.568,0,6.014-4.395,12.361-4.395c6.35,0,9.906,4.395,12.619,4.395h0.489c2.712,0,4.932-2.149,4.932-4.782v-22.173L1453.729,2379.22z M1435.935,2399.066v8.799h-5.884v-8.799c-1.551-0.979-2.585-2.701-2.585-4.671c0-3.055,2.476-5.526,5.524-5.526c3.052,0,5.526,2.478,5.526,5.526C1438.519,2396.365,1437.485,2398.091,1435.935,2399.066z M1455.153,2399.066v8.799h-5.881v-8.799c-1.551-0.979-2.586-2.701-2.586-4.671c0-3.055,2.474-5.526,5.526-5.526c3.052,0,5.522,2.478,5.522,5.526C1457.74,2396.365,1456.708,2398.091,1455.153,2399.066z" fill="#898989" />
                                                    </g>
                                                    <rect width="22.204" opacity="0.3" fill="#FFFFFF"  x="1431.524" y="2378.42" enable-background="new    " height="0.803"/>
                                                    <g >
                                                        <path d="M1432.992,2388.868c-3.052,0-5.523,2.475-5.523,5.527c0,1.97,1.031,3.692,2.584,4.671v8.798h5.883v-8.798c1.553-0.979,2.586-2.702,2.586-4.674C1438.519,2391.344,1436.045,2388.868,1432.992,2388.868z" fill="none" />
                                                        <path d="M1452.214,2388.868c-3.057,0-5.525,2.475-5.525,5.527c0,1.97,1.033,3.692,2.586,4.671v8.798h5.883v-8.798c1.553-0.979,2.585-2.702,2.585-4.674C1457.74,2391.344,1455.266,2388.868,1452.214,2388.868z" fill="none" />
                                                        <path d="M1425.174,2385.671v22.173c0,0.88,0.236,1.7,0.646,2.41v-25.158L1425.174,2385.671z" fill="#898989" />
                                                        <path d="M1425.174,2385.671v22.173c0,0.88,0.236,1.7,0.646,2.41v-25.158L1425.174,2385.671z" opacity="0.3" fill="#FFFFFF"  enable-background="new    "/>
                                                        <path d="M1460.245,2385.671l-0.646-0.561v25.086c0.409-0.696,0.646-1.499,0.646-2.354V2385.671z" fill="#898989" />
                                                        <path d="M1460.245,2385.671l-0.646-0.561v25.086c0.409-0.696,0.646-1.499,0.646-2.354V2385.671z" opacity="0.3" fill="#FFFFFF"  enable-background="new    "/>
                                                    </g>
                                                    <g opacity="0.5" >
                                                        <path d="M1442.985,2381.872v3.062h2.947v0.5h-2.947v3.084h-0.536v-3.084h-2.945v-0.5h2.945v-3.062H1442.985z" fill="#FFFFFF" />
                                                    </g>
                                                </g>
                                            </g>
                                            <g >
                                                <path d="M1434.836,2395.949h-3.692c-0.156,0-0.283-0.126-0.283-0.282c0-0.153,0.127-0.282,0.283-0.282h3.692c0.154,0,0.281,0.129,0.281,0.282C1435.12,2395.823,1434.993,2395.949,1434.836,2395.949z" fill="#828282" />
                                            </g>
                                            <g >
                                                <path d="M1454.061,2395.949h-3.692c-0.154,0-0.281-0.126-0.281-0.282c0-0.153,0.127-0.282,0.281-0.282h3.692c0.155,0,0.282,0.129,0.282,0.282C1454.343,2395.823,1454.216,2395.949,1454.061,2395.949z" fill="#828282" />
                                            </g>
                                        </g>
                                        <path d="M1430.442,2392.891c0-1.179,1.156-2.14,2.551-2.14c1.396,0,2.542,0.957,2.542,2.14c0-1.018-1.312-1.844-2.542-1.844C1431.762,2391.05,1430.442,2391.876,1430.442,2392.891z" opacity="0.3" fill="#FFFFFF"  enable-background="new    "/>
                                        <path d="M1449.667,2392.891c0-1.179,1.155-2.14,2.552-2.14c1.396,0,2.542,0.957,2.542,2.14c0-1.018-1.312-1.844-2.542-1.844C1450.988,2391.048,1449.667,2391.876,1449.667,2392.891z" opacity="0.3" fill="#FFFFFF"  enable-background="new    "/>
                                    </g>
                                </g>
                            </g>
                        </g>
                    </g>
                </g>
            </g>
        </g>
        <g transform="translate(327.591,734.05)" >
            <g >
                <rect gorn="0.0.1.0.0" width="1.187" id="connector2pin" fill="none"  x="-303.444" y="-680.642" height="1.182"/>
                <rect width="1.187" fill="#8C8663"  x="-303.444" y="-680.642" height="1.182"/>
                <polygon fill="#B8AF82"  points="-304.004,-678.901 -303.444,-679.461 -303.444,-680.696 -304.004,-681.198 "/>
                <polygon fill="#80795B"  points="-302.261,-680.64 -303.437,-680.64 -304.004,-681.198 -301.706,-681.198 "/>
                <polygon fill="#5E5B43"  points="-302.261,-679.461 -302.261,-680.64 -301.706,-681.198 -301.706,-678.901 "/>
                <polygon fill="#9A916C"  points="-304.004,-678.901 -303.438,-679.461 -302.261,-679.461 -301.706,-678.901 "/>
            </g>
        </g>
        <g transform="translate(327.591,734.05)" >
            <g >
                <rect width="1.187" fill="#8C8663"  x="-303.444" y="-731.04" height="1.182"/>
                <rect gorn="0.0.2.0.1" width="1.187" id="connector0pin" fill="none"  x="-303.444" y="-731.04" height="1.182"/>
                <polygon fill="#B8AF82"  points="-304.004,-729.302 -303.444,-729.804 -303.444,-731.039 -304.004,-731.599 "/>
                <polygon fill="#80795B"  points="-301.706,-729.302 -304.004,-729.302 -303.437,-729.86 -302.261,-729.86 "/>
                <polygon fill="#5E5B43"  points="-301.706,-731.599 -301.706,-729.302 -302.261,-729.86 -302.261,-731.039 "/>
                <polygon fill="#9A916C"  points="-301.706,-731.599 -302.261,-731.039 -303.438,-731.039 -304.004,-731.599 "/>
            </g>
        </g>
    </g>
</svg>
