<?xml version="1.0" encoding="utf-8"?>
<!-- Generator: Adobe Illustrator 24.1.2, SVG Export Plug-In . SVG Version: 6.00 Build 0)  -->
<svg version="1.1" id="Layer_1" xmlns="http://www.w3.org/2000/svg" xmlns:xlink="http://www.w3.org/1999/xlink" x="0px" y="0px"
	 width="32px" height="32px" viewBox="0 0 32 32" style="enable-background:new 0 0 32 32;" xml:space="preserve">
<style type="text/css">
	.st0{display:none;}
	.st1{display:inline;fill:#3366FF;}
	.st2{display:inline;}
	.st3{fill:#FFBB00;stroke:#FFBB00;stroke-width:0.5;stroke-miterlimit:10;}
	.st4{fill:#686868;stroke:#686868;stroke-width:0.5;stroke-miterlimit:10;}
</style>
<g id="Layer_1_1_" class="st0">
	<path class="st1" d="M0,28.1C0,29.7,1.4,31,3.1,31h25.8c1.7,0,3.1-1.3,3.1-2.9V3.9C32,2.3,30.6,1,28.9,1H3.1C1.4,1,0,2.3,0,3.9
		V28.1z"/>
	<g class="st2">
		<g>
			<g>
				<path class="st3" d="M7.8,4.9C8,4.3,8.3,3.7,9,3.7c0.8,0,1.1,0.6,1.2,1.2l4.6,16.3c0.2,0.6-0.5,1.2-1.2,1.2
					c-0.7,0-1.1-0.6-1.3-1.2l-0.9-2.9H6.5l-0.9,2.9c-0.2,0.6-0.6,1.2-1.3,1.2c-0.7,0-1.3-0.6-1.2-1.2L7.8,4.9z M9,9.4L9,9.4
					l-1.9,6.5h3.8L9,9.4z"/>
			</g>
		</g>
		<g>
			<g>
				<path class="st3" d="M24.2,16.3c-0.6,0-1.2-0.3-1.2-1.2c0-0.9,0.6-1.2,1.2-1.2h4.7v4.7c0,2.3-1.6,3.8-3.8,3.8H21
					c-1.1,0-1.9-0.2-2.8-1c-1-0.9-1.1-1.8-1.1-3v-6c0-1.5,0.3-2.3,1.2-3.5l2.8-3.6c1-1.2,1.8-1.6,3.4-1.6h3.2c0.6,0,1.2,0.3,1.2,1.2
					c0,0.9-0.6,1.2-1.2,1.2h-2.9c-1.3,0-1.2,0-2,1l-2.6,3.3c-0.7,0.9-0.7,1.9-0.7,3.1v4.7c0,1.3,0.3,1.7,1.7,1.7h3.8
					c0.9,0,1.6-0.2,1.6-1.2v-2.5L24.2,16.3L24.2,16.3L24.2,16.3z"/>
			</g>
		</g>
	</g>
	<g class="st2">
		<circle class="st3" cx="3.7" cy="27.3" r="1.5"/>
		<circle class="st3" cx="11.9" cy="27.3" r="1.5"/>
		<circle class="st3" cx="20.1" cy="27.3" r="1.5"/>
		<circle class="st3" cx="28.3" cy="27.3" r="1.5"/>
	</g>
</g>
<g id="Layer_1_mono">
	<g>
		<g>
			<g>
				<path class="st4" d="M7.8,4.9C8,4.3,8.3,3.7,9,3.7c0.8,0,1.1,0.6,1.2,1.2l4.6,16.3c0.2,0.6-0.5,1.2-1.2,1.2
					c-0.7,0-1.1-0.6-1.3-1.2l-0.9-2.9H6.5l-0.9,2.9c-0.2,0.6-0.6,1.2-1.3,1.2c-0.7,0-1.3-0.6-1.2-1.2L7.8,4.9z M9,9.4L9,9.4
					l-1.9,6.5h3.8L9,9.4z"/>
			</g>
		</g>
		<g>
			<g>
				<path class="st4" d="M24.2,16.3c-0.6,0-1.2-0.3-1.2-1.2c0-0.9,0.6-1.2,1.2-1.2h4.7v4.7c0,2.3-1.6,3.8-3.8,3.8H21
					c-1.1,0-1.9-0.2-2.8-1c-1-0.9-1.1-1.8-1.1-3v-6c0-1.5,0.3-2.3,1.2-3.5l2.8-3.6c1-1.2,1.8-1.6,3.4-1.6h3.2c0.6,0,1.2,0.3,1.2,1.2
					c0,0.9-0.6,1.2-1.2,1.2h-2.9c-1.3,0-1.2,0-2,1l-2.6,3.3c-0.7,0.9-0.7,1.9-0.7,3.1v4.7c0,1.3,0.3,1.7,1.7,1.7h3.8
					c0.9,0,1.6-0.2,1.6-1.2v-2.5L24.2,16.3L24.2,16.3L24.2,16.3z"/>
			</g>
		</g>
	</g>
	<g>
		<circle class="st4" cx="3.7" cy="27.3" r="1.5"/>
		<circle class="st4" cx="11.9" cy="27.3" r="1.5"/>
		<circle class="st4" cx="20.1" cy="27.3" r="1.5"/>
		<circle class="st4" cx="28.3" cy="27.3" r="1.5"/>
	</g>
</g>
</svg>
