<?xml version="1.0" encoding="utf-8"?>
<!-- Generator: Adobe Illustrator 16.0.0, SVG Export Plug-In . SVG Version: 6.00 Build 0)  -->
<!DOCTYPE svg PUBLIC "-//W3C//DTD SVG 1.1//EN" "http://www.w3.org/Graphics/SVG/1.1/DTD/svg11.dtd">
<svg version="1.1" id="svg38" xmlns="http://www.w3.org/2000/svg" xmlns:xlink="http://www.w3.org/1999/xlink" x="0px" y="0px"
	 width="45.354px" height="75.699px" viewBox="0 0 45.354 75.699" enable-background="new 0 0 45.354 75.699" xml:space="preserve">
<desc>
	<referenceFile>SCR TO220 BB.svg</referenceFile>
</desc>
<g id="breadboard">
	<g>
		<rect id="connector2pin" x="7.225" y="74.032" fill="none" width="2.16" height="0.721"/>
		
			<line id="connector2leg" fill="none" stroke="#8C8C8C" stroke-width="3" stroke-linecap="round" x1="8.305" y1="75.7" x2="8.305" y2="82.9"/>
		<rect id="connector0pin" x="35.963" y="74.032" fill="none" width="2.16" height="0.721"/>
		
			<line id="connector0leg" fill="none" stroke="#8C8C8C" stroke-width="3" stroke-linecap="round" x1="37.043" y1="75.7" x2="37.043" y2="82.9"/>
		<rect id="connector1pin" x="21.594" y="74.032" fill="none" width="2.16" height="0.721"/>
		
			<line id="connector1leg" fill="none" stroke="#8C8C8C" stroke-width="3" stroke-linecap="round" x1="22.675" y1="75.7" x2="22.675" y2="82.9"/>
	</g>
	<g>
		<polygon id="polygon21" fill="#8C8C8C" points="10.826,71.639 9.213,72.357 7.398,72.357 5.786,71.639 5.786,62.869 
			10.826,62.869 		"/>
		<rect id="rect4" x="7.225" y="64.333" fill="#8C8C8C" width="2.16" height="11.366"/>
		<polygon id="polygon23" fill="#8C8C8C" points="25.196,71.639 23.582,72.357 21.768,72.357 20.155,71.639 20.155,62.869 
			25.196,62.869 		"/>
		<rect id="rect6" x="21.594" y="64.333" fill="#8C8C8C" width="2.16" height="11.366"/>
		<polygon id="polygon25" fill="#8C8C8C" points="39.623,71.639 38.012,72.357 36.198,72.357 34.586,71.639 34.586,62.869 
			39.623,62.869 		"/>
		<rect id="rect8" x="36.024" y="64.333" fill="#8C8C8C" width="2.16" height="11.366"/>
	</g>
	<path fill="#BFBCBC" d="M7.802,0l-7.803,9.933v49.594h45.353V9.933L37.551,0H7.802z M28.346,12.437
		c0,2.189-2.539,3.965-5.669,3.965c-3.131,0-5.669-1.776-5.669-3.965s2.539-3.965,5.669-3.965
		C25.807,8.472,28.346,10.248,28.346,12.437z"/>
	<path id="path8" fill="#BFBCBC" d="M33.475,6.67H22.676v1.802c3.133,0,5.668,1.779,5.668,3.972c0,2.191-2.535,3.969-5.668,3.969
		v5.823h10.797V6.67H33.475z"/>
	<path id="path10" fill="#808080" d="M17.008,12.44c0-2.194,2.537-3.97,5.668-3.97V6.669H11.878v15.56h10.798v-5.822
		C19.544,16.409,17.008,14.632,17.008,12.44z"/>
	<path id="path55" d="M33.473,5.669H11.877L1.516,19.842h-1.518v45.353h45.353V19.842l-1.52-0.002L33.473,5.669z M22.676,19.156
		c-3.132,0-5.668-1.777-5.668-3.969s2.537-3.968,5.668-3.968c3.133,0,5.668,1.777,5.668,3.968S25.809,19.156,22.676,19.156z"/>
	<rect x="-0.001" y="34.012" fill="#1C1C1C" width="45.353" height="20.251"/>
</g>
</svg>
