<?xml version="1.0" encoding="utf-8"?>
<!-- Generator: Adobe Illustrator 24.1.2, SVG Export Plug-In . SVG Version: 6.00 Build 0)  -->
<svg version="1.1" id="Layer_1" xmlns="http://www.w3.org/2000/svg" xmlns:xlink="http://www.w3.org/1999/xlink" x="0px" y="0px"
	 width="612px" height="792px" viewBox="0 0 612 792" enable-background="new 0 0 612 792" xml:space="preserve">
<g>
	<g>
		<path fill="#DE4833" d="M44,437.02c0-75.34,0-150.68,0-226.02c84.333,0,168.667,0,253,0c0,75.34,0,150.68,0,226.02
			C212.667,437.02,128.333,437.02,44,437.02z M149.999,314.15c0,13.405-0.095,25.878,0.067,38.348
			c0.04,3.118-0.763,5.02-3.486,6.897c-9.861,6.798-13.71,18.891-10.025,30.004c3.628,10.941,13.918,18.421,25.357,18.431
			c11.202,0.011,21.45-7.322,25.157-18c3.782-10.895,0.32-23.19-9.14-29.841c-3.386-2.381-4.25-4.816-4.172-8.61
			c0.216-10.488,0.075-20.984,0.075-31.477c0-1.757,0-3.514,0-5.829c6.397,0,12.078,0.377,17.688-0.09
			c8.138-0.677,11.818-5.648,10.788-13.63c-0.722-5.595-3.972-8.858-10.526-9.375c-5.756-0.454-11.576-0.095-17.883-0.095
			c0-4.69-0.152-8.65,0.031-12.594c0.391-8.44,3.281-11.265,11.585-11.521c8.145-0.25,16.333-0.009,24.426-0.776
			c6.548-0.621,9.581-4.508,9.823-10.574c0.305-7.637-3.981-12.163-12.374-12.416c-8.319-0.251-16.656-0.223-24.977,0
			c-16.469,0.441-29.094,11.525-31.482,27.878c-0.93,6.366-0.931,12.867-1.393,19.881c-3.548,0-7.046-0.241-10.499,0.048
			c-8.128,0.681-12.002,4.669-11.91,11.865c0.089,6.93,3.968,10.803,11.829,11.428C142.418,314.379,145.916,314.15,149.999,314.15z"
			/>
		<path fill="#932E1F" d="M44,437.02c84.333,0,168.667,0,253,0c0,9.319,0,18.638,0,27.98c-84.333,0-168.667,0-253,0
			C44,455.658,44,446.339,44,437.02z"/>
		<path fill="#FDFBFB" d="M149.999,314.15c-4.083,0-7.581,0.229-11.039-0.046c-7.86-0.625-11.74-4.498-11.829-11.428
			c-0.092-7.196,3.782-11.184,11.91-11.865c3.453-0.289,6.95-0.048,10.499-0.048c0.462-7.014,0.463-13.515,1.393-19.881
			c2.388-16.353,15.013-27.437,31.482-27.878c8.321-0.223,16.658-0.251,24.977,0c8.393,0.253,12.679,4.779,12.374,12.416
			c-0.242,6.066-3.275,9.953-9.823,10.574c-8.094,0.768-16.281,0.526-24.426,0.776c-8.304,0.255-11.194,3.08-11.585,11.521
			c-0.183,3.944-0.031,7.904-0.031,12.594c6.308,0,12.127-0.359,17.883,0.095c6.555,0.517,9.805,3.78,10.526,9.375
			c1.03,7.982-2.65,12.953-10.788,13.63c-5.61,0.467-11.291,0.09-17.688,0.09c0,2.316,0,4.073,0,5.829
			c0,10.493,0.141,20.988-0.075,31.477c-0.078,3.794,0.786,6.229,4.172,8.61c9.46,6.652,12.922,18.947,9.14,29.841
			c-3.706,10.678-13.955,18.01-25.157,18c-11.439-0.011-21.729-7.49-25.357-18.431c-3.685-11.113,0.163-23.206,10.025-30.004
			c2.723-1.877,3.527-3.779,3.486-6.897C149.904,340.029,149.999,327.555,149.999,314.15z M171.354,381.28
			c0.09-5.343-3.975-9.606-9.261-9.712c-5.198-0.104-9.65,4.148-9.756,9.319c-0.106,5.155,4.186,9.623,9.366,9.748
			C166.911,390.762,171.265,386.541,171.354,381.28z"/>
		<path fill="#5D1E11" d="M171.354,381.28c-0.089,5.261-4.442,9.481-9.651,9.356c-5.179-0.125-9.472-4.593-9.366-9.748
			c0.107-5.171,4.559-9.423,9.756-9.319C167.379,371.675,171.444,375.938,171.354,381.28z"/>
	</g>
</g>
</svg>
