<?xml version="1.0" encoding="utf-8"?>
<!-- Generator: Adobe Illustrator 16.0.0, SVG Export Plug-In . SVG Version: 6.00 Build 0)  -->
<!DOCTYPE svg PUBLIC "-//W3C//DTD SVG 1.1//EN" "http://www.w3.org/Graphics/SVG/1.1/DTD/svg11.dtd">
<svg version="1.1" id="Layer_1" xmlns="http://www.w3.org/2000/svg" xmlns:xlink="http://www.w3.org/1999/xlink" x="0px" y="0px"
	 width="5.67px" height="8.5px" viewBox="0 0 5.67 8.5" enable-background="new 0 0 5.67 8.5" xml:space="preserve">
<path fill="#F7BD13" d="M4.678,6.092c0,1.018-0.825,1.844-1.842,1.844l0,0c-1.018,0-1.843-0.826-1.843-1.844V2.407
	c0-1.018,0.825-1.843,1.843-1.843l0,0c1.018,0,1.842,0.825,1.842,1.843V6.092z M2.836,1.273c-0.626,0-1.134,0.508-1.134,1.133
	c0,0.627,0.508,1.135,1.134,1.135c0.625,0,1.133-0.508,1.133-1.135C3.969,1.781,3.461,1.273,2.836,1.273z"/>
<circle fill="none" stroke="#F7BD13" stroke-width="0.5" stroke-miterlimit="10" cx="2.835" cy="2.407" r="1.417"/>
</svg>
