<?xml version="1.0" encoding="utf-8"?>
<!-- Generator: Adobe Illustrator 16.0.0, SVG Export Plug-In . SVG Version: 6.00 Build 0)  -->
<!DOCTYPE svg PUBLIC "-//W3C//DTD SVG 1.1//EN" "http://www.w3.org/Graphics/SVG/1.1/DTD/svg11.dtd">
<svg version="1.1" id="Layer_1" xmlns="http://www.w3.org/2000/svg" xmlns:xlink="http://www.w3.org/1999/xlink" x="0px" y="0px"
	 width="5.67px" height="8.5px" viewBox="0 0 5.67 8.5" enable-background="new 0 0 5.67 8.5" xml:space="preserve">
<g id="_x30_.8_mm">
	<path fill="#F7BD13" d="M4.679,6.092c0,1.018-0.826,1.844-1.843,1.844l0,0c-1.018,0-1.843-0.826-1.843-1.844V2.407
		c0-1.018,0.825-1.843,1.843-1.843l0,0c1.019,0,1.843,0.825,1.843,1.843V6.092z M2.835,3.116c-0.626,0-1.134,0.508-1.134,1.134
		s0.508,1.134,1.134,1.134S3.969,4.876,3.969,4.25S3.461,3.116,2.835,3.116z"/>
	<circle fill="none" stroke="#F7BD13" stroke-width="0.5" stroke-miterlimit="10" cx="2.835" cy="4.25" r="1.417"/>
</g>
<g id="_x31__mm">
	<path fill="#F7BD13" d="M4.679,6.092V2.408c0-1.019-0.826-1.844-1.844-1.844c-1.017,0-1.843,0.825-1.843,1.844v3.684
		c0,1.02,0.824,1.844,1.843,1.844C3.853,7.936,4.679,7.111,4.679,6.092z M1.417,4.25c0-0.784,0.635-1.418,1.418-1.418
		c0.783,0,1.417,0.635,1.417,1.418c0,0.782-0.635,1.417-1.417,1.417C2.052,5.666,1.417,5.031,1.417,4.25z"/>
	<circle fill="none" stroke="#F7BD13" stroke-width="0.25" stroke-miterlimit="10" cx="2.835" cy="4.249" r="1.701"/>
</g>
</svg>
