<?xml version="1.0" encoding="utf-8"?>
<!-- Generator: Adobe Illustrator 24.1.2, SVG Export Plug-In . SVG Version: 6.00 Build 0)  -->
<svg version="1.1" id="Layer_1" xmlns:svg="http://www.w3.org/2000/svg"
	 xmlns="http://www.w3.org/2000/svg" xmlns:xlink="http://www.w3.org/1999/xlink" x="0px" y="0px" width="113px" height="77.4px"
	 viewBox="0 0 113 77.4" enable-background="new 0 0 113 77.4" xml:space="preserve">
<g id="L_603" transform="matrix(1, 0, 0, 1, 8.26135, 43.7845)">
	<g id="c0402_4_">
		<g transform="matrix(-1, 0, 0, -1, 5.67, 2.551)">
			<g>
				<g>
					<g>
						<rect x="-74.9" y="-16.3" fill="#999999" width="6.2" height="2.6"/>
					</g>
					<g>
						<path fill="none" stroke="#FFFFFF" stroke-width="0.25" stroke-miterlimit="10" d="M-73.5-15.5"/>
					</g>
					<g>
						<path fill="#CBA580" d="M-73.6-15.9h3.7c0.1,0,0.1,0.1,0.1,0.1v1.5c0,0.1-0.1,0.1-0.1,0.1h-3.9c-0.1,0-0.2-0.1-0.2-0.1v-0.3
							c0,0,0-0.1-0.1-0.1h-0.2l0,0l0,0h0.2c0.1,0,0.1,0.1,0.1,0.1v0.3c0,0,0,0.1,0.1,0.1h3.9c0,0,0.1,0,0.1-0.1v-1.5
							c0,0,0-0.1-0.1-0.1H-73.6c0,0.1-0.1,0.1-0.1,0.1v1.4c0,0,0,0.1,0.1,0.1h3.4c0,0,0.1,0,0.1-0.1v-1.2c0,0,0-0.1-0.1-0.1h-3.2
							h-0.1v1.1c0,0,0,0.1,0.1,0.1h2.9c0,0,0.1,0,0.1-0.1v-1c0,0,0-0.1-0.1-0.1h-2.7c0,0-0.1,0-0.1,0.1v0.8c0,0,0,0.1,0.1,0.1h2.5
							c0,0,0.1,0,0.1-0.1v-0.8l0,0l0,0v0.8c0,0.1-0.1,0.1-0.1,0.1h-2.5c-0.1,0-0.1-0.1-0.1-0.1v-0.8c0-0.1,0.1-0.1,0.1-0.1h2.7
							c0.1,0,0.1,0.1,0.1,0.1v1c0,0.1-0.1,0.1-0.1,0.1h-2.9c-0.1,0-0.1-0.1-0.1-0.1v-1.1l0.1-0.1h3.2c0.1,0,0.1,0.1,0.1,0.1v1.2
							c0,0.1-0.1,0.1-0.1,0.1h-3.4c-0.1,0-0.2-0.1-0.2-0.1v-1.4C-73.7-15.8-73.7-15.9-73.6-15.9z"/>
					</g>
					<g>
						<g>
							<g opacity="0.2">
								<polygon fill="#FFFFFF" points="-74.9,-13.7 -68.7,-13.7 -68.7,-13.7 								"/>
							</g>
						</g>
						<g>
							<g>
								<path fill="#DCDCDC" d="M-69.4-13.8L-69.4-13.8l0.7,0.1v-2.7h-0.7c0,0.2-0.1,0.5-0.1,0.8C-69.5-15.3-69.5-14-69.4-13.8z"/>
							</g>
							<g>
								<path fill="#DCDCDC" d="M-74.2-15.6c0-0.3-0.1-0.5-0.1-0.8H-75v2.6h0.7v-0.1C-74.2-14-74.2-15.3-74.2-15.6z"/>
							</g>
							<g opacity="0.5">
								<polygon fill="#FFFFFF" points="-69.4,-13.7 -68.7,-13.7 -68.7,-13.7 								"/>
							</g>
							<g opacity="0.5">
								<polygon fill="#FFFFFF" points="-74.9,-13.7 -74.2,-13.7 -74.2,-13.7 								"/>
							</g>
							<g>
								<line fill="none" x1="-69.4" y1="-16.3" x2="-69.4" y2="-16.3"/>
							</g>
						</g>
					</g>
				</g>
			</g>
		</g>
	</g>
</g>
<g id="Micro_USB" transform="matrix(1, 0, 0, 1, 14.5557, 123.449)">
	<g id="con2_usb_micro_b_at_1_">
		<g transform="matrix(1, 0, 0, 1, 18.6038, 120.082)">
			<g id="con2_usb_micro_b_at">
				<g>
					<rect x="-14.9" y="-236.6" fill="#666666" width="1.2" height="1"/>
					<rect x="-14.7" y="-236.6" fill="#999999" width="1.1" height="0.1"/>
				</g>
				<g>
					<rect x="-14.9" y="-234.7" fill="#666666" width="1.2" height="1"/>
					<rect x="-14.7" y="-234.7" fill="#999999" width="1.1" height="0.1"/>
				</g>
				<g>
					<rect x="-14.9" y="-232.9" fill="#666666" width="1.2" height="1"/>
					<rect x="-14.7" y="-232.9" fill="#999999" width="1.1" height="0.1"/>
				</g>
				<g>
					<rect x="-14.9" y="-231" fill="#666666" width="1.2" height="1"/>
					<rect x="-14.7" y="-231" fill="#999999" width="1.1" height="0.1"/>
				</g>
				<g>
					<rect x="-14.9" y="-229.2" fill="#666666" width="1.2" height="1"/>
					<rect x="-14.7" y="-229.2" fill="#999999" width="1.1" height="0.1"/>
				</g>
				<g>
					<polygon fill="#B3B3B3" points="-31.6,-222.9 -31.6,-241.8 -14.6,-241.8 -14.6,-222.9 					"/>
					<rect x="-24.2" y="-222.7" fill="#666666" width="3" height="1"/>
					<rect x="-24.2" y="-243" fill="#666666" width="3" height="1"/>
					<rect x="-14.7" y="-241.8" fill="#CCCCCC" width="0.1" height="18.9"/>
					<rect x="-30.2" y="-237.5" fill="#333333" width="15.6" height="10.3"/>
					<polygon fill="#B3B3B3" points="-31.2,-242 -30.7,-241 -32.8,-242.7 -32.8,-243 					"/>
					<polygon fill="#CCCCCC" points="-31.7,-242 -31.7,-242 -31.2,-241 -32.8,-242.7 					"/>
					<polygon fill="#B3B3B3" points="-32.8,-221.7 -32.8,-222.1 -30.7,-223.8 -31.2,-222.8 					"/>
					<polygon fill="#CCCCCC" points="-32.8,-222.1 -31.2,-223.8 -31.7,-222.8 -31.7,-222.8 					"/>
					<g>
						<g>
							<rect x="-31.2" y="-228.5" fill="#F2F2F2" width="0.6" height="0.5"/>
						</g>
						<g>
							<rect x="-31.2" y="-230.5" fill="#F2F2F2" width="0.6" height="0.5"/>
						</g>
						<g>
							<rect x="-31.2" y="-232.6" fill="#F2F2F2" width="0.6" height="0.5"/>
						</g>
						<g>
							<rect x="-31.2" y="-234.7" fill="#F2F2F2" width="0.6" height="0.5"/>
						</g>
						<g>
							<rect x="-31.2" y="-236.8" fill="#F2F2F2" width="0.6" height="0.5"/>
						</g>
						<g>
							<rect x="-31.2" y="-236.8" fill="#808080" width="0.6" height="0.1"/>
						</g>
						<g>
							<rect x="-31.2" y="-234.7" fill="#808080" width="0.6" height="0.1"/>
						</g>
						<g>
							<rect x="-31.2" y="-232.6" fill="#808080" width="0.6" height="0.1"/>
						</g>
						<g>
							<rect x="-31.2" y="-230.5" fill="#808080" width="0.6" height="0.1"/>
						</g>
						<g>
							<rect x="-31.2" y="-228.5" fill="#808080" width="0.6" height="0.1"/>
						</g>
					</g>
					<path fill="#4D4D4D" d="M-31.4-237.3v0.5h0.4v0.5h-0.4v1.6h0.4v0.5h-0.4v1.6h0.4v0.5h-0.4v1.6h0.4v0.5h-0.4v1.6h0.4v0.5h-0.4
						v0.3v0.3c0,0.1,0.1,0.1,0.1,0.1h1.1c0.1,0,0.1-0.1,0.1-0.1v-10c0-0.1-0.1-0.1-0.1-0.1h-1.1C-31.3-237.5-31.4-237.5-31.4-237.3
						L-31.4-237.3z"/>
					<path fill="#CCCCCC" d="M-15.1-242l0.6,0.2v2.5c0,0-0.1-2.3-0.3-2.4s-0.3,0.1-0.3,0.1V-242z"/>
					<path fill="#CCCCCC" d="M-15.1-222.8l0.6-0.2v-2.5c0,0-0.1,2.3-0.3,2.4s-0.3-0.1-0.3-0.1V-222.8L-15.1-222.8z"/>
					<path fill="#E6E6E6" d="M-14.6-226.1h-1.6v-1.6h1.6v-0.5h-0.6v-8.4h0.6v-0.5h-1.6v-1.6h1.6v-3.3h-17v19.3h17
						C-14.6-222.7-14.6-226.1-14.6-226.1z M-28.4-237.1h-0.8v-1.6h0.9c0.3-0.4,0.8-0.7,1.3-0.7c0.6,0,1.1,0.2,1.4,0.7l0,0h4.5v1.6
						h-4.5c-0.3,0.5-0.8,0.8-1.4,0.8C-27.7-236.3-28.2-236.6-28.4-237.1z M-28.4-226.2h-0.8v-1.6h0.9c0.3-0.4,0.8-0.7,1.3-0.7
						c0.6,0,1.1,0.2,1.4,0.7l0,0h4.5v1.6h-4.5c-0.3,0.5-0.8,0.8-1.4,0.8C-27.7-225.4-28.2-225.7-28.4-226.2z"/>
					<polygon fill="#F2F2F2" points="-31.6,-241.6 -31.6,-242 -15.1,-242 -15.1,-240.5 					"/>
					<polygon fill="#999999" points="-31.6,-222.8 -20.6,-223.3 -15.1,-223.9 -15.1,-222.8 					"/>
					<rect x="-21.3" y="-238.7" fill="#CCCCCC" width="0.1" height="1.6"/>
					<rect x="-21.3" y="-227.8" fill="#CCCCCC" width="0.1" height="1.6"/>
					<rect x="-31.4" y="-241.1" fill="#B3B3B3" width="0.7" height="17.4"/>
					<rect x="-31.6" y="-241.1" fill="#CCCCCC" width="0.3" height="17.4"/>
				</g>
			</g>
		</g>
	</g>
</g>
<g id="SOP_08" transform="matrix(26.8841, 0, 0, 26.8841, -4.56929, 44.088)">
	<g>
		<g>
			<rect id="rect3999" x="1.2" y="-0.4" fill="#CCCCCC" width="0.1" height="0.2"/>
			<rect id="rect4013" x="1.2" y="-0.8" fill="#CCCCCC" width="0.1" height="0.2"/>
			<polygon fill="#999999" points="1.2,-0.3 1.3,-0.3 1.3,-0.3 			"/>
			<polygon fill="#999999" points="1.2,-0.8 1.3,-0.8 1.3,-0.8 			"/>
		</g>
		<g>
			<rect id="rect4001" x="1.3" y="-0.4" fill="#CCCCCC" width="0.1" height="0.2"/>
			<rect id="rect4011" x="1.3" y="-0.8" fill="#CCCCCC" width="0.1" height="0.2"/>
			<polygon fill="#999999" points="1.3,-0.3 1.4,-0.3 1.4,-0.3 			"/>
			<polygon fill="#999999" points="1.3,-0.8 1.4,-0.8 1.4,-0.8 			"/>
		</g>
		<g>
			<rect id="rect4003" x="1.4" y="-0.4" fill="#CCCCCC" width="0.1" height="0.2"/>
			<rect id="rect4009" x="1.4" y="-0.8" fill="#CCCCCC" width="0.1" height="0.2"/>
			<polygon fill="#999999" points="1.4,-0.3 1.5,-0.3 1.5,-0.3 			"/>
			<polygon fill="#999999" points="1.4,-0.8 1.5,-0.8 1.5,-0.8 			"/>
		</g>
		<g>
			<rect id="rect4005" x="1.6" y="-0.4" fill="#CCCCCC" width="0.1" height="0.2"/>
			<rect id="rect4007" x="1.6" y="-0.8" fill="#CCCCCC" width="0.1" height="0.2"/>
			<polygon fill="#999999" points="1.6,-0.3 1.7,-0.3 1.7,-0.3 			"/>
			<polygon fill="#999999" points="1.6,-0.8 1.7,-0.8 1.7,-0.8 			"/>
		</g>
	</g>
	<g>
		<rect id="rect4015" x="1.1" y="-0.7" fill="#303030" width="0.5" height="0.4"/>
		<polygon id="polygon4017" fill="#1F1F1F" points="1.2,-0.7 1.1,-0.7 1.7,-0.7 1.6,-0.7 		"/>
		<polygon id="polygon4019" fill="#1F1F1F" points="1.2,-0.3 1.1,-0.3 1.7,-0.3 1.6,-0.3 		"/>
		<polygon id="polygon4021" points="1.2,-0.7 1.1,-0.7 1.1,-0.3 1.2,-0.3 		"/>
		<polygon id="polygon4023" fill="#3D3D3D" points="1.6,-0.7 1.7,-0.7 1.7,-0.3 1.6,-0.3 		"/>
		<path id="circle4025" fill="#1F1F1F" d="M1.2-0.4L1.2-0.4L1.2-0.4z"/>
	</g>
	<text transform="matrix(0.0372 0 0 0.0372 1.229 -0.5594)" font-family="'DroidSans'" font-size="3.0012px">SOP08</text>
</g>
<g id="DO_214">
	<rect x="5.7" y="27.6" fill="#231F20" width="12.2" height="7.1"/>
	<g>
		
			<line id="_x34_" fill="none" stroke="#CCCCCC" stroke-width="0.2" stroke-miterlimit="10" x1="8.4" y1="34.7" x2="8.4" y2="27.6"/>
		
			<line id="_x33_" fill="none" stroke="#CCCCCC" stroke-width="0.2" stroke-miterlimit="10" x1="7.6" y1="34.7" x2="7.6" y2="27.6"/>
		
			<line id="_x32_" fill="none" stroke="#CCCCCC" stroke-width="0.2" stroke-miterlimit="10" x1="6.7" y1="34.7" x2="6.7" y2="27.6"/>
		
			<line id="_x31_" fill="none" stroke="#CCCCCC" stroke-width="0.3" stroke-miterlimit="10" x1="5.9" y1="34.7" x2="5.9" y2="27.6"/>
	</g>
	<rect x="4.7" y="29" fill="#999999" width="1.1" height="4.3"/>
	<rect x="17.9" y="29" fill="#999999" width="1.1" height="4.3"/>
	<g enable-background="new    ">
		<g>
			<path fill="#CCCCCC" d="M10.2,32.9v-3.4h0.3l1.3,1.6l1.3-1.6h0.3v3.4h-0.3v-3l-1.3,1.6l-1.3-1.6v3H10.2L10.2,32.9L10.2,32.9z"/>
			<path fill="#CCCCCC" d="M14.3,32.8l1.4-3.1h-1.9v-0.2H16l0,0L14.6,33L14.3,32.8z"/>
		</g>
	</g>
	<g enable-background="new    ">
		<g>
			<path fill="none" stroke="#231F20" stroke-width="0.1" stroke-miterlimit="10" d="M10.2,32.9v-3.4h0.3l1.3,1.6l1.3-1.6h0.3v3.4
				h-0.3v-3l-1.3,1.6l-1.3-1.6v3H10.2L10.2,32.9L10.2,32.9z"/>
			<path fill="none" stroke="#231F20" stroke-width="0.1" stroke-miterlimit="10" d="M14.3,32.8l1.4-3.1h-1.9v-0.2H16l0,0L14.6,33
				L14.3,32.8z"/>
		</g>
	</g>
	<rect x="5.7" y="27.6" opacity="0.7" fill="#231F20" enable-background="new    " width="12.2" height="7.1"/>
</g>
<g id="SOT_23_3">
	<rect x="85.3" y="69.3" fill="#231F20" width="8.2" height="3.7"/>
	<polygon points="93.5,73 85.3,73 85.6,72.7 93.2,69.6 93.5,69.3 	"/>
	<polygon fill="#3F3F3F" points="85.3,73 85.3,69.3 93.5,69.3 93.2,69.6 85.6,72.7 	"/>
	<rect x="85.6" y="69.6" fill="#231F20" width="7.7" height="3.1"/>
	<rect x="88.8" y="67.8" fill="#999999" width="1.1" height="1.6"/>
	<rect x="86.1" y="73" fill="#999999" width="1.1" height="1.6"/>
	<rect x="91.5" y="73" fill="#999999" width="1.1" height="1.6"/>
	<rect x="88.8" y="68.6" fill="#7F7F7F" width="1.1" height="0.3"/>
	<rect x="91.5" y="73.5" fill="#7F7F7F" width="1.1" height="0.3"/>
	<rect x="86.1" y="73.5" fill="#7F7F7F" width="1.1" height="0.3"/>
	<g enable-background="new    ">
		<g>
			<path d="M87.2,70.9C87.2,70.8,87.2,70.8,87.2,70.9L87,70.8c-0.1,0-0.1,0-0.1,0l-0.1,0.1V71c0,0,0.1,0.1,0.2,0.1h0.1
				c0.1,0.1,0.2,0.1,0.2,0.2s0.1,0.1,0.1,0.2s0,0.2-0.1,0.2c-0.1,0.1-0.2,0.1-0.3,0.1c-0.1,0-0.2,0-0.3-0.1
				c-0.1-0.1-0.1-0.1-0.1-0.3h0.2l0,0c0,0.1,0,0.1,0,0.1l0.1,0.1c0.1,0,0.1,0,0.1-0.1l0.1-0.1v-0.1c0,0-0.1-0.1-0.2-0.1h-0.1
				c-0.1,0-0.1-0.1-0.2-0.1c0-0.1-0.1-0.1-0.1-0.2s0-0.2,0.1-0.2c0.1-0.1,0.2-0.1,0.3-0.1c0.1,0,0.2,0,0.2,0.1
				C87.2,70.8,87.2,70.8,87.2,70.9L87.2,70.9L87.2,70.9z"/>
			<path d="M88.6,71.2c0,0.2,0,0.3-0.1,0.4s-0.2,0.2-0.3,0.2c-0.1,0-0.2-0.1-0.3-0.2s-0.1-0.3-0.1-0.4s0-0.3,0.1-0.4
				s0.2-0.2,0.3-0.2c0.1,0,0.2,0.1,0.3,0.2C88.6,70.9,88.6,71,88.6,71.2z M88.2,71.7c0.1,0,0.1,0,0.2-0.1c0-0.1,0.1-0.2,0.1-0.3
				c0-0.1,0-0.2-0.1-0.3c0-0.1-0.1-0.1-0.2-0.1s-0.1,0-0.2,0.1c0,0.1-0.1,0.2-0.1,0.3c0,0.1,0,0.2,0.1,0.3
				C88.1,71.6,88.1,71.7,88.2,71.7z"/>
			<path d="M89.3,70.8H89v-0.1h0.8v0.1h-0.3v1h-0.2V70.8L89.3,70.8z"/>
			<path d="M90.5,71.2L90.5,71.2c0.2-0.1,0.2-0.2,0.2-0.2v-0.1c0-0.1,0-0.1-0.1-0.1l-0.1-0.1h-0.1c-0.1,0-0.1,0.1-0.2,0.1v-0.2
				c0.1,0,0.1-0.1,0.2-0.1s0.1,0,0.2,0s0.2,0,0.3,0.1c0.1,0.1,0.1,0.1,0.1,0.3c0,0.1,0,0.1-0.1,0.2c0,0.1-0.1,0.1-0.2,0.2l-0.1,0.1
				c-0.1,0.1-0.1,0.1-0.2,0.1c0,0,0,0.1,0,0.2l0,0H91v0.2h-0.7l0,0l0,0c0-0.1,0-0.2,0.1-0.3C90.3,71.3,90.4,71.3,90.5,71.2z"/>
			<path d="M91.4,71.6c0.1,0,0.1,0.1,0.2,0.1s0.1,0,0.2,0s0.2,0,0.2-0.1c0.1,0,0.1-0.1,0.1-0.2s0-0.1-0.1-0.2
				c-0.1,0-0.1-0.1-0.3-0.1l0,0l0,0V71l0.3-0.3h-0.5v-0.2h0.8v0.2L91.8,71c0.1,0,0.2,0,0.3,0.1c0.1,0.1,0.1,0.2,0.1,0.3
				c0,0.1,0,0.2-0.1,0.3c-0.1,0.1-0.2,0.1-0.4,0.1h-0.1c-0.1,0-0.1,0-0.2-0.1L91.4,71.6L91.4,71.6z"/>
		</g>
	</g>
	<g enable-background="new    ">
		<g>
			<path fill="none" stroke="#231F20" stroke-width="0.05" stroke-miterlimit="10" d="M87.2,70.9C87.2,70.8,87.2,70.8,87.2,70.9
				L87,70.8c-0.1,0-0.1,0-0.1,0l-0.1,0.1V71c0,0,0.1,0.1,0.2,0.1h0.1c0.1,0.1,0.2,0.1,0.2,0.2s0.1,0.1,0.1,0.2s0,0.2-0.1,0.2
				c-0.1,0.1-0.2,0.1-0.3,0.1c-0.1,0-0.2,0-0.3-0.1c-0.1-0.1-0.1-0.1-0.1-0.3h0.2l0,0c0,0.1,0,0.1,0,0.1l0.1,0.1
				c0.1,0,0.1,0,0.1-0.1l0.1-0.1v-0.1c0,0-0.1-0.1-0.2-0.1h-0.1c-0.1,0-0.1-0.1-0.2-0.1c0-0.1-0.1-0.1-0.1-0.2s0-0.2,0.1-0.2
				c0.1-0.1,0.2-0.1,0.3-0.1c0.1,0,0.2,0,0.2,0.1C87.2,70.8,87.2,70.8,87.2,70.9L87.2,70.9L87.2,70.9z"/>
			<path fill="none" stroke="#231F20" stroke-width="0.05" stroke-miterlimit="10" d="M88.6,71.2c0,0.2,0,0.3-0.1,0.4
				s-0.2,0.2-0.3,0.2c-0.1,0-0.2-0.1-0.3-0.2s-0.1-0.3-0.1-0.4s0-0.3,0.1-0.4s0.2-0.2,0.3-0.2c0.1,0,0.2,0.1,0.3,0.2
				C88.6,70.9,88.6,71,88.6,71.2z M88.2,71.7c0.1,0,0.1,0,0.2-0.1c0-0.1,0.1-0.2,0.1-0.3c0-0.1,0-0.2-0.1-0.3c0-0.1-0.1-0.1-0.2-0.1
				s-0.1,0-0.2,0.1c0,0.1-0.1,0.2-0.1,0.3c0,0.1,0,0.2,0.1,0.3C88.1,71.6,88.1,71.7,88.2,71.7z"/>
			<path fill="none" stroke="#231F20" stroke-width="0.05" stroke-miterlimit="10" d="M89.3,70.8H89v-0.1h0.8v0.1h-0.3v1h-0.2V70.8
				L89.3,70.8z"/>
			<path fill="none" stroke="#231F20" stroke-width="0.05" stroke-miterlimit="10" d="M90.5,71.2L90.5,71.2c0.2-0.1,0.2-0.2,0.2-0.2
				v-0.1c0-0.1,0-0.1-0.1-0.1l-0.1-0.1h-0.1c-0.1,0-0.1,0.1-0.2,0.1v-0.2c0.1,0,0.1-0.1,0.2-0.1s0.1,0,0.2,0s0.2,0,0.3,0.1
				c0.1,0.1,0.1,0.1,0.1,0.3c0,0.1,0,0.1-0.1,0.2c0,0.1-0.1,0.1-0.2,0.2l-0.1,0.1c-0.1,0.1-0.1,0.1-0.2,0.1c0,0,0,0.1,0,0.2l0,0H91
				v0.2h-0.7l0,0l0,0c0-0.1,0-0.2,0.1-0.3C90.3,71.3,90.4,71.3,90.5,71.2z"/>
			<path fill="none" stroke="#231F20" stroke-width="0.05" stroke-miterlimit="10" d="M91.4,71.6c0.1,0,0.1,0.1,0.2,0.1s0.1,0,0.2,0
				s0.2,0,0.2-0.1c0.1,0,0.1-0.1,0.1-0.2s0-0.1-0.1-0.2c-0.1,0-0.1-0.1-0.3-0.1l0,0l0,0V71l0.3-0.3h-0.5v-0.2h0.8v0.2L91.8,71
				c0.1,0,0.2,0,0.3,0.1c0.1,0.1,0.1,0.2,0.1,0.3c0,0.1,0,0.2-0.1,0.3c-0.1,0.1-0.2,0.1-0.4,0.1h-0.1c-0.1,0-0.1,0-0.2-0.1
				L91.4,71.6L91.4,71.6z"/>
		</g>
	</g>
</g>
<g id="SOT_23_6">
	<g>
		<rect x="97.6" y="69.5" fill="#231F20" width="8.2" height="3.7"/>
		<polygon points="105.8,73.1 97.6,73.1 97.9,72.9 105.5,69.7 105.8,69.5 		"/>
		<polygon fill="#3F3F3F" points="97.6,73.1 97.6,69.5 105.8,69.5 105.5,69.7 97.9,72.9 		"/>
		<rect x="97.9" y="69.7" fill="#231F20" width="7.6" height="3.1"/>
		<rect x="101.2" y="67.9" fill="#999999" width="1.1" height="1.6"/>
		<rect x="98.5" y="73.1" fill="#999999" width="1.1" height="1.6"/>
		<rect x="103.8" y="73.1" fill="#999999" width="1.1" height="1.6"/>
		<rect x="101.2" y="68.7" fill="#7F7F7F" width="1.1" height="0.3"/>
		<rect x="103.8" y="67.9" fill="#999999" width="1.1" height="1.6"/>
		<rect x="103.8" y="68.7" fill="#7F7F7F" width="1.1" height="0.3"/>
		<rect x="98.5" y="67.9" fill="#999999" width="1.1" height="1.6"/>
		<rect x="98.5" y="68.7" fill="#7F7F7F" width="1.1" height="0.3"/>
		<rect x="103.8" y="73.6" fill="#7F7F7F" width="1.1" height="0.3"/>
		<rect x="101.2" y="73.1" fill="#999999" width="1.1" height="1.6"/>
		<rect x="101.2" y="73.6" fill="#7F7F7F" width="1.1" height="0.3"/>
		<rect x="98.5" y="73.6" fill="#7F7F7F" width="1.1" height="0.3"/>
		<g enable-background="new    ">
			<g>
				<path d="M99.5,70.3C99.5,70.3,99.5,70.2,99.5,70.3l-0.2-0.1c-0.1,0-0.1,0-0.1,0l-0.1,0.1v0.1c0,0,0.1,0.1,0.2,0.1h0.1
					c0.1,0.1,0.2,0.1,0.2,0.2c0,0,0.1,0.1,0.1,0.2s0,0.2-0.1,0.2c-0.1,0.1-0.2,0.1-0.3,0.1c-0.1,0-0.2,0-0.3-0.1
					c-0.1-0.1-0.1-0.1-0.1-0.3h0.2l0,0c0,0.1,0,0.1,0,0.1l0.1,0.1c0.1,0,0.1,0,0.1-0.1l0.1-0.1v-0.1c0,0-0.1-0.1-0.2-0.1h-0.1
					c-0.1,0-0.1-0.1-0.2-0.1c0-0.1-0.1-0.1-0.1-0.2s0-0.2,0.1-0.2C99,70,99.1,70,99.2,70s0.2,0,0.2,0.1
					C99.5,70.2,99.5,70.2,99.5,70.3L99.5,70.3L99.5,70.3z"/>
				<path d="M100.9,70.6c0,0.2,0,0.3-0.1,0.4s-0.2,0.2-0.3,0.2c-0.1,0-0.2-0.1-0.3-0.2c-0.1-0.1-0.1-0.3-0.1-0.4s0-0.3,0.1-0.4
					s0.2-0.2,0.3-0.2c0.1,0,0.2,0.1,0.3,0.2C100.9,70.3,100.9,70.4,100.9,70.6z M100.5,71.1c0.1,0,0.1,0,0.2-0.1
					c0-0.1,0.1-0.2,0.1-0.3s0-0.2-0.1-0.3c0-0.1-0.1-0.1-0.2-0.1s-0.1,0-0.2,0.1c0,0.1-0.1,0.2-0.1,0.3c0,0.1,0,0.2,0.1,0.3
					C100.4,71,100.4,71.1,100.5,71.1z"/>
				<path d="M101.6,70.2h-0.3v-0.1h0.8v0.1h-0.3v1h-0.2V70.2L101.6,70.2z"/>
				<path d="M102.8,70.6L102.8,70.6c0.2-0.2,0.2-0.2,0.2-0.2v-0.1c0-0.1,0-0.1-0.1-0.1l-0.1-0.1h-0.1c-0.1,0-0.1,0.1-0.2,0.1V70
					c0,0,0.1-0.1,0.2-0.1s0.1,0,0.2,0s0.2,0,0.3,0.1s0.1,0.1,0.1,0.3c0,0.1,0,0.1-0.1,0.2c0,0.1-0.1,0.1-0.2,0.2l-0.1,0.1
					c-0.1,0.1-0.1,0.1-0.2,0.1c0,0,0,0.1,0,0.2l0,0h0.6v0.2h-0.7l0,0l0,0c0-0.1,0-0.2,0.1-0.3C102.6,70.7,102.7,70.7,102.8,70.6z"/>
				<path d="M103.7,71c0.1,0,0.1,0.1,0.2,0.1s0.1,0,0.2,0s0.2,0,0.2-0.1c0.1,0,0.1-0.1,0.1-0.2s0-0.1-0.1-0.2
					c-0.1,0-0.1-0.1-0.3-0.1l0,0l0,0v-0.1l0.3-0.3h-0.5V70h0.8v0.2l-0.3,0.3c0.1,0,0.2,0,0.3,0.1c0.1,0.1,0.1,0.1,0.1,0.3
					c0,0.1,0,0.2-0.1,0.3c-0.1,0.1-0.2,0.1-0.4,0.1h-0.1c-0.1,0-0.1,0-0.2-0.1L103.7,71L103.7,71z"/>
			</g>
		</g>
		<g enable-background="new    ">
			<g>
				<path fill="none" stroke="#231F20" stroke-width="0.05" stroke-miterlimit="10" d="M99.5,70.3C99.5,70.3,99.5,70.2,99.5,70.3
					l-0.2-0.1c-0.1,0-0.1,0-0.1,0l-0.1,0.1v0.1c0,0,0.1,0.1,0.2,0.1h0.1c0.1,0.1,0.2,0.1,0.2,0.2c0,0,0.1,0.1,0.1,0.2s0,0.2-0.1,0.2
					c-0.1,0.1-0.2,0.1-0.3,0.1c-0.1,0-0.2,0-0.3-0.1c-0.1-0.1-0.1-0.1-0.1-0.3h0.2l0,0c0,0.1,0,0.1,0,0.1l0.1,0.1
					c0.1,0,0.1,0,0.1-0.1l0.1-0.1v-0.1c0,0-0.1-0.1-0.2-0.1h-0.1c-0.1,0-0.1-0.1-0.2-0.1c0-0.1-0.1-0.1-0.1-0.2s0-0.2,0.1-0.2
					C99,70,99.1,70,99.2,70s0.2,0,0.2,0.1C99.5,70.2,99.5,70.2,99.5,70.3L99.5,70.3L99.5,70.3z"/>
				<path fill="none" stroke="#231F20" stroke-width="0.05" stroke-miterlimit="10" d="M100.9,70.6c0,0.2,0,0.3-0.1,0.4
					s-0.2,0.2-0.3,0.2c-0.1,0-0.2-0.1-0.3-0.2c-0.1-0.1-0.1-0.3-0.1-0.4s0-0.3,0.1-0.4s0.2-0.2,0.3-0.2c0.1,0,0.2,0.1,0.3,0.2
					C100.9,70.3,100.9,70.4,100.9,70.6z M100.5,71.1c0.1,0,0.1,0,0.2-0.1c0-0.1,0.1-0.2,0.1-0.3s0-0.2-0.1-0.3
					c0-0.1-0.1-0.1-0.2-0.1s-0.1,0-0.2,0.1c0,0.1-0.1,0.2-0.1,0.3c0,0.1,0,0.2,0.1,0.3C100.4,71,100.4,71.1,100.5,71.1z"/>
				<path fill="none" stroke="#231F20" stroke-width="0.05" stroke-miterlimit="10" d="M101.6,70.2h-0.3v-0.1h0.8v0.1h-0.3v1h-0.2
					V70.2L101.6,70.2z"/>
				<path fill="none" stroke="#231F20" stroke-width="0.05" stroke-miterlimit="10" d="M102.8,70.6L102.8,70.6
					c0.2-0.2,0.2-0.2,0.2-0.2v-0.1c0-0.1,0-0.1-0.1-0.1l-0.1-0.1h-0.1c-0.1,0-0.1,0.1-0.2,0.1V70c0,0,0.1-0.1,0.2-0.1s0.1,0,0.2,0
					s0.2,0,0.3,0.1s0.1,0.1,0.1,0.3c0,0.1,0,0.1-0.1,0.2c0,0.1-0.1,0.1-0.2,0.2l-0.1,0.1c-0.1,0.1-0.1,0.1-0.2,0.1c0,0,0,0.1,0,0.2
					l0,0h0.6v0.2h-0.7l0,0l0,0c0-0.1,0-0.2,0.1-0.3C102.6,70.7,102.7,70.7,102.8,70.6z"/>
				<path fill="none" stroke="#231F20" stroke-width="0.05" stroke-miterlimit="10" d="M103.7,71c0.1,0,0.1,0.1,0.2,0.1s0.1,0,0.2,0
					s0.2,0,0.2-0.1c0.1,0,0.1-0.1,0.1-0.2s0-0.1-0.1-0.2c-0.1,0-0.1-0.1-0.3-0.1l0,0l0,0v-0.1l0.3-0.3h-0.5V70h0.8v0.2l-0.3,0.3
					c0.1,0,0.2,0,0.3,0.1c0.1,0.1,0.1,0.1,0.1,0.3c0,0.1,0,0.2-0.1,0.3c-0.1,0.1-0.2,0.1-0.4,0.1h-0.1c-0.1,0-0.1,0-0.2-0.1
					L103.7,71L103.7,71z"/>
			</g>
		</g>
		<g>
			<g>
				<path stroke="#231F20" stroke-width="0.05" stroke-miterlimit="10" d="M101.8,71.4h0.2c-0.1,0.1-0.2,0.1-0.2,0.2
					s-0.1,0.2-0.2,0.3c0,0,0,0,0.1,0h0.1c0.1,0,0.2,0,0.3,0.1c0.1,0.1,0.1,0.2,0.1,0.3c0,0.1,0,0.2-0.1,0.3
					c-0.1,0.1-0.2,0.1-0.3,0.1c-0.1,0-0.2,0-0.3-0.1c-0.1-0.1-0.1-0.2-0.1-0.3c0-0.1,0-0.3,0.1-0.4
					C101.5,71.7,101.6,71.6,101.8,71.4z M101.7,72.5c0.1,0,0.1,0,0.2-0.1c0,0,0.1-0.1,0.1-0.2s0-0.1-0.1-0.2c0,0-0.1-0.1-0.2-0.1
					s-0.1,0-0.2,0.1s-0.1,0.1-0.1,0.2s0,0.1,0.1,0.2S101.6,72.5,101.7,72.5z"/>
			</g>
		</g>
	</g>
	<circle cx="98.9" cy="72.3" r="0.3"/>
</g>
<g id="SOT_23_5_1_">
	<g>
		<rect x="96.8" y="60" fill="#231F20" width="8.2" height="3.7"/>
		<polygon points="105,63.6 96.8,63.6 97.1,63.4 104.7,60.2 105,60 		"/>
		<polygon fill="#3F3F3F" points="96.8,63.6 96.8,60 105,60 104.7,60.2 97.1,63.4 		"/>
		<rect x="97.1" y="60.2" fill="#231F20" width="7.7" height="3.1"/>
		<rect x="97.6" y="63.6" fill="#999999" width="1.1" height="1.6"/>
		<rect x="103" y="63.6" fill="#999999" width="1.1" height="1.6"/>
		<rect x="97.6" y="63.6" display="none" fill="#666666" width="1.1" height="0.6"/>
		<rect x="103" y="63.6" display="none" fill="#666666" width="1.1" height="0.6"/>
		<rect x="103" y="58.4" fill="#999999" width="1.1" height="1.6"/>
		<rect x="103" y="59.4" display="none" fill="#666666" width="1.1" height="0.6"/>
		<rect x="103" y="59.2" fill="#7F7F7F" width="1.1" height="0.3"/>
		<rect x="97.6" y="58.4" fill="#999999" width="1.1" height="1.6"/>
		<rect x="97.6" y="59.4" display="none" fill="#666666" width="1.1" height="0.6"/>
		<rect x="97.6" y="59.2" fill="#7F7F7F" width="1.1" height="0.3"/>
		<rect x="103" y="64.1" fill="#7F7F7F" width="1.1" height="0.3"/>
		<rect x="100.3" y="63.6" fill="#999999" width="1.1" height="1.6"/>
		<rect x="100.3" y="63.6" display="none" fill="#666666" width="1.1" height="0.6"/>
		<rect x="100.3" y="64.1" fill="#7F7F7F" width="1.1" height="0.3"/>
		<rect x="97.6" y="64.1" fill="#7F7F7F" width="1.1" height="0.3"/>
		<g enable-background="new    ">
			<g>
				<path d="M98.7,60.8C98.7,60.8,98.7,60.7,98.7,60.8l-0.2-0.1c-0.1,0-0.1,0-0.1,0l-0.1,0.1v0.1c0,0,0.1,0.1,0.2,0.1h0.1
					c0.1,0.1,0.2,0.1,0.2,0.2c0,0.1,0.1,0.1,0.1,0.2c0,0.1,0,0.2-0.1,0.2c-0.1,0.1-0.2,0.1-0.3,0.1c-0.1,0-0.2,0-0.3-0.1
					c-0.1-0.1-0.1-0.1-0.1-0.3h0.2l0,0c0,0.1,0,0.1,0,0.1l0.1,0.1c0.1,0,0.1,0,0.1-0.1l0.1-0.1v-0.1c0,0-0.1-0.1-0.2-0.1h-0.1
					c-0.1,0-0.1-0.1-0.2-0.1c0-0.1-0.1-0.1-0.1-0.2c0-0.1,0-0.2,0.1-0.2c0.1-0.1,0.2-0.1,0.3-0.1c0.1,0,0.2,0,0.2,0.1
					C98.7,60.7,98.7,60.7,98.7,60.8L98.7,60.8L98.7,60.8z"/>
				<path d="M100.1,61.1c0,0.2,0,0.3-0.1,0.4c-0.1,0.1-0.2,0.2-0.3,0.2c-0.1,0-0.2-0.1-0.3-0.2c-0.1-0.1-0.1-0.3-0.1-0.4
					s0-0.3,0.1-0.4c0.1-0.1,0.2-0.2,0.3-0.2c0.1,0,0.2,0.1,0.3,0.2C100.1,60.8,100.1,60.9,100.1,61.1z M99.7,61.6
					c0.1,0,0.1,0,0.2-0.1c0-0.1,0.1-0.2,0.1-0.3s0-0.2-0.1-0.3c0-0.1-0.1-0.1-0.2-0.1s-0.1,0-0.2,0.1c0,0.1-0.1,0.2-0.1,0.3
					s0,0.2,0.1,0.3C99.6,61.5,99.6,61.6,99.7,61.6z"/>
				<path d="M100.8,60.7h-0.3v-0.1h0.8v0.1H101v1h-0.2V60.7L100.8,60.7z"/>
				<path d="M102,61.1L102,61.1c0.2-0.2,0.2-0.2,0.2-0.2v-0.1c0-0.1,0-0.1-0.1-0.1l-0.1-0.1h-0.1c-0.1,0-0.1,0.1-0.2,0.1v-0.2
					c0.1,0,0.1-0.1,0.2-0.1s0.1,0,0.2,0s0.2,0,0.3,0.1c0.1,0.1,0.1,0.1,0.1,0.3c0,0.1,0,0.1-0.1,0.2c0,0.1-0.1,0.1-0.2,0.2l-0.1,0.1
					c-0.1,0.1-0.1,0.1-0.2,0.1c0,0,0,0.1,0,0.2l0,0h0.6v0.2h-0.7l0,0l0,0c0-0.1,0-0.2,0.1-0.3C101.8,61.2,101.9,61.2,102,61.1z"/>
				<path d="M102.9,61.5c0.1,0,0.1,0.1,0.2,0.1s0.1,0,0.2,0s0.2,0,0.2-0.1c0.1,0,0.1-0.1,0.1-0.2c0-0.1,0-0.1-0.1-0.2
					c-0.1,0-0.1-0.1-0.3-0.1l0,0l0,0v-0.1l0.3-0.3H103v-0.1h0.8v0.2l-0.3,0.3c0.1,0,0.2,0,0.3,0.1c0.1,0.1,0.1,0.2,0.1,0.3
					s0,0.2-0.1,0.3s-0.2,0.1-0.4,0.1c-0.1,0-0.1,0-0.1,0c-0.1,0-0.1,0-0.2,0L102.9,61.5L102.9,61.5z"/>
			</g>
		</g>
		<g enable-background="new    ">
			<g>
				<path fill="none" stroke="#231F20" stroke-width="0.05" stroke-miterlimit="10" d="M98.7,60.8C98.7,60.8,98.7,60.7,98.7,60.8
					l-0.2-0.1c-0.1,0-0.1,0-0.1,0l-0.1,0.1v0.1c0,0,0.1,0.1,0.2,0.1h0.1c0.1,0.1,0.2,0.1,0.2,0.2c0,0.1,0.1,0.1,0.1,0.2
					c0,0.1,0,0.2-0.1,0.2c-0.1,0.1-0.2,0.1-0.3,0.1c-0.1,0-0.2,0-0.3-0.1c-0.1-0.1-0.1-0.1-0.1-0.3h0.2l0,0c0,0.1,0,0.1,0,0.1
					l0.1,0.1c0.1,0,0.1,0,0.1-0.1l0.1-0.1v-0.1c0,0-0.1-0.1-0.2-0.1h-0.1c-0.1,0-0.1-0.1-0.2-0.1c0-0.1-0.1-0.1-0.1-0.2
					c0-0.1,0-0.2,0.1-0.2c0.1-0.1,0.2-0.1,0.3-0.1c0.1,0,0.2,0,0.2,0.1C98.7,60.7,98.7,60.7,98.7,60.8L98.7,60.8L98.7,60.8z"/>
				<path fill="none" stroke="#231F20" stroke-width="0.05" stroke-miterlimit="10" d="M100.1,61.1c0,0.2,0,0.3-0.1,0.4
					c-0.1,0.1-0.2,0.2-0.3,0.2c-0.1,0-0.2-0.1-0.3-0.2c-0.1-0.1-0.1-0.3-0.1-0.4s0-0.3,0.1-0.4c0.1-0.1,0.2-0.2,0.3-0.2
					c0.1,0,0.2,0.1,0.3,0.2C100.1,60.8,100.1,60.9,100.1,61.1z M99.7,61.6c0.1,0,0.1,0,0.2-0.1c0-0.1,0.1-0.2,0.1-0.3s0-0.2-0.1-0.3
					c0-0.1-0.1-0.1-0.2-0.1s-0.1,0-0.2,0.1c0,0.1-0.1,0.2-0.1,0.3s0,0.2,0.1,0.3C99.6,61.5,99.6,61.6,99.7,61.6z"/>
				<path fill="none" stroke="#231F20" stroke-width="0.05" stroke-miterlimit="10" d="M100.8,60.7h-0.3v-0.1h0.8v0.1H101v1h-0.2
					V60.7L100.8,60.7z"/>
				<path fill="none" stroke="#231F20" stroke-width="0.05" stroke-miterlimit="10" d="M102,61.1L102,61.1c0.2-0.2,0.2-0.2,0.2-0.2
					v-0.1c0-0.1,0-0.1-0.1-0.1l-0.1-0.1h-0.1c-0.1,0-0.1,0.1-0.2,0.1v-0.2c0.1,0,0.1-0.1,0.2-0.1s0.1,0,0.2,0s0.2,0,0.3,0.1
					c0.1,0.1,0.1,0.1,0.1,0.3c0,0.1,0,0.1-0.1,0.2c0,0.1-0.1,0.1-0.2,0.2l-0.1,0.1c-0.1,0.1-0.1,0.1-0.2,0.1c0,0,0,0.1,0,0.2l0,0
					h0.6v0.2h-0.7l0,0l0,0c0-0.1,0-0.2,0.1-0.3C101.8,61.2,101.9,61.2,102,61.1z"/>
				<path fill="none" stroke="#231F20" stroke-width="0.05" stroke-miterlimit="10" d="M102.9,61.5c0.1,0,0.1,0.1,0.2,0.1
					s0.1,0,0.2,0s0.2,0,0.2-0.1c0.1,0,0.1-0.1,0.1-0.2c0-0.1,0-0.1-0.1-0.2c-0.1,0-0.1-0.1-0.3-0.1l0,0l0,0v-0.1l0.3-0.3H103v-0.1
					h0.8v0.2l-0.3,0.3c0.1,0,0.2,0,0.3,0.1c0.1,0.1,0.1,0.2,0.1,0.3s0,0.2-0.1,0.3s-0.2,0.1-0.4,0.1c-0.1,0-0.1,0-0.1,0
					c-0.1,0-0.1,0-0.2,0L102.9,61.5L102.9,61.5z"/>
			</g>
		</g>
		<text transform="matrix(1 0 0 1 100.2998 63.1621)" font-family="'OCRB10PitchBT-Regular'" font-size="2px">5</text>
		
			<text transform="matrix(1 0 0 1 100.2998 63.1621)" fill="none" stroke="#231F20" stroke-width="0.05" stroke-miterlimit="10" font-family="'OCRB10PitchBT-Regular'" font-size="2px">5</text>
	</g>
	<circle cx="98.2" cy="62.9" r="0.3"/>
</g>
<g id="SOT_223">
	<g>
		<rect x="48.6" y="65.5" fill="#999999" width="2" height="5"/>
		<rect x="55.1" y="65.5" fill="#999999" width="2" height="5"/>
		<rect x="61.7" y="65.5" fill="#999999" width="2" height="5"/>
		<rect x="51.9" y="50.6" fill="#999999" width="8.5" height="5"/>
		<rect x="46.9" y="55.6" fill="#231F20" width="18.4" height="9.9"/>
		<rect x="46.9" y="55.6" fill="#333333" width="18.4" height="9.9"/>
		<polygon fill="#666666" points="65.4,65.5 47.4,56 46.9,55.6 65.4,55.6 		"/>
		<polygon points="65.4,65.5 46.9,65.5 47.4,65.1 64.9,56 65.4,55.6 		"/>
		<rect x="47.4" y="56" fill="#231F20" width="17.6" height="9.1"/>
	</g>
	<g>
		<rect x="48.6" y="67.5" fill="#7C7C7C" width="2" height="1.4"/>
		<rect x="55.1" y="67.5" fill="#7C7C7C" width="2" height="1.4"/>
		<rect x="61.7" y="67.5" fill="#7C7C7C" width="2" height="1.4"/>
		<rect x="51.9" y="52.2" fill="#7C7C7C" width="8.5" height="1.4"/>
	</g>
	<g>
		<g>
			<path stroke="#231F20" stroke-width="0.1" stroke-miterlimit="10" d="M51.3,59.8c0-0.1,0-0.2-0.1-0.2c-0.1-0.1-0.1-0.1-0.3-0.1
				s-0.2,0-0.3,0.1s-0.1,0.1-0.1,0.2c0,0.1,0,0.1,0.1,0.2c0.1,0.1,0.2,0.1,0.3,0.2l0.1,0.1c0.2,0.1,0.3,0.2,0.4,0.3
				c0.1,0.1,0.1,0.2,0.1,0.4s-0.1,0.4-0.2,0.5c-0.1,0.1-0.3,0.2-0.6,0.2c-0.2,0-0.4-0.1-0.5-0.2C50.1,61.4,50,61.2,50,61h0.4l0,0
				c0,0.1,0,0.2,0.1,0.3s0.1,0.1,0.2,0.1c0.1,0,0.2,0,0.3-0.1s0.1-0.1,0.1-0.2c0-0.1,0-0.2-0.1-0.2c-0.1-0.1-0.2-0.1-0.4-0.2
				l-0.2-0.1c-0.2-0.1-0.3-0.2-0.3-0.3C50,60.2,50,60.1,50,59.9s0.1-0.3,0.2-0.4c0.1-0.1,0.3-0.2,0.5-0.2s0.4,0.1,0.5,0.2
				c0.1,0.1,0.2,0.3,0.2,0.4L51.3,59.8L51.3,59.8z"/>
			<path stroke="#231F20" stroke-width="0.1" stroke-miterlimit="10" d="M53.9,60.4c0,0.4-0.1,0.6-0.2,0.9c-0.2,0.2-0.4,0.3-0.6,0.3
				c-0.2,0-0.4-0.1-0.6-0.3c-0.2-0.2-0.2-0.5-0.2-0.9s0.1-0.6,0.2-0.9c0.2-0.2,0.4-0.3,0.6-0.3s0.4,0.1,0.6,0.3
				C53.8,59.7,53.9,60,53.9,60.4z M53.1,61.3c0.1,0,0.3-0.1,0.3-0.2c0.1-0.2,0.1-0.4,0.1-0.7s0-0.5-0.1-0.7s-0.2-0.2-0.4-0.2
				c-0.1,0-0.3,0.1-0.3,0.2c-0.1,0.2-0.1,0.4-0.1,0.7s0,0.5,0.1,0.7C52.8,61.2,52.9,61.3,53.1,61.3z"/>
			<path stroke="#231F20" stroke-width="0.1" stroke-miterlimit="10" d="M55,59.5h-0.6v-0.3H56v0.3h-0.6v2H55V59.5L55,59.5z"/>
			<path stroke="#231F20" stroke-width="0.1" stroke-miterlimit="10" d="M57.1,60.3l0.3-0.2c0.1-0.1,0.2-0.2,0.3-0.2
				c0.1-0.1,0.1-0.2,0.1-0.2c0-0.1,0-0.2-0.1-0.3s-0.2-0.1-0.3-0.1s-0.2,0-0.3,0.1c-0.1,0-0.2,0.1-0.4,0.2v-0.4
				c0.1-0.1,0.2-0.1,0.3-0.1s0.2,0,0.4,0c0.3,0,0.4,0.1,0.6,0.2c0.1,0.1,0.2,0.3,0.2,0.5c0,0.1,0,0.3-0.1,0.4
				c-0.1,0.1-0.2,0.2-0.4,0.3l-0.2,0.2c-0.2,0.1-0.3,0.2-0.3,0.3C57,60.9,57,61,57,61.2v0.1h1.1v0.3h-1.5c0,0,0,0,0-0.1v-0.1
				c0-0.3,0-0.5,0.1-0.6C56.8,60.6,56.9,60.5,57.1,60.3z"/>
			<path stroke="#231F20" stroke-width="0.1" stroke-miterlimit="10" d="M59.2,60.3l0.3-0.2c0.1-0.1,0.2-0.2,0.3-0.2
				c0.1-0.1,0.1-0.2,0.1-0.2c0-0.1,0-0.2-0.1-0.3s-0.2-0.1-0.3-0.1s-0.2,0-0.3,0.1c-0.1,0-0.2,0.1-0.4,0.2v-0.4
				c0.1-0.1,0.2-0.1,0.3-0.1s0.2,0,0.4,0c0.3,0,0.4,0.1,0.6,0.2c0.1,0.1,0.2,0.3,0.2,0.5c0,0.1,0,0.3-0.1,0.4
				c-0.1,0.1-0.2,0.2-0.4,0.3l-0.2,0.2c-0.2,0.1-0.3,0.2-0.3,0.3c-0.1,0.1-0.1,0.2-0.1,0.3v0.1h1.1v0.3h-1.5c0,0,0,0,0-0.1v-0.1
				c0-0.3,0-0.5,0.1-0.6C58.9,60.6,59,60.5,59.2,60.3z"/>
			<path stroke="#231F20" stroke-width="0.1" stroke-miterlimit="10" d="M60.8,61.1c0.1,0.1,0.2,0.1,0.3,0.1s0.2,0,0.3,0
				c0.2,0,0.3,0,0.4-0.1C62,61,62,60.9,62,60.8c0-0.2-0.1-0.3-0.2-0.4c-0.1-0.1-0.3-0.1-0.5-0.1c0,0,0,0-0.1,0h-0.1V60l0.7-0.7h-1.1
				V59h1.5v0.3L61.7,60c0.2,0,0.4,0.1,0.5,0.2c0.1,0.1,0.2,0.3,0.2,0.5c0,0.3-0.1,0.4-0.3,0.6c-0.2,0.1-0.4,0.2-0.7,0.2
				c-0.1,0-0.2,0-0.3,0s-0.2-0.1-0.3-0.1L60.8,61.1L60.8,61.1z"/>
		</g>
	</g>
</g>
<g id="LED_0603_1_">
	<path fill="#D8CC9A" d="M53.3,15.7h0.5c0,0,0-0.3,0-0.4v-1.5h-0.6L53.3,15.7L53.3,15.7"/>
	
		<line fill="none" stroke="#E6E6E6" stroke-width="0.1" stroke-linecap="round" stroke-miterlimit="10" x1="56.6" y1="15.7" x2="54" y2="15.7"/>
	<rect x="53" y="13.4" fill="#DCDCDC" width="4.5" height="1.3"/>
	<rect x="53.7" y="13.4" fill="#F2F2F2" width="3.1" height="2.3"/>
	<rect x="54.9" y="14.1" fill="#FFFFFF" width="0.6" height="0.9"/>
	<polygon fill="#D1C690" points="54.3,13.9 53.6,13.8 53.6,14.4 54.3,14.3 	"/>
	<path fill="#D1C690" d="M54.1,14L54.1,14c0.2,0,0.3,0.1,0.4,0.2c0.1,0.1,0.3,0.1,0.4,0.1H55v0.1c-0.2,0.1-0.3,0-0.5-0.1
		C54.5,14.2,54.3,14.2,54.1,14C54.1,14.1,54.1,14.1,54.1,14L54.1,14z"/>
	<polygon fill="#D1C690" points="56.1,15.2 56.8,15.3 56.8,14.7 56.1,14.8 	"/>
	<path fill="#D1C690" d="M55.2,14.5C55.3,14.5,55.3,14.5,55.2,14.5c0.1,0.3,0.7,0.5,1,0.5c0,0,0.1,0,0.1,0.1c0,0,0,0.1-0.1,0.1l0,0
		C56.2,15,55.3,15,55.2,14.5L55.2,14.5L55.2,14.5z"/>
	<path fill="#D1C690" d="M55,14.5c0,0,0.3,0,0.3-0.3c-0.1,0-0.3,0-0.3,0V14.5z"/>
	<path fill="#D1C690" d="M55.2,14.8c0,0-0.1-0.3-0.1-0.4c0.1,0,0.1-0.1,0.1,0C55.4,14.6,55.2,14.8,55.2,14.8z"/>
	<path opacity="0.5" fill="#F2F2F2" enable-background="new    " d="M56.8,15.7v-2.3h-3.1v2.3H56.8z"/>
	<path fill="#D1C690" d="M57.5,13.4h-0.6v0.5c0,0.1-0.1,0.2-0.1,0.3v1.5h0.7L57.5,13.4L57.5,13.4"/>
	<path fill="#D1C690" d="M52.9,13.4L52.9,13.4v2.3h0.7v-1.9c-0.1-0.1-0.1-0.1-0.1-0.3v-0.1H52.9"/>
	<rect x="53" y="15.6" display="none" opacity="0.5" fill="#FFFFFF" enable-background="new    " width="0.7" height="0.1"/>
	<path fill="#22B573" fill-opacity="0.7" d="M54.2,13.4c0,0,0.1,0.5-0.1,0.4c-0.1,0-0.3,0.1-0.5,0v-0.4H54.2L54.2,13.4z"/>
</g>
<g id="LED_0805">
	<polygon fill="#CCCCCC" points="58.3,11.8 52.7,11.8 52.7,11.6 53.5,10 52.7,8.5 52.7,8.3 52.7,8.3 52.7,8.3 58.3,8.3 58.3,8.3 
		58.3,8.3 58.3,8.5 57.4,10 58.3,11.6 	"/>
	<g>
		<g>
			<path fill="#CCCCCC" d="M53.5,11.6L53.5,11.6L53.5,11.6C53.4,11.5,53.4,11.5,53.5,11.6C53.4,11.5,53.4,11.6,53.5,11.6
				C53.4,11.6,53.4,11.6,53.5,11.6c-0.1,0-0.1,0-0.2,0c0,0,0,0-0.1,0l0,0l0,0c0,0,0,0,0-0.1s0-0.1,0.1-0.1c0,0,0.1,0,0.2,0h0.1l0,0
				c0,0,0,0,0-0.1l0,0l0,0l0,0h-0.1c0,0,0,0-0.1,0v-0.1c0,0,0,0,0.1,0h0.1h0.1c0,0,0,0,0.1,0c0,0,0,0,0,0.1c0,0,0,0,0,0.1L53.5,11.6
				L53.5,11.6z M53.3,11.5L53.3,11.5C53.4,11.5,53.4,11.5,53.3,11.5c0.1-0.1,0.1-0.1,0.1-0.1s0,0,0-0.1l0,0h-0.1h-0.1l0,0l0,0
				C53.2,11.4,53.2,11.4,53.3,11.5C53.2,11.5,53.2,11.5,53.3,11.5C53.2,11.5,53.3,11.5,53.3,11.5z"/>
			<path fill="#CCCCCC" d="M53.9,11L53.9,11C54,11,54,11,53.9,11L53.9,11C54,11.1,53.9,11.1,53.9,11C53.9,11.1,53.9,11.1,53.9,11
				C53.9,11.1,53.9,11.1,53.9,11c-0.1,0.1-0.1,0.1-0.1,0.1s0,0,0,0.1c0,0,0,0,0,0.1v0.3h-0.1V11H53.9l-0.1,0.1l0,0l0,0
				C53.8,11.1,53.8,11.1,53.9,11C53.8,11.1,53.8,11,53.9,11L53.9,11z"/>
			<path fill="#CCCCCC" d="M54.4,11.6v-0.3v-0.1c0,0,0,0-0.1,0c0,0,0,0-0.1,0l0,0c0,0,0,0,0,0.1v0.1v0.3h-0.1V11h0.1v0.1l0,0l0,0
				l0,0l0,0l0,0c0.1,0,0.1,0,0.1,0v0.1L54.4,11.6C54.5,11.6,54.4,11.6,54.4,11.6z"/>
			<path fill="#CCCCCC" d="M55,11.6L55,11.6L55,11.6C54.9,11.5,54.9,11.5,55,11.6C54.9,11.5,54.9,11.6,55,11.6
				C54.9,11.6,54.9,11.6,55,11.6c-0.1,0-0.1,0-0.2,0s0,0-0.1,0l0,0l0,0c0,0,0,0,0-0.1s0-0.1,0.1-0.1c0,0,0.1,0,0.2,0h0.1l0,0
				c0,0,0,0,0-0.1l0,0l0,0l0,0H55c0,0,0,0-0.1,0v-0.1H55h0.1h0.1c0,0,0,0,0.1,0c0,0,0,0,0,0.1c0,0,0,0,0,0.1L55,11.6L55,11.6z
				 M54.8,11.5L54.8,11.5C54.9,11.5,54.9,11.5,54.8,11.5c0.1-0.1,0.1-0.1,0.1-0.1s0,0,0-0.1l0,0h-0.1h-0.1l0,0l0,0
				C54.7,11.4,54.7,11.4,54.8,11.5C54.7,11.5,54.7,11.5,54.8,11.5L54.8,11.5z"/>
			<path fill="#CCCCCC" d="M55.4,11C55.5,11,55.5,11,55.4,11c0.1,0,0.1,0,0.1,0.1v0.1v0.1v0.1v0.1c0,0,0,0-0.1,0.1h-0.1
				c0,0,0,0-0.1,0l0,0l0,0l0,0l0,0v0.1h-0.1v-0.8h0.1V11l0,0l0,0l0,0l0,0l0,0C55.3,11.1,55.3,11.1,55.4,11L55.4,11L55.4,11z
				 M55.4,11.1L55.4,11.1C55.3,11.1,55.3,11.1,55.4,11.1c-0.1,0-0.1,0-0.1,0.1v0.1v0.1c0,0,0,0,0,0.1l0,0c0,0,0,0,0.1,0
				c0,0,0.1,0,0.1-0.1c0,0,0-0.1,0-0.2C55.6,11.2,55.5,11.2,55.4,11.1C55.5,11.1,55.5,11.1,55.4,11.1z"/>
			<path fill="#CCCCCC" d="M55.8,11.5L55.8,11.5L55.8,11.5L55.8,11.5L55.8,11.5C55.8,11.5,55.9,11.5,55.8,11.5
				c0.1-0.1,0.1-0.1,0.1-0.1l0,0l0,0l0,0l0,0C55.9,11.6,55.9,11.6,55.8,11.5C55.9,11.6,55.8,11.6,55.8,11.5
				C55.8,11.6,55.8,11.6,55.8,11.5C55.8,11.6,55.8,11.6,55.8,11.5C55.8,11.6,55.8,11.6,55.8,11.5L55.8,11.5z"/>
			<path fill="#CCCCCC" d="M56.3,11C56.3,11,56.4,11,56.3,11c0.1,0,0.1,0,0.1,0.1c0,0,0,0,0,0.1v0.1v0.1v0.1c0,0,0,0-0.1,0.1h-0.1
				c0,0,0,0-0.1,0l0,0l0,0l0,0l0,0v0.1H56v-0.8h0.1V11l0,0l0,0l0,0l0,0l0,0C56.2,11.1,56.2,11.1,56.3,11C56.2,11,56.2,11,56.3,11
				L56.3,11z M56.3,11.1C56.3,11.1,56.2,11.1,56.3,11.1C56.2,11.1,56.2,11.1,56.3,11.1c-0.1,0-0.1,0-0.1,0.1v0.1v0.1c0,0,0,0,0,0.1
				l0,0c0,0,0,0,0.1,0c0,0,0.1,0,0.1-0.1c0,0,0-0.1,0-0.2C56.4,11.2,56.4,11.2,56.3,11.1C56.4,11.1,56.3,11.1,56.3,11.1z"/>
			<path fill="#CCCCCC" d="M56.7,11.6L56.7,11.6l-0.1-0.8h0.1V11.6z"/>
			<path fill="#CCCCCC" d="M57.2,11.6L57.2,11.6L57.2,11.6C57.2,11.5,57.2,11.5,57.2,11.6C57.2,11.5,57.2,11.6,57.2,11.6
				C57.1,11.6,57.1,11.6,57.2,11.6L57.2,11.6H57c0,0,0,0-0.1,0c0,0,0,0,0-0.1v-0.1V11H57v0.3v0.1c0,0,0,0,0.1,0
				C57.1,11.5,57.1,11.5,57.2,11.6c-0.1-0.1-0.1-0.1-0.1-0.1s0,0,0-0.1v-0.1V11h0.1V11.6L57.2,11.6L57.2,11.6z"/>
			<path fill="#CCCCCC" d="M57.7,11.6L57.7,11.6c-0.1,0-0.1,0-0.2-0.1v-0.1v-0.1v-0.1v-0.1c0,0,0,0,0.1-0.1h0.1h0.1c0,0,0,0,0.1,0.1
				c0,0,0,0,0,0.1v0.1v0.1h-0.3c0,0.1,0,0.1,0,0.1S57.7,11.5,57.7,11.6C57.7,11.5,57.7,11.5,57.7,11.6
				C57.8,11.5,57.8,11.5,57.7,11.6c0.1-0.1,0.1-0.1,0.1-0.1l0,0L57.7,11.6L57.7,11.6C57.8,11.6,57.8,11.6,57.7,11.6
				C57.8,11.6,57.8,11.6,57.7,11.6L57.7,11.6z M57.7,11.1C57.6,11.1,57.6,11.1,57.7,11.1c-0.1,0.1-0.1,0.1-0.1,0.1h0.2
				c0,0,0,0,0-0.1C57.8,11.2,57.8,11.2,57.7,11.1C57.8,11.1,57.7,11.1,57.7,11.1L57.7,11.1z"/>
		</g>
	</g>
	<polygon fill="#FFFFCC" points="58.3,11.8 52.6,11.8 52.6,10.8 53.5,10 52.6,9.1 52.6,8.2 52.6,8.2 52.6,8.2 58.3,8.2 58.3,8.2 
		58.3,8.2 58.3,9.4 57.4,10 58.3,10.6 	"/>
	<g>
		<circle fill="#C4B969" cx="56.3" cy="10.2" r="0.4"/>
		
			<polyline fill="none" stroke="#C4B969" stroke-width="0.5" stroke-linecap="round" stroke-linejoin="round" stroke-miterlimit="10" points="
			54.5,9.9 54.5,10.6 53.2,10.6 		"/>
		
			<line fill="none" stroke="#C4B969" stroke-width="0.5" stroke-linejoin="round" stroke-miterlimit="10" x1="56.3" y1="10.2" x2="56.3" y2="9"/>
		
			<line fill="none" stroke="#C4B969" stroke-width="0.5" stroke-linecap="round" stroke-linejoin="round" stroke-miterlimit="10" x1="56.3" y1="9" x2="57.6" y2="9"/>
		
			<rect x="54" y="9.4" fill="#C4B969" stroke="#C4B969" stroke-width="0.5" stroke-linecap="round" stroke-linejoin="round" stroke-miterlimit="10" width="1" height="1"/>
		<circle fill="#CCCCCC" cx="54.5" cy="9.9" r="0.5"/>
		<rect x="54.2" y="9.6" width="0.6" height="0.6"/>
		
			<path fill="none" stroke="#FFCC00" stroke-width="0.1" stroke-linecap="round" stroke-linejoin="round" stroke-miterlimit="10" d="
			M54.5,9.9c0.2-0.2,1.5,0,1.7,0.4"/>
	</g>
	<g opacity="0.6">
		<path fill="#CCCCCC" d="M54,8.5c-0.1,0-0.2,0.1-0.2,0.1s-0.2,1.3-0.2,1.1V8.5c0-0.1,0.1-0.3,0.3-0.3h1.4C55.4,8.3,54,8.5,54,8.5z"
			/>
		<path fill="#CCCCCC" d="M57,11.5c0.1,0,0.2-0.1,0.2-0.1s0.2-1.3,0.2-1.1v1.2c0,0.1-0.1,0.3-0.3,0.3h-1.4
			C55.5,11.6,57,11.5,57,11.5z"/>
	</g>
	<rect x="53.5" y="8.2" opacity="0.6" fill="#FFFFFF" enable-background="new    " width="4" height="3.5"/>
	<path fill="#C4B969" d="M57.5,8.3v3.4h0.8v-1.1c-0.3,0-0.6-0.3-0.6-0.6s0.3-0.6,0.6-0.6V8.3H57.5z"/>
	<path fill="#C4B969" d="M52.6,8.8v0.6c0.3,0,0.6,0.3,0.6,0.6s-0.3,0.6-0.6,0.6v0.6c0.3,0,0.7-0.2,0.9-0.4V9.2
		C53.3,9,52.9,8.8,52.6,8.8z"/>
	<g opacity="0.4">
		<path fill="#00CC33" d="M52.6,11.6h0.8v-0.7c-0.2,0.3-0.5,0.4-0.8,0.4V11.6z"/>
		<path fill="#00CC33" d="M53.5,8.4h-0.8v0.3c0.3,0,0.6,0.2,0.8,0.4V8.4L53.5,8.4z"/>
	</g>
</g>
<g id="LED_1206">
	<polygon fill="#CCCCCC" points="61.6,6.7 52.6,6.7 52.6,6.4 53.4,4.4 52.6,2.5 52.6,2.2 52.6,2.2 52.6,2.2 61.6,2.2 61.6,2.2 
		61.6,2.2 61.6,2.5 60.8,4.4 61.6,6.4 	"/>
	<g>
		<g>
			<path fill="#CCCCCC" d="M55.1,6L55.1,6L55.1,6C55,5.9,55,5.9,55.1,6C55,5.9,55,5.9,55.1,6C55,6,55,6,55.1,6C55,6,55,6,54.9,6
				c0,0,0,0-0.1,0l0,0l0,0c0,0,0,0,0-0.1s0-0.1,0.1-0.1c0,0,0.1,0,0.2,0h0.1l0,0c0,0,0,0,0-0.1l0,0l0,0l0,0h-0.1c0,0,0,0-0.1,0V5.6
				h0.1h0.1h0.1c0,0,0,0,0.1,0c0,0,0,0,0,0.1c0,0,0,0,0,0.1L55.1,6L55.1,6L55.1,6z M54.9,5.9L54.9,5.9C55,5.9,55,5.9,54.9,5.9
				C55,5.8,55,5.8,54.9,5.9C55,5.8,55,5.8,55,5.7l0,0h-0.1h-0.1l0,0l0,0C54.8,5.8,54.8,5.8,54.9,5.9C54.8,5.8,54.8,5.9,54.9,5.9
				L54.9,5.9z"/>
			<path fill="#CCCCCC" d="M55.5,5.4L55.5,5.4C55.6,5.4,55.6,5.4,55.5,5.4L55.5,5.4C55.6,5.5,55.6,5.5,55.5,5.4
				C55.5,5.5,55.5,5.5,55.5,5.4C55.5,5.5,55.5,5.5,55.5,5.4C55.4,5.5,55.4,5.5,55.5,5.4c-0.1,0.1-0.1,0.1-0.1,0.2c0,0,0,0,0,0.1V6
				h-0.1V5.4H55.5L55.5,5.4L55.5,5.4L55.5,5.4C55.4,5.5,55.4,5.5,55.5,5.4C55.4,5.4,55.5,5.4,55.5,5.4L55.5,5.4z"/>
			<path fill="#CCCCCC" d="M56,6V5.6V5.5c0,0,0,0-0.1,0c0,0,0,0-0.1,0l0,0c0,0,0,0,0,0.1v0.1V6h-0.1V5.4h0.1v0.1l0,0l0,0l0,0l0,0
				l0,0c0.1,0,0.1,0,0.1,0v0.1L56,6C56.1,6,56,6,56,6z"/>
			<path fill="#CCCCCC" d="M56.6,6L56.6,6L56.6,6C56.5,5.9,56.5,5.9,56.6,6C56.5,5.9,56.5,5.9,56.6,6C56.5,6,56.5,6,56.6,6
				c-0.1,0-0.1,0-0.2,0c0,0,0,0-0.1,0l0,0l0,0c0,0,0,0,0-0.1s0-0.1,0.1-0.1c0,0,0.1,0,0.2,0h0.1l0,0c0,0,0,0,0-0.1l0,0l0,0l0,0h-0.1
				c0,0,0,0-0.1,0V5.6h0.1h0.1h0.1c0,0,0,0,0.1,0c0,0,0,0,0,0.1c0,0,0,0,0,0.1L56.6,6L56.6,6L56.6,6z M56.4,5.9
				C56.4,5.9,56.5,5.9,56.4,5.9C56.5,5.9,56.5,5.9,56.4,5.9C56.5,5.8,56.5,5.8,56.4,5.9c0.1-0.1,0.1-0.1,0.1-0.2l0,0h-0.1h-0.1l0,0
				l0,0C56.3,5.8,56.3,5.8,56.4,5.9C56.3,5.8,56.3,5.9,56.4,5.9L56.4,5.9z"/>
			<path fill="#CCCCCC" d="M57.1,5.4L57.1,5.4C57.2,5.4,57.2,5.4,57.1,5.4c0.1,0.2,0.1,0.2,0.1,0.2v0.1v0.1v0.1c0,0,0,0-0.1,0.1H57
				c0,0,0,0-0.1,0l0,0l0,0l0,0l0,0v0.1h-0.1V5.2h0.1v0.2l0,0l0,0l0,0l0,0l0,0C56.9,5.4,56.9,5.4,57.1,5.4C57,5.4,57,5.4,57.1,5.4
				C57,5.4,57,5.4,57.1,5.4z M57,5.5L57,5.5C56.9,5.5,56.9,5.5,57,5.5c-0.1,0.1-0.1,0.1-0.1,0.2v0.1v0.1c0,0,0,0,0,0.1l0,0
				c0,0,0,0,0.1,0c0,0,0.1,0,0.1-0.1c0,0,0-0.1,0-0.2C57.2,5.6,57.2,5.6,57,5.5C57.1,5.5,57.1,5.5,57,5.5z"/>
			<path fill="#CCCCCC" d="M57.4,5.9L57.4,5.9L57.4,5.9C57.4,5.8,57.4,5.8,57.4,5.9C57.4,5.8,57.4,5.8,57.4,5.9
				C57.5,5.8,57.5,5.8,57.4,5.9C57.5,5.8,57.5,5.8,57.4,5.9L57.4,5.9L57.4,5.9L57.4,5.9L57.4,5.9C57.5,6,57.5,6,57.4,5.9
				C57.5,6,57.5,6,57.4,5.9C57.4,6,57.4,6,57.4,5.9C57.4,6,57.4,6,57.4,5.9L57.4,5.9L57.4,5.9z"/>
			<path fill="#CCCCCC" d="M57.9,5.4C57.9,5.4,58,5.4,57.9,5.4C58,5.4,58,5.4,57.9,5.4L58,5.6v0.1v0.1v0.1c0,0,0,0-0.1,0.1h-0.1
				c0,0,0,0-0.1,0l0,0l0,0l0,0l0,0v0.1h-0.1V5.2h0.1v0.2l0,0l0,0l0,0l0,0l0,0C57.8,5.4,57.8,5.4,57.9,5.4
				C57.8,5.4,57.8,5.4,57.9,5.4L57.9,5.4z M57.9,5.5C57.9,5.5,57.8,5.5,57.9,5.5C57.8,5.5,57.8,5.5,57.9,5.5
				c-0.1,0.1-0.1,0.1-0.1,0.2v0.1v0.1c0,0,0,0,0,0.1l0,0c0,0,0,0,0.1,0c0,0,0.1,0,0.1-0.1c0,0,0-0.1,0-0.2S58,5.6,57.9,5.5
				C58,5.5,57.9,5.5,57.9,5.5z"/>
			<path fill="#CCCCCC" d="M58.3,6L58.3,6l-0.1-0.8h0.1V6z"/>
			<path fill="#CCCCCC" d="M58.9,6L58.9,6L58.9,6C58.8,5.9,58.8,5.9,58.9,6C58.8,5.9,58.8,5.9,58.9,6C58.8,6,58.8,6,58.9,6L58.9,6
				h-0.2c0,0,0,0-0.1,0c0,0,0,0,0-0.1V5.8V5.4h0.1v0.3v0.1c0,0,0,0,0.1,0C58.7,5.9,58.7,5.9,58.9,6C58.8,5.9,58.8,5.9,58.9,6
				c-0.1-0.1-0.1-0.1-0.1-0.2V5.7V5.4h0.1V6L58.9,6z"/>
			<path fill="#CCCCCC" d="M59.3,6L59.3,6c-0.1,0-0.2,0-0.2-0.1V5.8V5.7V5.6V5.5c0,0,0,0,0.1-0.1h0.1h0.1c0,0,0,0,0.1,0
				c0,0,0,0,0,0.1v0.1v0.1h-0.3c0,0.1,0,0.1,0,0.1C59.2,5.9,59.3,5.9,59.3,6C59.3,5.9,59.3,5.9,59.3,6C59.4,5.9,59.4,5.9,59.3,6
				C59.4,5.9,59.4,5.9,59.3,6L59.3,6L59.3,6L59.3,6C59.4,5.9,59.4,6,59.3,6C59.4,6,59.4,6,59.3,6L59.3,6z M59.3,5.5
				C59.3,5.5,59.2,5.5,59.3,5.5C59.2,5.6,59.2,5.6,59.3,5.5L59.3,5.5C59.4,5.6,59.4,5.6,59.3,5.5C59.4,5.6,59.4,5.5,59.3,5.5
				C59.4,5.5,59.4,5.5,59.3,5.5L59.3,5.5z"/>
		</g>
	</g>
	<polygon fill="#FFFFCC" points="61.6,6.6 52.5,6.6 52.5,6.4 53.4,4.4 52.5,2.4 52.5,2.1 52.5,2.1 52.5,2.1 61.6,2.1 61.6,2.1 
		61.6,2.1 61.6,2.4 60.7,4.4 61.6,6.4 	"/>
	<rect x="59.9" y="2.4" display="none" fill="#999900" width="1.7" height="4"/>
	<path display="none" fill="#999900" d="M53.1,4.4c0,0.3-0.3,0.6-0.6,0.6V3.8C52.8,3.8,53.1,4.1,53.1,4.4z"/>
	<rect x="52.5" y="2.4" display="none" fill="#999900" width="1.7" height="4"/>
	<circle fill="#C4B969" cx="57.7" cy="4.5" r="0.4"/>
	<polyline fill="none" stroke="#C4B969" stroke-width="0.5" stroke-linejoin="round" stroke-miterlimit="10" points="56,4.3 56,5 
		53.9,5 	"/>
	
		<line fill="none" stroke="#C4B969" stroke-width="0.5" stroke-linejoin="round" stroke-miterlimit="10" x1="57.7" y1="4.5" x2="57.7" y2="3.4"/>
	
		<line fill="none" stroke="#C4B969" stroke-width="0.5" stroke-linecap="round" stroke-linejoin="round" stroke-miterlimit="10" x1="57.7" y1="3.4" x2="60.3" y2="3.4"/>
	
		<rect x="55.5" y="3.8" fill="#C4B969" stroke="#C4B969" stroke-width="0.5" stroke-linecap="round" stroke-linejoin="round" stroke-miterlimit="10" width="1" height="1"/>
	<circle fill="#CCCCCC" cx="56" cy="4.3" r="0.5"/>
	<rect x="55.7" y="4" width="0.6" height="0.6"/>
	<path fill="none" stroke="#FFCC00" stroke-width="0.1" stroke-linecap="round" stroke-linejoin="round" stroke-miterlimit="10" d="
		M56,4.3c0.2-0.2,1.5,0,1.7,0.4"/>
	<g opacity="0.6">
		<path fill="#CCCCCC" d="M54.7,2.4c-0.1,0-0.2,0.2-0.2,0.2S54.3,4,54.3,3.9V2.5c0-0.2,0.1-0.3,0.3-0.3h1.6
			C56.4,2.2,54.7,2.4,54.7,2.4z"/>
		<path fill="#CCCCCC" d="M59.4,6.3c0.1,0,0.2-0.2,0.2-0.2s0.2-1.5,0.2-1.3v1.4c0,0.2-0.1,0.3-0.3,0.3h-1.6
			C57.7,6.5,59.4,6.3,59.4,6.3z"/>
	</g>
	<rect x="54.2" y="2.1" opacity="0.6" fill="#FFFFFF" enable-background="new    " width="5.7" height="4.5"/>
	<path fill="#C4B969" d="M52.5,2.7v1.1c0.3,0,0.6,0.3,0.6,0.6c0,0.3-0.3,0.6-0.6,0.6v1.1c0.9,0,1.7-0.8,1.7-1.7
		C54.2,3.4,53.5,2.7,52.5,2.7z"/>
	<path fill="#C4B969" d="M60.4,2.4v0.7c-0.3,0.3-0.6,0.8-0.6,1.3s0.2,0.9,0.6,1.3v0.8h1.1V6.1V4.9c-0.3,0-0.6-0.3-0.6-0.6
		c0-0.3,0.3-0.6,0.6-0.6v-1V2.4H60.4z"/>
	<g opacity="0.3">
		<path fill="#00CC33" d="M52.6,6.4h1.1V5.7C53.4,6,53,6.2,52.6,6.2V6.4z"/>
		<path fill="#00CC33" d="M53.7,2.3h-1.1v0.3c0.4,0,0.8,0.2,1.1,0.4V2.3L53.7,2.3z"/>
	</g>
</g>
<g id="Crystal">
	<rect x="5.6" y="60" fill="#333333" width="30.6" height="12.9"/>
	<rect x="2.8" y="66" fill="#999999" width="35.7" height="1.7"/>
	
		<linearGradient id="SVGID_1_" gradientUnits="userSpaceOnUse" x1="599.4827" y1="-872.569" x2="617.4307" y2="-890.5173" gradientTransform="matrix(1 0 0 -1 -587.6201 -814.9566)">
		<stop  offset="0" style="stop-color:#ACAAAA"/>
		<stop  offset="0.6019" style="stop-color:#726F70"/>
		<stop  offset="0.6796" style="stop-color:#787576"/>
		<stop  offset="1" style="stop-color:#585556"/>
	</linearGradient>
	<path fill="url(#SVGID_1_)" d="M11.9,73c-3.5,0-6.4-2.9-6.4-6.4l0,0c0-3.5,2.9-6.4,6.4-6.4h17.9c3.5,0,6.4,2.9,6.4,6.4l0,0
		c0,3.5-2.9,6.4-6.4,6.4H11.9z"/>
	<path opacity="0.8" fill="#4F4F4F" fill-opacity="0.3" enable-background="new    " d="M11.9,71.8c-2.9,0-5.2-2.4-5.2-5.2l0,0
		c0-2.9,2.3-5.2,5.2-5.2h17.9c2.9,0,5.2,2.3,5.2,5.2l0,0c0,2.9-2.3,5.2-5.2,5.2H11.9z"/>
	<g>
		<path id="path31" fill="#BFBFBF" d="M30.5,61.6H11.2c-2.3,0-4.3,2.2-4.3,5c0,2.7,1.9,5,4.3,5h19.3c2.3,0,4.3-2.2,4.3-5
			C34.7,63.9,32.8,61.6,30.5,61.6L30.5,61.6z"/>
		<path id="path53" opacity="0.8" fill="#4F4F4F" fill-opacity="0.3" enable-background="new    " d="M30,71.5H12
			c-1.8,0-3.2-1.2-3.9-2.8C8,68.5,9,70.9,12,71.1h18.1C30.5,71.4,30,71.5,30,71.5z"/>
		<path id="path53_1_" fill="#FFFFFF" fill-opacity="0.4" d="M11.8,61.6h18c1.8,0,3.2,1.2,3.9,2.8c0.1,0.1-0.9-2.2-3.9-2.5H11.7
			C11.3,61.7,11.8,61.6,11.8,61.6z"/>
		<path id="path59" fill="#FFFFFF" fill-opacity="0.4" d="M7.4,66.5c0-2,1.3-3.7,2.3-4.5C8.4,62.4,7,64.2,7,66.5
			c0,2.4,1.9,4.2,2.8,4.6C9,70.4,7.4,68.7,7.4,66.5z"/>
		<path id="path65" fill="#878787" fill-opacity="0.4" d="M31.9,62.2c1.1,0.8,2.3,2.3,2.3,4.4s-1.3,3.7-2.3,4.5
			c1-0.4,2.7-2.1,2.7-4.4C34.6,64.3,33.1,62.6,31.9,62.2z"/>
	</g>
	<g opacity="0.4">
		<g>
			<path fill="#666666" stroke="#BFBFBF" stroke-width="0.2" stroke-miterlimit="10" d="M11.5,68.2h-0.4l0.7-2.1
				c0-0.1,0-0.1,0.1-0.2c0-0.1,0.1-0.1,0.1-0.2s0.1-0.1,0.1-0.2s0.1-0.1,0.1-0.2l-0.1,0.1c0,0-0.1,0-0.1,0.1c0,0-0.1,0-0.1,0.1
				c0,0-0.1,0-0.1,0.1L11.4,66l-0.1-0.3l1.1-0.7h0.3L11.5,68.2z"/>
			<path fill="#666666" stroke="#BFBFBF" stroke-width="0.2" stroke-miterlimit="10" d="M13.2,66.7c0.1-0.2,0.1-0.3,0.2-0.5
				c0.1-0.2,0.2-0.3,0.2-0.5c0.1-0.1,0.2-0.3,0.3-0.4s0.2-0.2,0.4-0.3c0.1-0.1,0.3-0.2,0.5-0.2c0.2-0.1,0.4-0.1,0.6-0.1h0.1h0.1h0.1
				h0.1l-0.1,0.4c-0.1,0-0.1,0-0.2,0c-0.1,0-0.1,0-0.2,0c-0.1,0-0.3,0-0.4,0.1c-0.1,0-0.2,0.1-0.3,0.1c-0.1,0.1-0.2,0.1-0.3,0.2
				s-0.2,0.2-0.2,0.3C14,65.9,14,66,13.9,66.1s-0.1,0.2-0.2,0.4l0,0c0.1-0.1,0.1-0.1,0.2-0.2c0.1-0.1,0.1-0.1,0.2-0.1
				c0.1,0,0.1-0.1,0.2-0.1c0.1,0,0.2,0,0.3,0s0.3,0,0.4,0.1s0.2,0.1,0.2,0.2c0.1,0.1,0.1,0.2,0.1,0.3c0,0.1,0,0.3-0.1,0.4
				c-0.1,0.2-0.1,0.3-0.2,0.5c-0.1,0.1-0.2,0.3-0.3,0.4s-0.3,0.2-0.4,0.2c-0.1,0.1-0.3,0.1-0.5,0.1s-0.3,0-0.4-0.1
				c-0.1-0.1-0.2-0.2-0.3-0.3C13,67.8,13,67.6,13,67.4C13.1,67.2,13.2,67,13.2,66.7z M13.9,67.9c0.1,0,0.2,0,0.3-0.1
				c0.1,0,0.2-0.1,0.2-0.1c0.1-0.1,0.1-0.1,0.2-0.2c0.1-0.1,0.1-0.2,0.2-0.3c0-0.1,0.1-0.2,0.1-0.3c0-0.1,0-0.2,0-0.2
				c0-0.1-0.1-0.1-0.1-0.1c-0.1,0-0.1,0-0.3,0c-0.1,0-0.2,0-0.3,0.1c-0.1,0-0.2,0.1-0.3,0.1c-0.1,0.1-0.1,0.1-0.2,0.2
				c-0.1,0.1-0.1,0.1-0.1,0.2s-0.1,0.2-0.1,0.3c0,0.1,0,0.2,0,0.3c0,0.1,0.1,0.1,0.1,0.2C13.7,67.8,13.8,67.9,13.9,67.9z"/>
			<path fill="#666666" stroke="#BFBFBF" stroke-width="0.2" stroke-miterlimit="10" d="M15.5,67.9c0-0.1,0-0.1,0.1-0.1l0.1-0.1
				c0,0,0.1,0,0.1-0.1h0.1H16c0,0,0.1,0,0.1,0.1v0.1v0.1c0,0.1,0,0.1-0.1,0.1l-0.1,0.1c0,0-0.1,0-0.1,0.1h-0.1h-0.1
				c0,0-0.1,0-0.1-0.1L15.5,67.9C15.5,68,15.5,68,15.5,67.9z"/>
			<path fill="#666666" stroke="#BFBFBF" stroke-width="0.2" stroke-miterlimit="10" d="M19.3,66.5c-0.1,0.3-0.2,0.5-0.3,0.7
				c-0.1,0.2-0.2,0.4-0.4,0.5c-0.1,0.1-0.3,0.3-0.5,0.3c-0.2,0.1-0.3,0.1-0.5,0.1s-0.3,0-0.4-0.1c-0.1,0-0.2-0.1-0.2-0.2
				s0-0.3,0-0.5s0.1-0.5,0.2-0.7c0.1-0.3,0.2-0.5,0.3-0.7c0.1-0.2,0.2-0.4,0.4-0.5c0.1-0.1,0.3-0.3,0.5-0.3c0.2-0.1,0.3-0.1,0.5-0.1
				s0.3,0,0.4,0.1s0.2,0.2,0.2,0.3c0,0.1,0,0.3,0,0.5C19.5,66,19.4,66.2,19.3,66.5z M17.6,66.5c-0.1,0.2-0.1,0.4-0.2,0.6
				c0,0.2-0.1,0.3,0,0.4c0,0.1,0,0.2,0.1,0.3c0.1,0.1,0.1,0.1,0.3,0.1c0.1,0,0.2,0,0.3-0.1c0.1-0.1,0.2-0.1,0.3-0.3
				c0.1-0.1,0.2-0.3,0.3-0.4c0.1-0.2,0.2-0.4,0.2-0.6s0.1-0.4,0.2-0.6c0-0.2,0-0.3,0-0.4S19,65.3,19,65.2c-0.1-0.1-0.2-0.1-0.3-0.1
				c-0.1,0-0.2,0-0.3,0.1c-0.1,0.1-0.2,0.1-0.3,0.3c-0.1,0.1-0.2,0.3-0.3,0.4C17.8,66.1,17.7,66.3,17.6,66.5z"/>
			<path fill="#666666" stroke="#BFBFBF" stroke-width="0.2" stroke-miterlimit="10" d="M21.9,66.5c-0.1,0.3-0.2,0.5-0.3,0.7
				c-0.1,0.2-0.2,0.4-0.4,0.5c-0.1,0.1-0.3,0.3-0.5,0.3c-0.2,0.1-0.3,0.1-0.5,0.1s-0.3,0-0.4-0.1s-0.2-0.2-0.2-0.3
				c0-0.1,0-0.3,0-0.5s0.1-0.5,0.2-0.7c0.1-0.3,0.2-0.5,0.3-0.7c0.1-0.2,0.2-0.4,0.4-0.5c0.1-0.1,0.3-0.3,0.5-0.3
				c0.2-0.1,0.3-0.1,0.5-0.1s0.3,0,0.4,0.1s0.2,0.2,0.2,0.3c0,0.1,0,0.3,0,0.5S22,66.2,21.9,66.5z M20.2,66.5
				c-0.1,0.2-0.1,0.4-0.2,0.6c0,0.2-0.1,0.3,0,0.4c0,0.1,0,0.2,0.1,0.3c0.1,0.1,0.1,0.1,0.3,0.1c0.1,0,0.2,0,0.3-0.1
				c0.1-0.1,0.2-0.1,0.3-0.3c0.1-0.1,0.2-0.3,0.3-0.4c0.1-0.2,0.2-0.4,0.2-0.6c0.1-0.2,0.1-0.4,0.2-0.6c0-0.2,0.1-0.3,0-0.4
				c0-0.1-0.1-0.2-0.1-0.3c-0.1-0.1-0.2-0.1-0.3-0.1c-0.1,0-0.2,0-0.3,0.1c-0.1,0.1-0.2,0.1-0.3,0.3c-0.1,0.1-0.2,0.3-0.3,0.4
				C20.4,66.1,20.3,66.3,20.2,66.5z"/>
			<path fill="#666666" stroke="#BFBFBF" stroke-width="0.2" stroke-miterlimit="10" d="M23.4,68.2v-2.9l0,0c0,0.1-0.1,0.2-0.1,0.3
				c0,0.1-0.1,0.2-0.1,0.3c0,0.1-0.1,0.2-0.1,0.3l-0.7,2H22l1.2-3.4h0.6v2.7l0,0l1.9-2.7h0.6l-1.2,3.4h-0.4l0.7-2
				c0-0.1,0.1-0.2,0.1-0.3c0-0.1,0.1-0.2,0.1-0.3c0-0.1,0.1-0.2,0.1-0.3l0,0l-2.1,2.9H23.4L23.4,68.2z"/>
			<path fill="#666666" stroke="#BFBFBF" stroke-width="0.2" stroke-miterlimit="10" d="M28.5,68.2h-0.4l0.6-1.6h-1.5l-0.6,1.6h-0.4
				l1.2-3.4h0.4l-0.5,1.4h1.5l0.5-1.4h0.4L28.5,68.2z"/>
			<path fill="#666666" stroke="#BFBFBF" stroke-width="0.2" stroke-miterlimit="10" d="M30.8,68.2h-1.7l0.1-0.3l1.9-1.9H30l0.1-0.3
				h1.6L31.6,66l-1.9,1.9h1.2L30.8,68.2z"/>
		</g>
	</g>
</g>
<g id="Switch_1">
	<rect x="68.2" y="44.4" fill="#333333" width="10.1" height="16.9"/>
	<g>
		<rect x="72.3" y="41.5" fill="#CCCCCC" width="1.7" height="22.7"/>
		<rect x="72.3" y="42.6" fill="#999999" width="1.7" height="0.6"/>
		<rect x="72.3" y="62.5" fill="#999999" width="1.7" height="0.6"/>
	</g>
	<polygon fill="#DBDBDB" points="68.1,61.1 68.1,44.6 71.8,44.6 71.8,44.3 74.6,44.3 74.6,44.6 78.3,44.6 78.3,61.1 74.6,61.1 
		74.6,61.3 71.8,61.3 71.8,61.1 	"/>
	<g opacity="0.5">
		<polygon fill="#BAB9B9" points="78.2,44.8 78.2,60.9 78,59.9 78,45.8 		"/>
		<polygon fill="#999999" points="68.4,45.8 68.4,59.9 68.2,60.9 68.2,44.8 		"/>
	</g>
	<g opacity="0.5">
		<path fill="#999999" d="M70,58.8c-0.1,0-0.2-0.1-0.2-0.1V47c0-0.1,0.1-0.1,0.2-0.1h6.5c0.1,0,0.2,0.1,0.2,0.1v11.6
			c0,0.1-0.1,0.1-0.2,0.1L70,58.8L70,58.8z"/>
		<path fill="#848484" d="M70,58.8c-0.1,0-0.2-0.1-0.2-0.1V47c0-0.1,0.1-0.1,0.2-0.1h6.5c0.1,0,0.2,0.1,0.2,0.1l-0.3,0.3
			c0,0.1-5.9,11.2-6,11.2L70,58.8z"/>
		<path fill="#666666" d="M69.8,58.6V47c0-0.1,0.1-0.1,0.2-0.1h6.5c0.1,0-0.3,0.3-0.3,0.3c0,0.1-6,11.2-6.1,11.2
			C70.1,58.4,69.8,58.7,69.8,58.6z"/>
	</g>
	<path fill="#DBDBDB" d="M70.5,58.2c-0.1,0-0.2-0.1-0.2-0.1V47.6c0-0.1,0.1-0.1,0.2-0.1h5.4c0.1,0,0.2,0.1,0.2,0.1v10.5
		c0,0.1-0.1,0.1-0.2,0.1L70.5,58.2L70.5,58.2z"/>
	<path fill="#999999" d="M71.4,56.6C71.3,56.6,71.3,56.5,71.4,56.6l-0.1-7.3c0-0.1,0.1-0.1,0.1-0.1H75c0.1,0,0.1,0.1,0.1,0.1v7.2
		c0,0.1-0.1,0.1-0.1,0.1H71.4z"/>
	<path fill="#FFFEEB" d="M71.5,56.5C71.4,56.5,71.4,56.4,71.5,56.5l-0.1-7.2c0-0.1,0.1-0.1,0.1-0.1h3.4c0.1,0,0.1,0.1,0.1,0.1v7.1
		c0,0.1-0.1,0.1-0.1,0.1L71.5,56.5z"/>
</g>
<g id="L_CD42_CD43">
	<rect x="74.3" y="3" fill="#CCCCCC" width="5" height="12.8"/>
	<rect x="65.1" y="3" fill="#CCCCCC" width="5" height="12.8"/>
	<path d="M78.6,10.1h-0.7c-0.4,0-0.7-0.3-0.7-0.7s0.3-0.7,0.7-0.7h0.7c-0.2-2.2-1.6-4-3.4-5h-5.8c-1.9,1-3.2,2.8-3.4,5h0.7
		c0.4,0,0.7,0.3,0.7,0.7s-0.3,0.7-0.7,0.7H66c0.2,2.2,1.6,4,3.4,5h5.8C77,14.1,78.3,12.3,78.6,10.1z"/>
	<path fill="#333333" d="M78.3,10.3h-0.6C77.3,10.1,77,9.8,77,9.4c0-0.4,0.3-0.9,0.7-0.9h0.6c-0.2-2.1-1.5-3.7-3.3-4.6h-5.6
		c-1.8,0.9-3.1,2.7-3.3,4.6h0.6c0.4,0.1,0.7,0.5,0.7,0.8c0,0.4-0.3,0.7-0.7,0.8h-0.6c0.2,1.9,1.5,3.7,3.3,4.6H75
		C76.8,13.9,78.1,12.2,78.3,10.3z"/>
	
		<text transform="matrix(1 0 0 1 67.9951 11.2934)" opacity="0.4" enable-background="new    " font-family="'DroidSans'" font-size="5px">4R7</text>
</g>
<g id="L_CD73_CD75">
	<rect x="82.7" y="1.8" fill="#CCCCCC" width="8.5" height="21.3"/>
	<rect x="96.9" y="1.8" fill="#CCCCCC" width="8.5" height="21.3"/>
	<path d="M105,13.9h-0.6c-0.8,0-1.4-0.6-1.4-1.4c0-0.8,0.6-1.4,1.4-1.4h0.6c-0.5-3.7-2.8-6.9-6.1-8.5h-9.8c-3.3,1.6-5.6,4.8-6.1,8.5
		h0.6c0.8,0,1.4,0.6,1.4,1.4c0,0.8-0.6,1.4-1.4,1.4H83c0.5,3.7,2.8,6.9,6.1,8.5h9.8C102.2,20.8,104.5,17.6,105,13.9z"/>
	<path fill="#333333" d="M104.7,14h-0.6c-0.9-0.1-1.4-0.8-1.4-1.6s0.5-1.4,1.4-1.5h0.6c-0.5-3.5-2.8-6.6-5.9-8.1h-9.5
		c-3.2,1.6-5.5,4.7-5.9,8.1H84c0.8,0.1,1.4,0.8,1.4,1.6s-0.6,1.5-1.5,1.6h-0.6c0.5,3.5,2.8,6.6,6,8.1h9.5
		C102,20.6,104.3,17.5,104.7,14z"/>
	
		<text transform="matrix(1 0 0 1 86.7686 14.9819)" opacity="0.4" enable-background="new    " font-family="'OCRB10PitchBT-Regular'" font-size="8px">220</text>
</g>
<g id="MBF">
	<rect x="47.7" y="19.9" fill="#CCCCCC" width="1.8" height="19.8"/>
	<rect x="54.8" y="19.9" fill="#CCCCCC" width="1.8" height="19.8"/>
	<rect x="47.7" y="21.5" fill="#999999" width="1.8" height="0.7"/>
	<rect x="54.8" y="21.5" fill="#999999" width="1.8" height="0.7"/>
	<rect x="54.8" y="37.4" fill="#999999" width="1.8" height="0.7"/>
	<rect x="47.7" y="37.4" fill="#999999" width="1.8" height="0.7"/>
	<path id="path47" fill="#333333" d="M45.2,23.9v3.2v5.4v3.2h13.9V23.9H45.2z"/>
	<path id="path47_1_" fill="#1A171B" d="M45.5,24.2v3.1v5.2v3.1h13.3V24.2H45.5z"/>
	<path fill="#333333" d="M53.4,24.2c-0.1,0.6-0.7,1.1-1.4,1.1s-1.3-0.5-1.4-1.1H53.4z"/>
	<path fill="#1A171B" d="M53.2,23.9c0,0.1,0,0.2,0,0.3C53,24.6,52.6,25,52.1,25s-1-0.4-1.1-0.8c0-0.1,0-0.2,0-0.3L53.2,23.9
		L53.2,23.9z"/>
	<g>
		<g>
			<path fill="#666666" d="M48.1,30.9l-0.8-2.2l0,0c0,0.1,0,0.2,0,0.3c0,0.1,0,0.1,0,0.2s0,0.1,0,0.2v1.5H47v-2.5h0.5l0.7,2l0,0
				l0.7-2h0.5v2.5h-0.3v-1.5c0-0.1,0-0.1,0-0.2s0-0.1,0-0.2s0-0.2,0-0.2l0,0L48.3,31L48.1,30.9L48.1,30.9z"/>
			<path fill="#666666" d="M50.1,28.4h0.7c0.1,0,0.3,0,0.4,0c0.1,0,0.2,0.1,0.3,0.1s0.1,0.1,0.2,0.2c0,0.1,0.1,0.2,0.1,0.3
				c0,0.1,0,0.1,0,0.2s-0.1,0.1-0.1,0.2c0,0-0.1,0.1-0.2,0.1c-0.1,0-0.1,0.1-0.2,0.1l0,0c0.1,0,0.2,0,0.2,0.1c0.1,0,0.1,0.1,0.2,0.1
				c0,0,0.1,0.1,0.1,0.2s0,0.2,0,0.3c0,0.1,0,0.2-0.1,0.3s-0.1,0.2-0.2,0.2c-0.1,0.1-0.2,0.1-0.3,0.1S51,31,50.9,31h-0.8L50.1,28.4
				L50.1,28.4z M50.5,29.4h0.4c0.1,0,0.2,0,0.2,0c0.1,0,0.1,0,0.2-0.1l0.1-0.1c0-0.1,0-0.1,0-0.2s0-0.2-0.1-0.3
				c-0.1-0.1-0.2-0.1-0.4-0.1h-0.4V29.4L50.5,29.4z M50.5,29.7v0.9H51c0.1,0,0.2,0,0.3,0s0.1-0.1,0.2-0.1s0.1-0.1,0.1-0.1
				c0-0.1,0-0.1,0-0.2s0-0.1,0-0.2s-0.1-0.1-0.1-0.1s-0.1-0.1-0.2-0.1c-0.1,0-0.2,0-0.3,0L50.5,29.7L50.5,29.7z"/>
			<path fill="#666666" d="M53.2,30.9h-0.3v-1.6c0,0,0-0.1,0-0.2s0-0.1,0-0.2s0-0.1,0-0.2s0-0.1,0-0.1s0,0-0.1,0.1l0,0l0,0
				c0,0,0,0-0.1,0.1L52.4,29l-0.2-0.2l0.7-0.5h0.3V30.9L53.2,30.9z"/>
			<path fill="#666666" d="M55.7,29.6c0,0.2,0,0.4,0,0.5c0,0.2-0.1,0.3-0.1,0.4s-0.1,0.2-0.3,0.3c-0.1,0.1-0.2,0.1-0.4,0.1
				c-0.1,0-0.3,0-0.4-0.1c-0.1-0.1-0.2-0.1-0.2-0.3c-0.1-0.1-0.1-0.2-0.1-0.4c0-0.2,0-0.3,0-0.5s0-0.4,0-0.5s0.1-0.3,0.1-0.4
				c0.1-0.1,0.1-0.2,0.2-0.3c0.1-0.1,0.2-0.1,0.4-0.1c0.1,0,0.3,0,0.4,0.1s0.2,0.1,0.2,0.3c0.1,0.1,0.1,0.2,0.1,0.4
				C55.6,29.2,55.7,29.4,55.7,29.6z M54.4,29.6c0,0.2,0,0.3,0,0.4s0,0.2,0.1,0.3c0,0.1,0.1,0.1,0.1,0.2c0.1,0,0.1,0.1,0.2,0.1
				c0.1,0,0.2,0,0.2-0.1c0.1,0,0.1-0.1,0.2-0.2c0-0.1,0.1-0.2,0.1-0.3c0-0.1,0-0.3,0-0.4s0-0.3,0-0.4s0-0.2-0.1-0.3
				c0-0.1-0.1-0.1-0.2-0.2c-0.1,0-0.1-0.1-0.2-0.1s-0.2,0-0.2,0.1s-0.1,0.1-0.1,0.2s-0.1,0.2-0.1,0.3S54.4,29.4,54.4,29.6z"/>
			<path fill="#666666" d="M56.5,30.9h-0.3v-2.5h1.3v0.3h-1v0.9h0.9v0.3h-0.9V30.9z"/>
		</g>
	</g>
	<g>
		<g>
			<g>
				<g>
					<path fill="#666666" d="M48.1,25.8v-0.3h1v0.3H48.1z"/>
				</g>
			</g>
			<g>
				<g>
					<path fill="#666666" d="M55.5,25.8h-0.8v-0.3h0.8v-0.8h0.3v0.8h0.8v0.3h-0.8v0.8h-0.3V25.8z"/>
				</g>
			</g>
			<g>
				<g>
					<path fill="#666666" d="M48.5,34.4C48.5,34.4,48.4,34.4,48.5,34.4l-0.2-0.1h-0.1h-0.1H48c0,0-0.1,0-0.1,0.1c0,0-0.1,0-0.1,0.1
						l-0.1,0.1v-0.3c0.1-0.1,0.3-0.2,0.5-0.2h0.1h0.1h0.1c0,0,0.1,0,0.2,0.1c0,0,0.1,0,0.1,0.1h0.1H49h0.1h0.1c0,0,0.1,0,0.1-0.1
						c0,0,0.1,0,0.1-0.1l0.1-0.1v0.3c-0.1,0.1-0.3,0.2-0.5,0.2h-0.1h-0.1h-0.1C48.6,34.5,48.5,34.5,48.5,34.4z"/>
				</g>
			</g>
			<g>
				<g>
					<path fill="#666666" d="M55.6,34.5C55.6,34.5,55.5,34.5,55.6,34.5l-0.2-0.1h-0.1h-0.1h-0.1c0,0-0.1,0-0.1,0.1
						c0,0-0.1,0-0.1,0.1l-0.1,0.1v-0.3c0.1-0.1,0.3-0.2,0.5-0.2h0.1h0.1h0.1c0,0,0.1,0,0.2,0.1c0,0,0.1,0,0.1,0.1H56h0.1h0.1h0.1
						c0,0,0.1,0,0.1-0.1c0,0,0.1,0,0.1-0.1l0.1-0.1v0.3c-0.1,0.1-0.3,0.2-0.5,0.2H56h-0.1h-0.1C55.7,34.6,55.6,34.5,55.6,34.5z"/>
				</g>
			</g>
		</g>
	</g>
</g>
<g id="ABS">
	<rect x="76.4" y="20.2" fill="#CCCCCC" width="1.8" height="18.4"/>
	<rect x="76.4" y="21.1" fill="#999999" width="1.8" height="0.7"/>
	<rect x="76.4" y="37" fill="#999999" width="1.8" height="0.7"/>
	<rect x="65" y="20.2" fill="#CCCCCC" width="1.8" height="18.4"/>
	<rect x="65" y="21.1" fill="#999999" width="1.8" height="0.7"/>
	<rect x="65" y="37" fill="#999999" width="1.8" height="0.7"/>
	<path id="path47_3_" fill="#333333" d="M64.5,23.2v3.4v5.7v3.4h14.2V23.2H64.5z"/>
	<path id="path47_2_" fill="#1A171B" d="M64.8,23.5v3.2v5.4v3.2h13.6V23.5H64.8z"/>
	<path fill="#333333" d="M72.9,23.5c-0.1,0.6-0.7,1.1-1.4,1.1c-0.7,0-1.3-0.5-1.4-1.1H72.9z"/>
	<path fill="#1A171B" d="M72.6,23.2c0,0.1,0,0.2,0,0.3c-0.1,0.5-0.6,0.8-1.1,0.8s-1-0.4-1.1-0.8c0-0.1,0-0.2,0-0.3H72.6L72.6,23.2z"
		/>
	<g display="none">
		<g display="inline">
			<path fill="#666666" d="M67.6,30.4l-0.8-2.2l0,0c0,0.1,0,0.2,0,0.3c0,0.1,0,0.1,0,0.2s0,0.1,0,0.2v1.5h-0.3v-2.5H67l0.7,2l0,0
				l0.7-2h0.5v2.5h-0.3v-1.5c0-0.1,0-0.1,0-0.2s0-0.1,0-0.2s0-0.2,0-0.2l0,0l-0.8,2.2L67.6,30.4L67.6,30.4z"/>
			<path fill="#666666" d="M69.6,27.9h0.7c0.1,0,0.3,0,0.4,0S70.9,28,71,28c0.1,0.1,0.1,0.1,0.2,0.2c0,0.1,0.1,0.2,0.1,0.3
				c0,0.1,0,0.1,0,0.2s-0.1,0.1-0.1,0.2c0,0-0.1,0.1-0.2,0.1s-0.1,0.1-0.2,0.1l0,0c0.1,0,0.2,0,0.2,0.1c0.1,0,0.1,0.1,0.2,0.1
				s0.1,0.1,0.1,0.2s0,0.1,0,0.3c0,0.1,0,0.2-0.1,0.3c0,0.1-0.1,0.2-0.2,0.2c-0.1,0.1-0.2,0.1-0.3,0.1c-0.1,0-0.2,0.1-0.3,0.1h-0.8
				L69.6,27.9L69.6,27.9z M69.9,29h0.4c0.1,0,0.2,0,0.2,0c0.1,0,0.1,0,0.2-0.1l0.1-0.1c0-0.1,0-0.1,0-0.2s0-0.2-0.1-0.3
				c-0.1-0.1-0.2-0.1-0.4-0.1h-0.4L69.9,29L69.9,29z M69.9,29.3v0.9h0.5c0.1,0,0.2,0,0.3,0c0.1,0,0.1-0.1,0.2-0.1S71,30,71,30
				c0-0.1,0-0.1,0-0.2s0-0.1,0-0.2s-0.1-0.1-0.1-0.1s-0.1-0.1-0.2-0.1s-0.2,0-0.3,0L69.9,29.3L69.9,29.3z"/>
			<path fill="#666666" d="M72.6,30.4h-0.3v-1.6c0,0,0-0.1,0-0.2s0-0.1,0-0.2s0-0.1,0-0.2s0-0.1,0-0.1s0,0-0.1,0.1l0,0l0,0
				c0,0,0,0-0.1,0.1l-0.3,0.2l-0.2-0.2l0.7-0.5h0.3V30.4L72.6,30.4z"/>
			<path fill="#666666" d="M75.1,29.2c0,0.2,0,0.4,0,0.5c0,0.2-0.1,0.3-0.1,0.4c-0.1,0.1-0.1,0.2-0.3,0.3c-0.1,0.1-0.2,0.1-0.4,0.1
				c-0.1,0-0.3,0-0.4-0.1s-0.2-0.1-0.2-0.3s-0.1-0.2-0.1-0.4c0-0.2-0.1-0.3-0.1-0.5s0-0.4,0-0.5c0-0.2,0.1-0.3,0.1-0.4
				c0.1-0.1,0.1-0.2,0.2-0.3c0.1-0.1,0.2-0.1,0.4-0.1c0.1,0,0.3,0,0.4,0.1s0.2,0.1,0.2,0.3c0.1,0.1,0.1,0.2,0.1,0.4
				C75.1,28.8,75.1,29,75.1,29.2z M73.8,29.2c0,0.2,0,0.3,0,0.4s0,0.2,0.1,0.3c0,0.1,0.1,0.1,0.1,0.2c0.1,0,0.1,0.1,0.2,0.1
				s0.2,0,0.2-0.1c0.1,0,0.1-0.1,0.2-0.2c0-0.1,0.1-0.2,0.1-0.3c0-0.1,0-0.3,0-0.4c0-0.2,0-0.3,0-0.4s0-0.2-0.1-0.3
				c0-0.1-0.1-0.1-0.2-0.2c-0.1,0-0.1-0.1-0.2-0.1s-0.2,0-0.2,0.1c-0.1,0-0.1,0.1-0.1,0.2s-0.1,0.2-0.1,0.3S73.8,29,73.8,29.2z"/>
			<path fill="#666666" d="M75.9,30.4h-0.3v-2.5h1.3v0.3h-1v0.9h0.9v0.3h-0.9V30.4L75.9,30.4z"/>
		</g>
	</g>
	<g>
		<g>
			<g>
				<g>
					<path fill="#666666" d="M67.5,25.4v-0.3h1v0.3H67.5z"/>
				</g>
			</g>
			<g>
				<g>
					<path fill="#666666" d="M75,25.4h-0.8v-0.3H75v-0.8h0.3v0.8H76v0.3h-0.8v0.8H75V25.4z"/>
				</g>
			</g>
			<g>
				<g>
					<path fill="#666666" d="M67.9,34C67.8,34,67.8,34,67.9,34l-0.2-0.1h-0.1h-0.1h-0.1c0,0-0.1,0-0.1,0.1c0,0-0.1,0-0.1,0.1
						s-0.1,0.1-0.1,0.1v-0.3c0.1-0.1,0.3-0.2,0.5-0.2h0.1h0.1h0.1c0,0,0.1,0,0.2,0.1c0,0,0.1,0,0.1,0.1h0.1h0.1h0.1h0.1
						c0,0,0.1,0,0.1-0.1c0,0,0.1,0,0.1-0.1l0.1-0.1v0.3c-0.1,0.1-0.3,0.2-0.5,0.2h-0.1h-0.1h-0.1C68.1,34.1,68,34,67.9,34z"/>
				</g>
			</g>
			<g>
				<g>
					<path fill="#666666" d="M75,34.1C74.9,34.1,74.9,34.1,75,34.1L74.8,34h-0.1h-0.1h-0.1c0,0-0.1,0-0.1,0.1c0,0-0.1,0-0.1,0.1
						l-0.1,0.1V34c0.1-0.1,0.3-0.2,0.5-0.2h0.1h0.1H75c0,0,0.1,0,0.2,0.1c0,0,0.1,0,0.1,0.1h0.1h0.1h0.1h0.1c0,0,0.1,0,0.1-0.1
						c0,0,0.1,0,0.1-0.1l0.1-0.1V34c-0.1,0.1-0.3,0.2-0.5,0.2h-0.1h-0.1h-0.1C75.1,34.1,75.1,34.1,75,34.1z"/>
				</g>
			</g>
		</g>
	</g>
	<g>
		<g>
			<path fill="#666666" d="M67.6,30.7l-0.3-0.8h-0.9l-0.3,0.8h-0.3l0.9-2.5H67l0.9,2.5H67.6z M67.2,29.6L67,28.9c0,0,0,0,0-0.1v-0.1
				v-0.1v-0.1v0.1v0.1v0.1v0.1l-0.2,0.7H67.2z"/>
			<path fill="#666666" d="M68.3,28.2H69c0.1,0,0.3,0,0.4,0s0.2,0.1,0.3,0.1c0.1,0,0.1,0.1,0.2,0.2s0.1,0.2,0.1,0.3
				c0,0.1,0,0.1,0,0.2s-0.1,0.1-0.1,0.2c0,0-0.1,0.1-0.2,0.1s-0.1,0.1-0.2,0.1l0,0c0.1,0,0.1,0,0.2,0.1c0.1,0,0.1,0.1,0.2,0.1
				s0.1,0.1,0.1,0.2s0,0.2,0,0.3c0,0.1,0,0.2-0.1,0.3c0,0.1-0.1,0.2-0.2,0.2c-0.1,0.1-0.2,0.1-0.3,0.1c-0.1,0-0.2,0.1-0.3,0.1h-0.8
				L68.3,28.2L68.3,28.2z M68.6,29.2H69c0.1,0,0.2,0,0.2,0c0.1,0,0.1,0,0.2-0.1l0.1-0.1c0-0.1,0-0.1,0-0.2s0-0.2-0.1-0.3
				c-0.1-0.1-0.2-0.1-0.4-0.1h-0.4L68.6,29.2L68.6,29.2z M68.6,29.5v0.9H69c0.1,0,0.2,0,0.3,0c0.1,0,0.1-0.1,0.2-0.1l0.1-0.1
				c0-0.1,0-0.1,0-0.2s0-0.1,0-0.2s-0.1-0.1-0.1-0.1s-0.1-0.1-0.2-0.1s-0.2,0-0.3,0L68.6,29.5L68.6,29.5z"/>
			<path fill="#666666" d="M71.8,30c0,0.1,0,0.2-0.1,0.3c0,0.1-0.1,0.2-0.2,0.2c-0.1,0.1-0.2,0.1-0.3,0.1c-0.1,0-0.2,0-0.4,0
				c-0.1,0-0.2,0-0.4,0c-0.1,0-0.2,0-0.3-0.1v-0.3c0,0,0.1,0,0.1,0.1c0.1,0,0.1,0,0.2,0s0.1,0,0.2,0s0.1,0,0.2,0
				c0.2,0,0.3,0,0.4-0.1s0.1-0.2,0.1-0.3c0-0.1,0-0.1,0-0.2c0,0,0-0.1-0.1-0.1c0,0-0.1-0.1-0.2-0.1s-0.2-0.1-0.3-0.1
				c-0.1,0-0.2-0.1-0.3-0.1c-0.1,0-0.1-0.1-0.2-0.2s-0.1-0.1-0.1-0.2s0-0.2,0-0.3c0-0.1,0-0.2,0.1-0.3c0-0.1,0.1-0.1,0.2-0.2
				s0.1-0.1,0.2-0.1s0.2,0,0.3,0c0.1,0,0.3,0,0.4,0s0.2,0.1,0.3,0.1l-0.1,0.3c-0.1,0-0.2-0.1-0.3-0.1c-0.1,0-0.2,0-0.3,0
				c-0.1,0-0.2,0-0.3,0.1c-0.1,0.1-0.1,0.1-0.1,0.3c0,0.1,0,0.1,0,0.2c0,0,0,0.1,0.1,0.1c0,0,0.1,0.1,0.2,0.1s0.1,0.1,0.2,0.1
				s0.2,0.1,0.3,0.1c0.1,0,0.1,0.1,0.2,0.1c0.1,0.1,0.1,0.1,0.1,0.2C71.7,29.8,71.8,29.9,71.8,30z"/>
			<path fill="#666666" d="M73.1,30.7h-0.3v-1.6c0,0,0-0.1,0-0.2s0-0.1,0-0.2s0-0.1,0-0.2s0-0.1,0-0.1s0,0-0.1,0.1l0,0
				c0,0,0,0-0.1,0c0,0,0,0-0.1,0.1l-0.3,0.2L72,28.6l0.7-0.5H73L73.1,30.7L73.1,30.7z"/>
			<path fill="#666666" d="M75.6,29.4c0,0.2,0,0.4,0,0.5c0,0.2-0.1,0.3-0.1,0.4c-0.1,0.1-0.1,0.2-0.2,0.3s-0.2,0.1-0.4,0.1
				c-0.1,0-0.3,0-0.4-0.1s-0.2-0.1-0.2-0.3c-0.1-0.1-0.1-0.2-0.1-0.4c0-0.2-0.1-0.3-0.1-0.5s0-0.4,0-0.5c0-0.2,0.1-0.3,0.1-0.4
				c0.1-0.1,0.1-0.2,0.2-0.3c0.1-0.1,0.2-0.1,0.4-0.1c0.1,0,0.3,0,0.4,0.1s0.2,0.1,0.3,0.3c0.1,0.1,0.1,0.2,0.1,0.4
				C75.6,29,75.6,29.2,75.6,29.4z M74.3,29.4c0,0.2,0,0.3,0,0.4s0,0.2,0.1,0.3c0,0.1,0.1,0.1,0.1,0.2c0.1,0,0.1,0.1,0.2,0.1
				s0.2,0,0.2-0.1c0.1,0,0.1-0.1,0.1-0.2s0.1-0.2,0.1-0.3c0-0.1,0-0.3,0-0.5s0-0.3,0-0.4s0-0.2-0.1-0.3c0-0.1-0.1-0.1-0.1-0.2
				c-0.1,0-0.1-0.1-0.2-0.1s-0.2,0-0.2,0.1c-0.1,0-0.1,0.1-0.1,0.2s-0.1,0.2-0.1,0.3C74.3,29.1,74.3,29.2,74.3,29.4z"/>
			<path fill="#666666" d="M77.4,30c0,0.1,0,0.2-0.1,0.3c0,0.1-0.1,0.2-0.2,0.2c-0.1,0.1-0.2,0.1-0.3,0.1c-0.1,0-0.2,0-0.4,0
				c-0.1,0-0.2,0-0.4,0c-0.1,0-0.2,0-0.3-0.1v-0.3c0,0,0.1,0,0.1,0.1c0,0,0.1,0,0.2,0s0.1,0,0.2,0s0.1,0,0.2,0c0.2,0,0.3,0,0.4-0.1
				s0.1-0.2,0.1-0.3c0-0.1,0-0.1,0-0.2c0,0,0-0.1-0.1-0.1c0,0-0.1-0.1-0.2-0.1s-0.2-0.1-0.3-0.1c-0.1,0-0.2-0.1-0.3-0.1
				c-0.1,0-0.1-0.1-0.2-0.2c0.3,0.1,0.2,0,0.2-0.1s0-0.2,0-0.3c0-0.1,0-0.2,0.1-0.3c0-0.1,0.1-0.1,0.2-0.2s0.1-0.1,0.2-0.1
				s0.2,0,0.3,0c0.1,0,0.3,0,0.4,0s0.2,0.1,0.3,0.1l-0.1,0.3c-0.1,0-0.2-0.1-0.3-0.1c-0.1,0-0.2,0-0.3,0c-0.1,0-0.2,0-0.3,0.1
				c-0.1,0.1-0.1,0.2-0.1,0.3c0,0.1,0,0.1,0,0.2c0,0,0,0.1,0.1,0.1c0,0,0.1,0.1,0.2,0.1s0.1,0.1,0.2,0.1s0.2,0.1,0.3,0.1
				s0.1,0.1,0.2,0.1c0.1,0.1,0.1,0.1,0.1,0.2C77.4,29.8,77.4,29.9,77.4,30z"/>
		</g>
	</g>
</g>
<g id="DPAK">
	<g>
		<polygon fill="#CCCCCC" points="99,27.1 103,27.8 103,30.2 88.8,30.2 88.8,27.8 92.8,27.1 93.5,27.1 93.5,27.8 98.3,27.8 
			98.3,27.1 		"/>
		<rect x="94.9" y="47.1" fill="#CCCCCC" width="2" height="2.8"/>
		<rect x="88.4" y="47.1" fill="#CCCCCC" width="2" height="8.2"/>
		<rect x="101.4" y="47.1" fill="#CCCCCC" width="2" height="8.2"/>
		<rect x="88.4" y="51.1" fill="#999999" width="2" height="1.4"/>
		<rect x="101.4" y="51.1" fill="#999999" width="2" height="1.4"/>
	</g>
	<g>
		<rect x="86.6" y="30.2" width="18.6" height="17.3"/>
		<polygon fill="#666666" points="104.8,30.7 87,30.7 86.6,30.2 105.2,30.2 		"/>
		<polygon fill="#666666" points="105.2,47.4 86.6,47.4 87,47.1 104.8,47.1 		"/>
		<rect x="87" y="30.7" fill="#231F20" width="17.9" height="16.4"/>
	</g>
	<g>
		<g>
			<path fill="#333333" d="M92.7,34.9v-0.3h1.9V34h0.2v1.5h-0.2v-0.6H92.7L92.7,34.9z"/>
			<path fill="#333333" d="M93.8,37.5c-0.2,0-0.3,0-0.5-0.1c-0.1,0-0.3-0.1-0.3-0.2c-0.1-0.1-0.2-0.2-0.2-0.3
				c-0.1-0.1-0.1-0.3-0.1-0.4c0-0.2,0-0.3,0.1-0.4c0.1-0.1,0.1-0.2,0.2-0.3s0.2-0.1,0.3-0.2c0.1,0,0.3-0.1,0.5-0.1s0.3,0,0.5,0.1
				c0.1,0,0.3,0.1,0.3,0.2s0.2,0.2,0.2,0.3c0.1,0.1,0.1,0.3,0.1,0.4c0,0.2,0,0.3-0.1,0.4c-0.1,0.1-0.1,0.2-0.2,0.3s-0.2,0.1-0.3,0.2
				C94.1,37.5,94,37.5,93.8,37.5z M93.8,36c-0.1,0-0.3,0-0.4,0s-0.2,0.1-0.3,0.1c-0.1,0.1-0.1,0.1-0.2,0.2c0,0.1-0.1,0.2-0.1,0.3
				s0,0.2,0.1,0.3s0.1,0.1,0.2,0.2c0.1,0.1,0.2,0.1,0.3,0.1c0.1,0,0.2,0,0.4,0c0.1,0,0.3,0,0.4,0s0.2-0.1,0.3-0.1
				c0.1-0.1,0.1-0.1,0.2-0.2s0.1-0.2,0.1-0.3s0-0.2-0.1-0.3c0-0.1-0.1-0.1-0.2-0.2C94.4,36,94.3,36,94.2,36S93.9,36,93.8,36z"/>
			<path fill="#333333" d="M93.4,37.8h0.2v0.7h-0.2V37.8z"/>
			<path fill="#333333" d="M92.7,40.2v-1.3H93l0.6,0.5c0.1,0.1,0.2,0.1,0.2,0.2c0.1,0.1,0.1,0.1,0.2,0.1s0.1,0.1,0.2,0.1
				s0.1,0,0.2,0s0.1,0,0.2,0c0,0,0.1,0,0.1-0.1l0.1-0.1v-0.1c0-0.1,0-0.2-0.1-0.3c0-0.1-0.1-0.1-0.1-0.2l0.2-0.2l0.1,0.1L95,39
				c0,0.1,0,0.1,0.1,0.2s0,0.1,0,0.2c0,0.1,0,0.2,0,0.3S95,39.8,95,39.9C94.7,40,94.6,40,94.6,40c-0.1,0-0.1,0-0.2,0s-0.2,0-0.2,0
				c-0.1,0-0.1-0.1-0.2-0.1s-0.1-0.1-0.2-0.2c-0.1-0.1-0.1-0.1-0.2-0.2L93,39.2l0,0v1H92.7L92.7,40.2L92.7,40.2z"/>
			<path fill="#333333" d="M94,41.1c0,0.1,0,0.2,0,0.3s-0.1,0.2-0.1,0.2c-0.1,0.1-0.1,0.1-0.2,0.1s-0.2,0.1-0.3,0.1
				c-0.1,0-0.2,0-0.3-0.1c-0.1,0-0.2-0.1-0.2-0.1c-0.1-0.1-0.1-0.1-0.1-0.2c0-0.1-0.1-0.2-0.1-0.3V41v-0.1v-0.1c0,0,0-0.1,0.1-0.1
				h0.3c0,0,0,0.1-0.1,0.1v0.1V41v0.1c0,0.1,0,0.1,0,0.2c0,0.1,0,0.1,0.1,0.2l0.1,0.1c0.1,0,0.1,0,0.2,0s0.2,0,0.3-0.1
				c0.1-0.1,0.1-0.2,0.1-0.4V41v-0.1v-0.1v-0.1l0.1-0.1l1,0.1v1h-0.2v-0.8L94,40.8v0.1C94,41,94,41.1,94,41.1z"/>
			<path fill="#333333" d="M92.7,43.5v-1.3H93l0.6,0.5c0.1,0.1,0.2,0.1,0.2,0.2C93.9,43,93.9,43,94,43s0.1,0.1,0.2,0.1s0.1,0,0.2,0
				s0.1,0,0.2,0c0,0,0.1,0,0.1-0.1l0.1-0.1v-0.1c0-0.1,0-0.2-0.1-0.3c0-0.1-0.1-0.1-0.1-0.2l0.2-0.2l0.1,0.1l0.1,0.1
				c0,0.1,0,0.1,0.1,0.2c0,0.1,0,0.1,0,0.2c0,0.1,0,0.2,0,0.3S95,43.1,95,43.2c-0.1,0.1-0.1,0.1-0.2,0.1s-0.1,0-0.2,0s-0.2,0-0.2,0
				c-0.1,0-0.1-0.1-0.2-0.1S94.1,43.1,94,43s-0.1-0.1-0.2-0.2L93,42.5l0,0v1H92.7L92.7,43.5z"/>
		</g>
	</g>
	<g>
		<g>
			<path fill="#333333" d="M98.2,35.7c-0.2,0-0.3,0-0.5-0.1c-0.1,0-0.3-0.1-0.3-0.2c-0.1-0.1-0.2-0.2-0.2-0.3s-0.1-0.3-0.1-0.4v-0.5
				h2.1v0.6c0,0.1,0,0.3-0.1,0.4S99,35.3,99,35.4c-0.1,0.1-0.2,0.2-0.3,0.2C98.5,35.7,98.3,35.7,98.2,35.7z M98.2,35.4
				c0.1,0,0.3,0,0.4,0s0.2-0.1,0.3-0.1s0.1-0.1,0.2-0.2c0-0.1,0-0.2,0-0.3v-0.3h-1.7v0.2c0,0.3,0.1,0.5,0.2,0.6
				C97.7,35.3,97.9,35.4,98.2,35.4z"/>
			<path fill="#333333" d="M98.6,37.4c-0.1,0-0.2,0-0.3,0s-0.2-0.1-0.2-0.1C98,37.2,98,37.1,98,37s-0.1-0.2-0.1-0.4v-0.2h-0.8v-0.3
				h2.1v0.5c0,0.1,0,0.2,0,0.3s-0.1,0.2-0.1,0.2c-0.1,0.1-0.1,0.1-0.2,0.1C98.8,37.4,98.7,37.4,98.6,37.4z M98.1,36.4v0.2
				c0,0.1,0,0.2,0,0.2c0,0.1,0,0.1,0.1,0.2l0.1,0.1c0.1,0,0.1,0,0.2,0s0.2,0,0.3-0.1c0.1-0.1,0.1-0.2,0.1-0.4v-0.2H98.1z"/>
			<path fill="#333333" d="M97.1,39.1l0.7-0.2v-0.8l-0.7-0.2v-0.3l2.2,0.8v0.2l-2.2,0.8V39.1z M98,38.8l0.6-0.2c0,0,0,0,0.1,0h0.1
				h0.1H99h-0.1h-0.1h-0.1c0,0,0,0-0.1,0L98,38.2V38.8L98,38.8z"/>
			<path fill="#333333" d="M97.1,41.2v-0.3l1-0.7L97.9,40H97v-0.3h2.1V40H98l0.2,0.2l0.8,0.7v0.3l-0.9-0.8L97.1,41.2z"/>
			<path fill="#333333" d="M97.8,41.3H98V42h-0.2V41.3z"/>
			<path fill="#333333" d="M98.7,43.5c-0.1,0-0.1,0-0.2,0s-0.1-0.1-0.2-0.1l-0.1-0.1c0-0.1,0-0.1-0.1-0.2l0,0c0,0.2-0.1,0.3-0.2,0.4
				c-0.1,0.1-0.2,0.1-0.3,0.1c-0.1,0-0.2,0-0.3,0c-0.1,0-0.1-0.1-0.2-0.1C97,43.4,97,43.4,97,43.3c0-0.1,0-0.2,0-0.4
				c0-0.1,0-0.2,0-0.3s0-0.2,0.1-0.3h0.3c0,0.1-0.1,0.2-0.1,0.3s0,0.2,0,0.3s0,0.2,0,0.2c0,0.1,0,0.1,0.1,0.2s0.1,0.1,0.1,0.1
				c0.1,0,0.1,0,0.2,0s0.1,0,0.2,0s0.1-0.1,0.1-0.1s0.1-0.1,0.1-0.2c0-0.1,0-0.1,0-0.2v-0.2h0.2v0.2c0,0.1,0,0.1,0,0.2
				c0,0.1,0.1,0.1,0.1,0.2l0.1,0.1c0.1,0,0.1,0,0.2,0s0.1,0,0.1,0s0.1,0,0.1-0.1c0,0,0-0.1,0.1-0.1s0-0.1,0-0.1c0-0.1,0-0.2-0.1-0.3
				c0-0.1-0.1-0.2-0.1-0.2l0.2-0.1l0.1,0.1l0.1,0.1c0,0.1,0,0.1,0,0.2c0,0.1,0,0.1,0,0.2c0,0.1,0,0.2,0,0.3s-0.1,0.1-0.1,0.2
				c0,0.1-0.1,0.1-0.2,0.1C98.9,43.5,98.8,43.5,98.7,43.5z"/>
		</g>
	</g>
</g>
<g id="sop-8" transform="matrix(26.8841, 0, 0, 26.8841, -4.56929, 44.088)">
	<rect id="rect4015_1_" x="0.4" y="-0.1" fill="#303030" width="0.5" height="0.4"/>
</g>
<g>
	<rect x="37.5" y="56.6" fill="#666666" width="1" height="0.7"/>
	<rect x="35.6" y="56.6" fill="#666666" width="1" height="0.7"/>
	<rect x="33.8" y="56.6" fill="#666666" width="1" height="0.7"/>
	<rect x="31.9" y="56.6" fill="#666666" width="1" height="0.7"/>
	<rect x="30.1" y="56.6" fill="#666666" width="1" height="0.7"/>
	<polygon fill="#B3B3B3" points="24.8,41 43.7,41 43.7,56.9 24.8,56.9 	"/>
	<rect x="22.8" y="47.8" fill="#B7B7B7" width="1.8" height="2.8"/>
	<rect x="43.9" y="47.8" fill="#B7B7B7" width="1.8" height="2.8"/>
	<rect x="43.9" y="41" fill="#B3B3B3" width="1" height="1"/>
	<rect x="23.6" y="41" fill="#B3B3B3" width="1" height="1"/>
	<path fill="#CCCCCC" d="M43.9,56.3l-0.2,0.6h-2.5c0,0,2.3-0.1,2.4-0.3c0.1-0.2-0.1-0.3-0.1-0.3H43.9L43.9,56.3z"/>
	<path fill="#CCCCCC" d="M24.6,56.3l0.2,0.6h2.5c0,0-2.3-0.1-2.4-0.3s0.1-0.3,0.1-0.3H24.6L24.6,56.3z"/>
	<path fill="#E6E6E6" d="M28,56.3v-0.9h1.6v1.5h0.5v-0.6h8.4v0.6H39v-1.5h1.6v1h3.3V41H24.6v15.3H28z M39,43.9v-0.7h1.6V44
		c0.4,0.3,0.7,0.7,0.7,1.2c0,0.6-0.2,1-0.7,1.3l0,0v4.2H39v-4.2c-0.5-0.3-0.8-0.7-0.8-1.3C38.2,44.7,38.5,44.2,39,43.9z M28.1,43.9
		v-0.7h1.6V44c0.4,0.3,0.7,0.7,0.7,1.2c0,0.6-0.2,1-0.7,1.3l0,0v4.2h-1.6v-4.2c-0.5-0.3-0.8-0.7-0.8-1.3
		C27.3,44.7,27.6,44.2,28.1,43.9z"/>
	<polygon fill="#F2F2F2" points="43.5,41 43.9,41 43.9,56.3 42.4,56.3 	"/>
	<polygon fill="#999999" points="24.6,41 25.2,51.3 25.8,56.3 24.6,56.3 	"/>
	<rect x="25.6" y="41" fill="#CCCCCC" width="17.4" height="0.7"/>
</g>
<g id="CAP_0603" transform="matrix(26.5941, 0, 0, 21.6802, 26.9369, 78.0798)">
	<rect id="rect13688_4_" x="0.072" y="-2.958" fill="#AF7E28" width="0.131" height="0.104"/>
	<path id="path13690_4_" fill="#BBBBBB" d="M0.088-2.958H0.063c-0.006,0-0.011,0.006-0.011,0.014v0.076
		c0,0.008,0.005,0.014,0.011,0.014h0.025C0.09-2.871,0.091-2.888,0.091-2.906C0.092-2.924,0.091-2.942,0.088-2.958z"/>
	<path id="path13692_4_" fill="#BBBBBB" d="M0.223-2.868v-0.076c0-0.008-0.005-0.014-0.011-0.014H0.187
		C0.185-2.942,0.183-2.924,0.183-2.906c0,0.019,0.001,0.035,0.003,0.052h0.025C0.217-2.854,0.223-2.86,0.223-2.868z"/>
</g>
<g id="CAP_0805_1_" transform="matrix(26.5941, 0, 0, 21.6802, 26.9369, 78.0798)">
	<rect id="rect13688_8_" x="0.075" y="-3.19" fill="#AF7E28" width="0.164" height="0.162"/>
	<path id="path13690_8_" fill="#BBBBBB" d="M0.099-3.19H0.065c-0.008,0-0.015,0.01-0.015,0.022v0.119
		c0,0.012,0.007,0.022,0.015,0.022h0.034C0.102-3.053,0.103-3.08,0.103-3.108C0.104-3.137,0.103-3.164,0.099-3.19z"/>
	<path id="path13692_8_" fill="#BBBBBB" d="M0.264-3.049v-0.119c0-0.012-0.007-0.022-0.015-0.022H0.215
		C0.212-3.164,0.21-3.137,0.21-3.108s0.002,0.055,0.004,0.081h0.034C0.256-3.028,0.264-3.037,0.264-3.049z"/>
	<path fill="#BBBBBB" d="M0.099-3.04c0,0.007-0.005,0.013-0.011,0.013H0.06c-0.006,0-0.011-0.006-0.011-0.013v-0.137
		c0-0.007,0.005-0.013,0.011-0.013h0.028c0.006,0,0.011,0.006,0.011,0.013V-3.04z"/>
	<path fill="#BBBBBB" d="M0.264-3.04c0,0.007-0.005,0.013-0.011,0.013H0.225c-0.006,0-0.011-0.006-0.011-0.013v-0.137
		c0-0.007,0.005-0.013,0.011-0.013h0.028c0.006,0,0.011,0.006,0.011,0.013V-3.04z"/>
</g>
<g id="CAP_1206_1_" transform="matrix(26.5941, 0, 0, 21.6802, 26.9369, 78.0798)">
	<rect id="rect13688_7_" x="0.094" y="-3.488" fill="#AF7E28" width="0.263" height="0.208"/>
	<path id="path13690_7_" fill="#BBBBBB" d="M0.109-3.489H0.071c-0.009,0-0.017,0.013-0.017,0.028v0.153
		c0,0.015,0.008,0.028,0.017,0.028h0.038c0.003-0.033,0.005-0.068,0.005-0.104C0.114-3.421,0.113-3.456,0.109-3.489z"/>
	<path id="path13692_7_" fill="#BBBBBB" d="M0.396-3.308v-0.153c0-0.015-0.008-0.028-0.017-0.028H0.341
		C0.338-3.456,0.336-3.421,0.336-3.384S0.338-3.313,0.341-3.28h0.038C0.388-3.281,0.396-3.292,0.396-3.308z"/>
	<path fill="#BBBBBB" d="M0.109-3.293c0,0.007-0.005,0.013-0.011,0.013H0.064c-0.006,0-0.011-0.006-0.011-0.013v-0.183
		c0-0.007,0.005-0.013,0.011-0.013h0.034c0.006,0,0.011,0.006,0.011,0.013V-3.293z"/>
	<path fill="#BBBBBB" d="M0.396-3.293c0,0.007-0.005,0.013-0.011,0.013H0.351c-0.006,0-0.011-0.006-0.011-0.013v-0.183
		c0-0.007,0.005-0.013,0.011-0.013h0.034c0.006,0,0.011,0.006,0.011,0.013V-3.293z"/>
</g>
</svg>
