<?xml version="1.0" encoding="utf-8"?>
<!-- Generator: Adobe Illustrator 24.1.2, SVG Export Plug-In . SVG Version: 6.00 Build 0)  -->
<svg version="1.1" id="Layer_1" xmlns:svg="http://www.w3.org/2000/svg"
	 xmlns="http://www.w3.org/2000/svg" xmlns:xlink="http://www.w3.org/1999/xlink" x="0px" y="0px" width="158.7px" height="113.4px"
	 viewBox="0 0 158.7 113.4" enable-background="new 0 0 158.7 113.4" xml:space="preserve">
<g id="DO-214">
	<line fill="none" stroke="#CCCCCC" stroke-width="4" stroke-miterlimit="10" x1="83.8" y1="26.5" x2="83.8" y2="40.8"/>
	<rect x="80.3" y="27.6" fill="#303030" width="7.1" height="12.2"/>
	
		<line id="_x34_" fill="none" stroke="#999999" stroke-width="0.2" stroke-miterlimit="10" x1="80.3" y1="30.3" x2="87.4" y2="30.3"/>
	
		<line id="_x33_" fill="none" stroke="#999999" stroke-width="0.2" stroke-miterlimit="10" x1="80.3" y1="29.4" x2="87.4" y2="29.4"/>
	
		<line id="_x32_" fill="none" stroke="#999999" stroke-width="0.2" stroke-miterlimit="10" x1="80.3" y1="28.6" x2="87.4" y2="28.6"/>
</g>
<g id="SOT-23-3">
	<rect x="58.6" y="8.8" fill="#303030" width="8.2" height="3.7"/>
	<line fill="none" stroke="#CCCCCC" stroke-width="1.2" stroke-miterlimit="10" x1="60" y1="12.5" x2="60" y2="14.1"/>
	<line fill="none" stroke="#CCCCCC" stroke-width="1.2" stroke-miterlimit="10" x1="65.4" y1="12.5" x2="65.4" y2="14.1"/>
	<line fill="none" stroke="#CCCCCC" stroke-width="1.2" stroke-miterlimit="10" x1="62.7" y1="7.2" x2="62.7" y2="8.8"/>
</g>
<g id="SOT-23-6">
	<line fill="none" stroke="#CCCCCC" stroke-width="1.2" stroke-miterlimit="10" x1="73.8" y1="7.2" x2="73.8" y2="14"/>
	<line fill="none" stroke="#CCCCCC" stroke-width="1.2" stroke-miterlimit="10" x1="76.5" y1="7.2" x2="76.5" y2="14"/>
	<line fill="none" stroke="#CCCCCC" stroke-width="1.2" stroke-miterlimit="10" x1="79.2" y1="7.2" x2="79.2" y2="14"/>
	<rect x="72.4" y="8.8" fill="#303030" width="8.2" height="3.7"/>
	<circle cx="73.7" cy="11.6" r="0.3"/>
</g>
<g id="SOT-23-5">
	<line fill="none" stroke="#CCCCCC" stroke-width="1.2" stroke-miterlimit="10" x1="90" y1="12.5" x2="90" y2="14.1"/>
	<line fill="none" stroke="#CCCCCC" stroke-width="1.2" stroke-miterlimit="10" x1="92.7" y1="7.2" x2="92.7" y2="14.1"/>
	<line fill="none" stroke="#CCCCCC" stroke-width="1.2" stroke-miterlimit="10" x1="87.3" y1="7.2" x2="87.3" y2="14.1"/>
	<rect x="85.9" y="8.8" fill="#303030" width="8.2" height="3.7"/>
	<circle cx="87.3" cy="11.7" r="0.3"/>
</g>
<g id="SOT-223">
	<rect x="59.7" y="37.6" fill="#CCCCCC" width="2" height="5"/>
	<rect x="66.3" y="37.6" fill="#CCCCCC" width="2" height="5"/>
	<rect x="72.8" y="37.6" fill="#CCCCCC" width="2" height="5"/>
	<rect x="63" y="22.7" fill="#CCCCCC" width="8.5" height="5"/>
	<rect x="58" y="27.7" fill="#303030" width="18.4" height="9.9"/>
</g>
<g id="LED_0603_1_">
	<path fill="#D8CC9A" d="M41,18h0.5c0,0,0-0.3,0-0.4v-1.5h-0.6L41,18L41,18"/>
	
		<line fill="none" stroke="#E6E6E6" stroke-width="0.1" stroke-linecap="round" stroke-miterlimit="10" x1="44.3" y1="18" x2="41.6" y2="18"/>
	<rect x="40.7" y="15.7" fill="#DCDCDC" width="4.5" height="1.3"/>
	<rect x="41.4" y="15.7" fill="#F2F2F2" width="3.1" height="2.3"/>
	<rect x="42.5" y="16.5" fill="#FFFFFF" width="0.6" height="0.9"/>
	<polygon fill="#D1C690" points="42,16.2 41.3,16.1 41.3,16.7 42,16.6 	"/>
	<path fill="#D1C690" d="M41.8,16.4L41.8,16.4c0.2,0,0.3,0.1,0.4,0.2c0.1,0.1,0.3,0.1,0.4,0.1h0.1v0.1c-0.2,0.1-0.3,0-0.5-0.1
		C42.1,16.6,42,16.6,41.8,16.4C41.8,16.5,41.8,16.5,41.8,16.4L41.8,16.4z"/>
	<polygon fill="#D1C690" points="43.8,17.6 44.5,17.6 44.5,17 43.8,17.1 	"/>
	<path fill="#D1C690" d="M42.9,16.8C43,16.8,43,16.8,42.9,16.8c0.1,0.3,0.7,0.5,1,0.5c0,0,0.1,0,0.1,0.1c0,0,0,0.1-0.1,0.1l0,0
		C43.9,17.4,43,17.4,42.9,16.8L42.9,16.8L42.9,16.8z"/>
	<path fill="#D1C690" d="M42.6,16.8c0,0,0.3,0,0.3-0.3c-0.1,0-0.3,0-0.3,0V16.8z"/>
	<path fill="#D1C690" d="M42.9,17.1c0,0-0.1-0.3-0.1-0.4c0.1,0,0.1-0.1,0.1,0C43.1,16.9,42.9,17.1,42.9,17.1z"/>
	<path opacity="0.5" fill="#F2F2F2" enable-background="new    " d="M44.5,18v-2.3h-3.1V18H44.5z"/>
	<path fill="#D1C690" d="M45.1,15.7h-0.6v0.5c0,0.1-0.1,0.2-0.1,0.3V18h0.7L45.1,15.7L45.1,15.7"/>
	<path fill="#D1C690" d="M40.6,15.7L40.6,15.7V18h0.7v-1.9c-0.1-0.1-0.1-0.1-0.1-0.3v-0.1H40.6"/>
	<rect x="40.7" y="17.9" display="none" opacity="0.5" fill="#FFFFFF" enable-background="new    " width="0.7" height="0.1"/>
	<path fill="#22B573" fill-opacity="0.7" d="M41.8,15.7c0,0,0.1,0.5-0.1,0.4c-0.1,0-0.3,0.1-0.5,0v-0.4L41.8,15.7L41.8,15.7z"/>
</g>
<g id="LED_0603">
	<polygon fill="#FFFFCC" points="37.1,17.9 32.5,17.9 32.5,17.4 33.2,16.8 32.5,16.3 32.5,15.7 32.5,15.7 32.5,15.7 37.1,15.7 
		37.1,15.7 37.1,15.7 37.1,16.5 36.4,16.8 37.1,17.2 	"/>
	<circle fill="#C4B969" cx="35.4" cy="16.9" r="0.3"/>
	
		<polyline fill="none" stroke="#C4B969" stroke-width="0.25" stroke-linecap="round" stroke-linejoin="round" stroke-miterlimit="10" points="
		34,16.7 34,17.2 33,17.2 	"/>
	
		<line fill="none" stroke="#C4B969" stroke-width="0.25" stroke-linejoin="round" stroke-miterlimit="10" x1="35.4" y1="16.9" x2="35.4" y2="16.2"/>
	
		<line fill="none" stroke="#C4B969" stroke-width="0.25" stroke-linecap="round" stroke-linejoin="round" stroke-miterlimit="10" x1="35.4" y1="16.2" x2="36.5" y2="16.2"/>
	
		<rect x="33.6" y="16.3" fill="#C4B969" stroke="#C4B969" stroke-width="0.25" stroke-linecap="round" stroke-linejoin="round" stroke-miterlimit="10" width="0.8" height="0.8"/>
	<rect x="33.8" y="16.4" width="0.5" height="0.5"/>
	<rect x="33.2" y="15.7" opacity="0.6" fill="#FFFFFF" enable-background="new    " width="3.2" height="2.2"/>
	<path fill="#C4B969" d="M36.4,15.7v2.1h0.7v-0.7c-0.3,0-0.5-0.2-0.5-0.4c0-0.2,0.2-0.4,0.5-0.4v-0.7L36.4,15.7L36.4,15.7z"/>
	<path fill="#C4B969" d="M32.5,16.1v0.4c0.3,0,0.5,0.2,0.5,0.4c0,0.2-0.2,0.4-0.5,0.4v0.4c0.3,0,0.5-0.1,0.7-0.3v-0.9
		C33,16.2,32.7,16.1,32.5,16.1z"/>
	<path fill="#00CC33" d="M32.5,17.8h0.7v-0.5c-0.2,0.2-0.4,0.3-0.7,0.3V17.8z"/>
	<path fill="#00CC33" d="M33.2,15.8h-0.7V16c0.3,0,0.5,0.1,0.7,0.3V15.8L33.2,15.8z"/>
</g>
<g id="LED_0805">
	<polygon fill="#FFFFCC" points="37.9,14.1 32.3,14.1 32.3,13.2 33.1,12.3 32.3,11.5 32.3,10.6 32.3,10.6 32.3,10.6 37.9,10.6 
		37.9,10.6 37.9,10.6 37.9,11.8 37.1,12.3 37.9,12.9 	"/>
	<circle fill="#C4B969" cx="35.9" cy="12.5" r="0.4"/>
	
		<polyline fill="none" stroke="#C4B969" stroke-width="0.5" stroke-linecap="round" stroke-linejoin="round" stroke-miterlimit="10" points="
		34.2,12.2 34.2,12.9 32.9,12.9 	"/>
	
		<line fill="none" stroke="#C4B969" stroke-width="0.5" stroke-linejoin="round" stroke-miterlimit="10" x1="35.9" y1="12.5" x2="35.9" y2="11.3"/>
	
		<line fill="none" stroke="#C4B969" stroke-width="0.5" stroke-linecap="round" stroke-linejoin="round" stroke-miterlimit="10" x1="35.9" y1="11.3" x2="37.2" y2="11.3"/>
	
		<rect x="33.7" y="11.7" fill="#C4B969" stroke="#C4B969" stroke-width="0.5" stroke-linecap="round" stroke-linejoin="round" stroke-miterlimit="10" width="1" height="1"/>
	<rect x="33.9" y="11.9" width="0.6" height="0.6"/>
	<rect x="33.1" y="10.6" opacity="0.6" fill="#FFFFFF" enable-background="new    " width="4" height="3.5"/>
	<path fill="#C4B969" d="M37.1,10.6V14h0.8v-1.1c-0.3,0-0.6-0.3-0.6-0.6s0.3-0.6,0.6-0.6v-1.1C37.9,10.6,37.1,10.6,37.1,10.6z"/>
	<path fill="#C4B969" d="M32.3,11.2v0.6c0.3,0,0.6,0.3,0.6,0.6S32.6,13,32.3,13v0.6c0.3,0,0.7-0.2,0.9-0.4v-1.5
		C32.9,11.3,32.6,11.2,32.3,11.2z"/>
	<path fill="#00CC33" d="M32.3,13.9h0.8v-0.7c-0.2,0.3-0.5,0.4-0.8,0.4V13.9z"/>
	<path fill="#00CC33" d="M33.1,10.8h-0.8V11c0.3,0,0.6,0.2,0.8,0.4V10.8L33.1,10.8z"/>
</g>
<g id="LED_1206">
	<polygon fill="#FFFFCC" points="41.2,9 32.2,9 32.2,8.7 33,6.7 32.2,4.7 32.2,4.5 32.2,4.5 32.2,4.4 41.2,4.4 41.2,4.4 41.2,4.4 
		41.2,4.7 40.4,6.7 41.2,8.7 	"/>
	<circle fill="#C4B969" cx="37.4" cy="6.9" r="0.4"/>
	<polyline fill="none" stroke="#C4B969" stroke-width="0.5" stroke-linejoin="round" stroke-miterlimit="10" points="35.6,6.6 
		35.6,7.3 33.5,7.3 	"/>
	
		<line fill="none" stroke="#C4B969" stroke-width="0.5" stroke-linejoin="round" stroke-miterlimit="10" x1="37.4" y1="6.9" x2="37.4" y2="5.7"/>
	
		<line fill="none" stroke="#C4B969" stroke-width="0.5" stroke-linecap="round" stroke-linejoin="round" stroke-miterlimit="10" x1="37.4" y1="5.7" x2="39.9" y2="5.7"/>
	
		<rect x="35.1" y="6.1" fill="#C4B969" stroke="#C4B969" stroke-width="0.5" stroke-linecap="round" stroke-linejoin="round" stroke-miterlimit="10" width="1" height="1"/>
	<rect x="35.4" y="6.3" width="0.6" height="0.6"/>
	<rect x="33.9" y="4.4" opacity="0.6" fill="#FFFFFF" enable-background="new    " width="5.7" height="4.5"/>
	<path fill="#C4B969" d="M32.2,5v1.1c0.3,0,0.6,0.3,0.6,0.6c0,0.3-0.3,0.6-0.6,0.6v1.1c0.9,0,1.7-0.8,1.7-1.7S33.1,5,32.2,5z"/>
	<path fill="#C4B969" d="M40.1,4.7v0.7c-0.3,0.3-0.6,0.8-0.6,1.3s0.2,0.9,0.6,1.3v0.8h1.1V8.4V7.3c-0.3,0-0.6-0.3-0.6-0.6
		c0-0.3,0.3-0.6,0.6-0.6V5V4.7H40.1z"/>
	<path fill="#00CC33" d="M32.3,8.8h1.1V8.1c-0.3,0.3-0.7,0.4-1.1,0.4V8.8z"/>
	<path fill="#00CC33" d="M33.4,4.7h-1.1V5c0.4,0,0.8,0.2,1.1,0.4V4.7L33.4,4.7z"/>
</g>
<g id="Crystal">
	<line fill="none" stroke="#CCCCCC" stroke-width="2" stroke-miterlimit="10" x1="2.1" y1="56.5" x2="37.6" y2="56.5"/>
	<rect x="4.8" y="50.1" fill="#333333" width="30.6" height="12.9"/>
	<path fill="#999999" d="M11.2,62.9c-3.5,0-6.4-2.9-6.4-6.4l0,0c0-3.5,2.9-6.4,6.4-6.4H29c3.5,0,6.4,2.9,6.4,6.4l0,0
		c0,3.5-2.9,6.4-6.4,6.4H11.2z"/>
	<path id="path31" fill="#BFBFBF" d="M29.7,51.6H10.4c-2.3,0-4.3,2.2-4.3,5c0,2.7,1.9,5,4.3,5h19.3c2.3,0,4.2-2.2,4.2-5
		C34,53.8,32,51.6,29.7,51.6L29.7,51.6z"/>
</g>
<g id="Crystal_tht">
	<path fill="#999999" d="M11.2,80.1c-3.5,0-6.4-2.9-6.4-6.4l0,0c0-3.5,2.9-6.4,6.4-6.4H29c3.5,0,6.4,2.9,6.4,6.4l0,0
		c0,3.5-2.9,6.4-6.4,6.4H11.2z"/>
	<path id="path31_1_" fill="#BFBFBF" d="M29.7,68.8H10.4c-2.3,0-4.3,2.2-4.3,5c0,2.7,1.9,5,4.3,5h19.3c2.3,0,4.2-2.2,4.2-5
		C34,71,32,68.8,29.7,68.8L29.7,68.8z"/>
</g>
<g id="L_CD42_CD43">
	<rect x="148.5" y="96.6" fill="#CCCCCC" width="5" height="12.8"/>
	<rect x="139.3" y="96.6" fill="#CCCCCC" width="5" height="12.8"/>
	<path fill="#303030" d="M152.7,103.7H152c-0.4,0-0.7-0.3-0.7-0.7c0-0.4,0.3-0.7,0.7-0.7h0.7c-0.2-2.2-1.6-4-3.4-5h-5.8
		c-1.9,1-3.2,2.8-3.4,5h0.7c0.4,0,0.7,0.3,0.7,0.7c0,0.4-0.3,0.7-0.7,0.7H140c0.2,2.2,1.6,4,3.4,5h5.8
		C151.1,107.7,152.5,105.9,152.7,103.7z"/>
</g>
<g id="L_CD5_CD5">
	<rect x="149.5" y="79.9" fill="#8C8C8C" width="5" height="14.2"/>
	<rect x="138.3" y="79.9" fill="#8C8C8C" width="5" height="14.2"/>
	<path fill="#303030" d="M154.1,87.8h-0.9c-0.5,0-0.9-0.4-0.9-0.9s0.4-0.9,0.9-0.9h0.9c-0.2-2.7-2-5-4.2-6.2h-7.1
		c-2.3,1.2-3.9,3.5-4.2,6.2h0.9c0.5,0,0.9,0.4,0.9,0.9s-0.4,0.9-0.9,0.9h-1c0.2,2.7,2,5,4.2,6.2h7.1
		C152.1,92.8,153.9,90.5,154.1,87.8z"/>
</g>
<g id="L_CD73_CD75">
	<rect x="131.5" y="56" fill="#CCCCCC" width="8.5" height="21.3"/>
	<rect x="145.7" y="56" fill="#CCCCCC" width="8.5" height="21.3"/>
	<path fill="#303030" d="M153.8,68h-0.6c-0.8,0-1.4-0.6-1.4-1.4s0.6-1.4,1.4-1.4h0.6c-0.5-3.7-2.8-6.9-6.1-8.5h-9.8
		c-3.3,1.6-5.6,4.8-6.1,8.5h0.6c0.8,0,1.4,0.6,1.4,1.4s-0.6,1.4-1.4,1.4h-0.6c0.5,3.7,2.8,6.9,6.1,8.5h9.8
		C151,74.9,153.3,71.8,153.8,68z"/>
</g>
<g id="L_sqr">
	<path fill="#3D3D3D" d="M132.1,102h-15.6c-0.8,0-1.4-0.6-1.4-1.4V85c0-0.8,0.6-1.4,1.4-1.4h15.6c0.8,0,1.4,0.6,1.4,1.4v15.6
		C133.5,101.4,132.9,102,132.1,102z"/>
	<path fill="#1F1F1F" d="M132.7,102.6h-15.6c-0.8,0-1.4-0.6-1.4-1.4V85.6c0-0.8,0.6-1.4,1.4-1.4h15.6c0.8,0,1.4,0.6,1.4,1.4v15.6
		C134.1,102,133.4,102.6,132.7,102.6z"/>
	<path fill="#303030" d="M132.4,102.3h-15.6c-0.8,0-1.4-0.6-1.4-1.4V85.3c0-0.8,0.6-1.4,1.4-1.4h15.6c0.8,0,1.4,0.6,1.4,1.4v15.6
		C133.8,101.7,133.2,102.3,132.4,102.3z"/>
</g>
<g id="cap_elect_au">
	<path fill="#333333" d="M18.6,108.4H9.5l-4.7-4.7v-13c0-0.4,0.3-0.7,0.7-0.7h16.9c0.4,0,0.7,0.3,0.7,0.7v13L18.6,108.4z"/>
	<circle fill="#CCCCCC" cx="14.1" cy="99.1" r="8.5"/>
	<path d="M7.2,94.1c1.5-2.1,4-3.5,6.9-3.5c2.8,0,5.3,1.4,6.9,3.5H7.2z"/>
</g>
<g id="MBF">
	<line fill="none" stroke="#CCCCCC" stroke-width="2" stroke-miterlimit="10" x1="26.1" y1="22.7" x2="26.1" y2="42.6"/>
	<line fill="none" stroke="#CCCCCC" stroke-width="2" stroke-miterlimit="10" x1="33.1" y1="22.7" x2="33.1" y2="42.6"/>
	<path id="path47" fill="#303030" d="M22.6,26.7v3.2v5.4v3.2h13.9V26.7H22.6z"/>
	<path fill="#1A171B" d="M30.6,26.7c0,0.1,0,0.2,0,0.3c-0.1,0.5-0.6,0.8-1.1,0.8s-1-0.4-1.1-0.8c0-0.1,0-0.2,0-0.3H30.6L30.6,26.7z"
		/>
	<g>
		<g>
			<g>
				<g>
					<path fill="#666666" d="M25.5,28.8v-0.3h1v0.3H25.5z"/>
				</g>
			</g>
			<g>
				<g>
					<path fill="#666666" d="M32.9,28.8h-0.8v-0.3h0.8v-0.8h0.3v0.8H34v0.3h-0.8v0.8h-0.3V28.8z"/>
				</g>
			</g>
			<g>
				<g>
					<path fill="#666666" d="M25.9,37.4c0,0-0.1,0-0.1-0.1h-0.1h-0.1h-0.1h-0.1c0,0-0.1,0-0.1,0.1c0,0-0.1,0-0.1,0.1l-0.1,0.1v-0.3
						c0.1-0.1,0.3-0.2,0.5-0.2h0.1h0.1h0.1c0,0,0.1,0,0.2,0.1c0,0,0.1,0,0.1,0.1h0.1h0.1h0.1h0.1c0,0,0.1,0,0.1-0.1
						c0,0,0.1,0,0.1-0.1l0.1-0.1v0.3c-0.1,0.1-0.3,0.2-0.5,0.2h-0.1h-0.1h-0.1C26,37.5,26,37.4,25.9,37.4z"/>
				</g>
			</g>
			<g>
				<g>
					<path fill="#666666" d="M33,37.5C33,37.5,32.9,37.5,33,37.5l-0.2-0.1h-0.1h-0.1h-0.1c0,0-0.1,0-0.1,0.1c0,0-0.1,0-0.1,0.1
						l-0.1,0.1v-0.3c0.1-0.1,0.3-0.2,0.5-0.2h0.1h0.1H33c0,0,0.1,0,0.2,0.1c0,0,0.1,0,0.1,0.1h0.1h0.1h0.1h0.1c0,0,0.1,0,0.1-0.1
						c0,0,0.1,0,0.1-0.1l0.1-0.1v0.3c-0.1,0.1-0.3,0.2-0.5,0.2h-0.1h-0.1h-0.1C33.1,37.5,33,37.5,33,37.5z"/>
				</g>
			</g>
		</g>
	</g>
</g>
<g id="ABS">
	<line fill="none" stroke="#CCCCCC" stroke-width="2" stroke-miterlimit="10" x1="41.3" y1="23.5" x2="41.3" y2="41.9"/>
	<line fill="none" stroke="#CCCCCC" stroke-width="2" stroke-miterlimit="10" x1="52.6" y1="23.5" x2="52.6" y2="41.9"/>
	<path id="path47_3_" fill="#303030" d="M39.9,26.4v3.4v5.7v3.4H54V26.4H39.9z"/>
	<path fill="#1A171B" d="M48,26.4c0,0.1,0,0.2,0,0.3c-0.1,0.5-0.6,0.8-1.1,0.8s-1-0.4-1.1-0.8c0-0.1,0-0.2,0-0.3H48L48,26.4z"/>
	<g>
		<g>
			<g>
				<g>
					<path fill="#666666" d="M42.9,28.8v-0.3h1v0.3H42.9z"/>
				</g>
			</g>
			<g>
				<g>
					<path fill="#666666" d="M50.3,28.8h-0.8v-0.3h0.8v-0.8h0.3v0.8h0.8v0.3h-0.8v0.8h-0.3V28.8z"/>
				</g>
			</g>
			<g>
				<g>
					<path fill="#666666" d="M43.3,37.4C43.3,37.4,43.2,37.4,43.3,37.4l-0.2-0.1H43h-0.1h-0.1c0,0-0.1,0-0.1,0.1c0,0-0.1,0-0.1,0.1
						l-0.1,0.1v-0.3c0.1-0.1,0.3-0.2,0.5-0.2h0.1h0.1h0.1c0,0,0.1,0,0.2,0.1c0,0,0.1,0,0.1,0.1h0.1h0.1h0.1H44c0,0,0.1,0,0.1-0.1
						c0,0,0.1,0,0.1-0.1l0.1-0.1v0.3c-0.1,0.1-0.3,0.2-0.5,0.2h-0.1h-0.1h-0.1C43.4,37.5,43.4,37.4,43.3,37.4z"/>
				</g>
			</g>
			<g>
				<g>
					<path fill="#666666" d="M50.4,37.5C50.4,37.5,50.3,37.5,50.4,37.5l-0.2-0.1h-0.1H50h-0.1c0,0-0.1,0-0.1,0.1c0,0-0.1,0-0.1,0.1
						l-0.1,0.1v-0.3c0.1-0.1,0.3-0.2,0.5-0.2h0.1h0.1h0.1c0,0,0.1,0,0.2,0.1c0,0,0.1,0,0.1,0.1h0.1h0.1H51h0.1c0,0,0.1,0,0.1-0.1
						c0,0,0.1,0,0.1-0.1l0.1-0.1v0.3c-0.1,0.1-0.3,0.2-0.5,0.2h-0.1h-0.1h-0.1C50.5,37.5,50.4,37.5,50.4,37.5z"/>
				</g>
			</g>
		</g>
	</g>
</g>
<g id="DPAK">
	<rect x="93.2" y="25.5" fill="#CCCCCC" width="14.4" height="3.1"/>
	<rect x="99.4" y="45.5" fill="#CCCCCC" width="2" height="2.8"/>
	<rect x="92.9" y="45.5" fill="#CCCCCC" width="2" height="8.2"/>
	<rect x="105.9" y="45.5" fill="#CCCCCC" width="2" height="8.2"/>
	<rect x="91.1" y="28.5" fill="#303030" width="18.6" height="17.3"/>
</g>
<g id="sop-8">
	<line fill="none" stroke="#CCCCCC" stroke-width="1.5" stroke-miterlimit="268.841" x1="7.4" y1="42.1" x2="7.4" y2="25.3"/>
	<line fill="none" stroke="#CCCCCC" stroke-width="1.5" stroke-miterlimit="268.841" x1="10.8" y1="42.1" x2="10.8" y2="25.3"/>
	<line fill="none" stroke="#CCCCCC" stroke-width="1.5" stroke-miterlimit="268.841" x1="14.4" y1="42.1" x2="14.4" y2="25.3"/>
	<line fill="none" stroke="#CCCCCC" stroke-width="1.5" stroke-miterlimit="268.841" x1="17.8" y1="42.1" x2="17.8" y2="25.3"/>
	<rect x="6.1" y="28.7" fill="#303030" width="13" height="9.9"/>
	<path fill="#1F1F1F" d="M8.2,35.8c0.4,0,0.7,0.3,0.7,0.7s-0.3,0.7-0.7,0.7c-0.4,0-0.7-0.3-0.7-0.7S7.8,35.8,8.2,35.8z"/>
</g>
<g id="Switch_1">
	<rect x="47.3" y="55.7" fill="#CCCCCC" width="22.7" height="1.7"/>
	<rect x="50.2" y="51.5" fill="#333333" width="16.9" height="10.1"/>
	<rect x="50.4" y="51.4" fill="#DBDBDB" width="16.4" height="10.2"/>
	
		<path fill="#DBDBDB" stroke="#999999" stroke-width="0.25" stroke-linecap="round" stroke-linejoin="round" stroke-miterlimit="10" d="
		M53.2,53.8c0-0.1,0.1-0.2,0.1-0.2h10.5c0.1,0,0.1,0.1,0.1,0.2v5.4c0,0.1-0.1,0.2-0.1,0.2H53.4c-0.1,0-0.1-0.1-0.1-0.2L53.2,53.8
		L53.2,53.8z"/>
	<path fill="#FFFEEB" d="M54.9,54.8C54.9,54.7,55,54.7,54.9,54.8l7.2-0.1c0.1,0,0.1,0.1,0.1,0.1v3.4c0,0.1-0.1,0.1-0.1,0.1H55
		c-0.1,0-0.1-0.1-0.1-0.1V54.8z"/>
</g>
<g id="micro_usb">
	<rect x="153.5" y="36.5" fill="#666666" width="0.7" height="1"/>
	<rect x="153.5" y="38.4" fill="#666666" width="0.7" height="1"/>
	<rect x="153.5" y="40.2" fill="#666666" width="0.6" height="1"/>
	<rect x="153.5" y="42.1" fill="#666666" width="0.7" height="1"/>
	<rect x="153.5" y="43.9" fill="#666666" width="0.7" height="1"/>
	<polygon fill="#B3B3B3" points="138,50.2 138,31.3 153.8,31.3 153.8,50.2 	"/>
	<rect x="144.8" y="50.4" fill="#B7B7B7" width="2.8" height="1.8"/>
	<rect x="144.8" y="29.3" fill="#B7B7B7" width="2.8" height="1.8"/>
	<rect x="138" y="30.1" fill="#B3B3B3" width="1" height="1"/>
	<rect x="138" y="50.4" fill="#B3B3B3" width="1" height="1"/>
	<path fill="#CCCCCC" d="M153.3,31.1l0.6,0.2v2.5c0,0-0.1-2.3-0.3-2.4s-0.3,0.1-0.3,0.1V31.1L153.3,31.1z"/>
	<path fill="#CCCCCC" d="M153.3,50.4l0.6-0.2v-2.5c0,0-0.1,2.3-0.3,2.4c-0.2,0.1-0.3-0.1-0.3-0.1V50.4L153.3,50.4z"/>
	<path fill="#E6E6E6" d="M153.3,47h-0.9v-1.6h1.5v-0.5h-0.6v-8.4h0.6V36h-1.5v-1.6h1v-3.3H138v19.3h15.3V47L153.3,47z M140.8,36
		h-0.7v-1.6h0.8c0.3-0.4,0.7-0.7,1.2-0.7c0.6,0,1,0.2,1.3,0.7l0,0h4.2V36h-4.2c-0.3,0.5-0.7,0.8-1.3,0.8
		C141.6,36.8,141.1,36.5,140.8,36z M140.8,46.9h-0.7v-1.6h0.8c0.3-0.4,0.7-0.7,1.2-0.7c0.6,0,1,0.2,1.3,0.7l0,0h4.2v1.6h-4.2
		c-0.3,0.5-0.7,0.8-1.3,0.8C141.6,47.7,141.1,47.4,140.8,46.9z"/>
	<polygon fill="#F2F2F2" points="138,31.5 138,31.1 153.3,31.1 153.3,32.6 	"/>
	<polygon fill="#999999" points="138,50.4 148.2,49.8 153.3,49.2 153.3,50.4 	"/>
	<rect x="138" y="32" fill="#CCCCCC" width="0.7" height="17.4"/>
</g>
<g id="SOD-323">
	<rect x="103.9" y="8.5" fill="#CCCCCC" width="1.4" height="7.5"/>
	<rect x="102.6" y="9.7" fill="#303030" width="4" height="5.1"/>
	<rect x="102.8" y="9.9" fill="#666666" width="3.5" height="0.8"/>
</g>
<g id="SOD-123">
	<rect x="110.3" y="6.4" fill="#CCCCCC" width="1.4" height="10.8"/>
	<rect x="109.1" y="8.1" fill="#303030" width="4" height="7.4"/>
	<rect x="109.3" y="8.4" fill="#666666" width="3.5" height="0.8"/>
</g>
<g id="LL-34">
	<path fill="#CC0000" d="M118.6,11.9c0,0.3-0.3,0.6-0.6,0.6h-1.7c-0.3,0-0.6-0.3-0.6-0.6V9.4c0-0.3,0.3-0.6,0.6-0.6h1.7
		c0.3,0,0.6,0.3,0.6,0.6V11.9z"/>
	<rect x="115.8" y="12.4" fill="#CCCCCC" width="2.8" height="0.3"/>
	<path fill="#CC0000" d="M118.6,15.8c0,0.3-0.3,0.6-0.6,0.6h-1.7c-0.3,0-0.6-0.3-0.6-0.6v-2.5c0-0.3,0.3-0.6,0.6-0.6h1.7
		c0.3,0,0.6,0.3,0.6,0.6V15.8z"/>
	<path fill="#CCCCCC" fill-opacity="0.3" d="M119.3,15.6c0,0.5-0.4,0.9-0.9,0.9h-2.6c-0.5,0-0.8-0.4-0.8-0.9v-6
		c0-0.5,0.4-0.9,0.8-0.9h2.6c0.5,0,0.9,0.4,0.9,0.9V15.6z"/>
	<rect x="115.1" y="7.6" fill="#CCCCCC" width="4.3" height="1.1"/>
	<rect x="115.1" y="16.4" fill="#CCCCCC" width="4.3" height="1.1"/>
	<rect x="115.1" y="9.6" fill="#336699" width="4.3" height="1.1"/>
</g>
<g id="socket_type_c">
	<rect x="129" y="3.3" fill="#DCDCDC" width="25.5" height="20.8"/>
	<path fill="#DCDCDC" d="M151,23.6h0.6v1.3H151V23.6z M150.1,24.9h0.6v-1.3h-0.6V24.9z M148.7,24.9h0.6v-1.3h-0.6V24.9z M147.8,24.9
		h0.6v-1.3h-0.6V24.9z M146.4,24.9h0.6v-1.3h-0.6V24.9z M145,24.9h0.6v-1.3H145V24.9z M143.6,24.9h0.6v-1.3h-0.6V24.9z M142.2,24.9
		h0.6v-1.3h-0.6V24.9z M140.8,24.9h0.6v-1.3h-0.6V24.9z M139.3,24.9h0.6v-1.3h-0.6V24.9z M137.9,24.9h0.6v-1.3h-0.6V24.9z
		 M136.5,24.9h0.6v-1.3h-0.6V24.9L136.5,24.9z M135.1,24.9h0.6v-1.3h-0.6V24.9z M134.2,24.9h0.6v-1.3h-0.6V24.9z M132.8,24.9h0.6
		v-1.3h-0.6V24.9z M132,24.9h0.6v-1.3H132V24.9z"/>
	<rect x="151.1" y="3.3" fill="#F0F0F0" width="1.3" height="20.8"/>
	<rect x="131.1" y="3.3" fill="#BEBEBE" width="1.3" height="20.8"/>
	<path fill="#8C8C8C" d="M129,24.1v-2h0.3c0.3,0,0.6,0.3,0.6,0.6v0.6c0,0.3,0.3,0.6,0.6,0.6h2.9c0.3,0,0.6-0.3,0.6-0.6v-2
		c0-0.3,0.3-0.6,0.6-0.6h3.4c0.4,0,0.6,0.3,0.6,0.6l0,0c0,0.3-0.3,0.6-0.6,0.6h-1.5c-0.3,0-0.6,0.3-0.6,0.6v0.8
		c0,0.3,0.3,0.6,0.6,0.6H147c0.3,0,0.6-0.3,0.6-0.6v-0.7c0-0.3-0.3-0.6-0.6-0.6h-1.5c-0.4,0-0.6-0.3-0.6-0.6l0,0
		c0-0.3,0.3-0.6,0.6-0.6h3.4c0.3,0,0.6,0.3,0.6,0.6v2c0,0.3,0.3,0.6,0.6,0.6h2.9c0.3,0,0.6-0.3,0.6-0.6v-0.5c0-0.3,0.3-0.6,0.6-0.6
		h0.3v2L129,24.1L129,24.1z"/>
	<rect x="145.1" y="16.9" fill="#8C8C8C" width="3.5" height="1.4"/>
	<rect x="134.9" y="16.9" fill="#8C8C8C" width="3.5" height="1.4"/>
</g>
<g id="_x38_205_2">
	<g>
		<line fill="none" stroke="#CCCCCC" stroke-miterlimit="10" x1="66.5" y1="74.2" x2="49.5" y2="74.2"/>
		<line fill="none" stroke="#CCCCCC" stroke-miterlimit="10" x1="66.5" y1="72.5" x2="49.5" y2="72.5"/>
		<line fill="none" stroke="#CCCCCC" stroke-miterlimit="10" x1="66.5" y1="70.8" x2="49.5" y2="70.8"/>
		<line fill="none" stroke="#CCCCCC" stroke-miterlimit="10" x1="66.5" y1="69.1" x2="49.5" y2="69.1"/>
	</g>
	<rect x="51.6" y="67.4" fill="#333333" width="12.8" height="8.2"/>
	<circle fill="#1F1F1F" cx="53.2" cy="69.1" r="0.7"/>
</g>
<g id="usb_female">
	<circle id="connector2pin" fill="none" stroke="#999999" stroke-width="0.72" cx="81.2" cy="74.4" r="1.8"/>
	<circle fill="none" stroke="#999999" stroke-width="0.72" cx="88.3" cy="74.4" r="1.8"/>
	<circle fill="none" stroke="#999999" stroke-width="0.72" cx="93.9" cy="74.4" r="1.8"/>
	<circle id="connector3pin" fill="none" stroke="#999999" stroke-width="0.72" cx="100.9" cy="74.4" r="1.8"/>
	<g id="usb_f">
		<g>
			<path id="path49" fill="none" stroke="#999999" d="M74.5,84.1c0,1.2-1,2.1-2.1,2.1l0,0c-1.2,0-2.1-0.9-2.1-2.1v-4.3
				c0-1.2,1-2.1,2.1-2.1l0,0c1.2,0,2.1,1,2.1,2.1V84.1z"/>
			<path id="path61" fill="none" stroke="#999999" d="M111.8,84.1c0,1.2-1,2.1-2.1,2.1l0,0c-1.2,0-2.1-0.9-2.1-2.1v-4.3
				c0-1.2,1-2.1,2.1-2.1l0,0c1.2,0,2.1,1,2.1,2.1C111.8,79.9,111.8,84.1,111.8,84.1z"/>
		</g>
		<rect id="rect8" x="74.4" y="80.8" fill="#808080" width="33.3" height="32"/>
		<path id="path12" fill="#B0B0B0" d="M107.9,110.6h1.5c0,0.2,0.2,0.3,0.4,0.4c0.1,0,0.9,0,1.5,0v0.2v0.1v1.2v0.1v0.3
			c-0.9,0-2,0-2.3-0.1c-1-0.2-1.1-0.5-1.1-0.6l0,0V110.6L107.9,110.6L107.9,110.6z"/>
		<path id="path16" fill="#B0B0B0" d="M74.3,110.6h-1.5c0,0.2-0.2,0.3-0.4,0.4c-0.1,0-0.9,0-1.5,0v0.2v0.1v1.2v0.1v0.3
			c0.9,0,2,0,2.3-0.1c1-0.2,1.1-0.5,1.1-0.6l0,0V110.6L74.3,110.6L74.3,110.6z"/>
		<path id="path20" fill="#B3B3B3" d="M72.7,74.3v36.9h1.6v1.6H108v-1.6h1.5V74.3H72.7z M84.8,108.9c-0.1,0.3-0.4,0.5-0.8,0.5h-4.4
			c-0.4,0-0.7-0.2-0.8-0.5L76,89.1c0-0.3,0.3-0.5,0.6-0.5h0.6c0.4,0,0.7,0.2,0.8,0.5l2.1,16.6c0,0.3,0.4,0.5,0.8,0.5h1.8
			c0.4,0,0.7-0.2,0.8-0.5l2.1-16.6c0-0.3,0.4-0.5,0.8-0.5H87c0.4,0,0.7,0.2,0.6,0.5L84.8,108.9z M103.3,108.9
			c-0.1,0.3-0.4,0.5-0.8,0.5H98c-0.4,0-0.7-0.2-0.8-0.5l-2.8-19.8c0-0.3,0.3-0.5,0.6-0.5h0.7c0.4,0,0.7,0.2,0.8,0.5l2.1,16.6
			c0,0.3,0.4,0.5,0.8,0.5h1.6c0.4,0,0.7-0.2,0.8-0.5l2.1-16.6c0-0.3,0.4-0.5,0.8-0.5h0.6c0.4,0,0.7,0.2,0.6,0.5L103.3,108.9z"/>
		<g transform="matrix(13.9096, 0, 0, 13.8889, 100.149, 185.555)">
			<polygon id="polygon22" fill="none" points="-1.5,-5.7 -1.3,-5.7 -1.2,-5.8 -1.5,-5.8 			"/>
		</g>
		<g transform="matrix(13.9096, 0, 0, 13.8889, 100.149, 185.555)">
			<polygon id="polygon28" fill="none" points="-0.1,-5.7 0.1,-5.7 0.2,-5.8 -0.1,-5.8 			"/>
		</g>
		
			<line id="line34" fill="none" stroke="#000000" stroke-width="2" stroke-linecap="round" stroke-opacity="0.15" x1="108" y1="111.9" x2="74" y2="111.9"/>
		<rect id="rect36" x="73.3" y="112.3" fill="#B0B0B0" width="35.5" height="0.6"/>
	</g>
</g>
<g id="CAP_0603" transform="matrix(26.5941, 0, 0, 21.6802, 26.9369, 78.0798)">
	<rect id="rect13688_4_" x="-0.783" y="-2.848" fill="#AF7E28" width="0.131" height="0.104"/>
	<path id="path13690_4_" fill="#BBBBBB" d="M-0.767-2.848h-0.025c-0.006,0-0.011,0.006-0.011,0.014v0.076
		c0,0.008,0.005,0.014,0.011,0.014h0.025c0.002-0.017,0.003-0.034,0.003-0.052C-0.763-2.814-0.764-2.832-0.767-2.848z"/>
	<path id="path13692_4_" fill="#BBBBBB" d="M-0.632-2.758v-0.076c0-0.008-0.005-0.014-0.011-0.014h-0.025
		C-0.67-2.832-0.672-2.814-0.672-2.796c0,0.019,0.001,0.035,0.003,0.052h0.025C-0.638-2.744-0.632-2.75-0.632-2.758z"/>
</g>
<g id="CAP_0805_1_" transform="matrix(26.5941, 0, 0, 21.6802, 26.9369, 78.0798)">
	<rect id="rect13688_8_" x="-0.777" y="-3.124" fill="#AF7E28" width="0.164" height="0.162"/>
	<path id="path13690_8_" fill="#BBBBBB" d="M-0.753-3.124h-0.034c-0.008,0-0.015,0.01-0.015,0.022v0.119
		c0,0.012,0.007,0.022,0.015,0.022h0.034c0.003-0.026,0.004-0.053,0.004-0.081C-0.748-3.071-0.749-3.098-0.753-3.124z"/>
	<path id="path13692_8_" fill="#BBBBBB" d="M-0.588-2.983v-0.119c0-0.012-0.007-0.022-0.015-0.022h-0.034
		C-0.64-3.098-0.642-3.071-0.642-3.042s0.002,0.055,0.004,0.081h0.034C-0.596-2.962-0.588-2.971-0.588-2.983z"/>
	<path fill="#BBBBBB" d="M-0.753-2.974c0,0.007-0.005,0.013-0.011,0.013h-0.028c-0.006,0-0.011-0.006-0.011-0.013v-0.137
		c0-0.007,0.005-0.013,0.011-0.013h0.028c0.006,0,0.011,0.006,0.011,0.013V-2.974z"/>
	<path fill="#BBBBBB" d="M-0.588-2.974c0,0.007-0.005,0.013-0.011,0.013h-0.028c-0.006,0-0.011-0.006-0.011-0.013v-0.137
		c0-0.007,0.005-0.013,0.011-0.013h0.028c0.006,0,0.011,0.006,0.011,0.013V-2.974z"/>
</g>
<g id="CAP_1206_1_" transform="matrix(26.5941, 0, 0, 21.6802, 26.9369, 78.0798)">
	<rect id="rect13688_7_" x="-0.762" y="-3.392" fill="#AF7E28" width="0.263" height="0.208"/>
	<path id="path13690_7_" fill="#BBBBBB" d="M-0.747-3.393h-0.038c-0.009,0-0.017,0.013-0.017,0.028v0.153
		c0,0.015,0.008,0.028,0.017,0.028h0.038c0.003-0.033,0.005-0.068,0.005-0.104C-0.742-3.325-0.743-3.36-0.747-3.393z"/>
	<path id="path13692_7_" fill="#BBBBBB" d="M-0.46-3.212v-0.153c0-0.015-0.008-0.028-0.017-0.028h-0.038
		C-0.518-3.36-0.52-3.325-0.52-3.288s0.002,0.071,0.005,0.104h0.038C-0.468-3.185-0.46-3.196-0.46-3.212z"/>
	<path fill="#BBBBBB" d="M-0.747-3.197c0,0.007-0.005,0.013-0.011,0.013h-0.034c-0.006,0-0.011-0.006-0.011-0.013V-3.38
		c0-0.007,0.005-0.013,0.011-0.013h0.034c0.006,0,0.011,0.006,0.011,0.013V-3.197z"/>
	<path fill="#BBBBBB" d="M-0.46-3.197c0,0.007-0.005,0.013-0.011,0.013h-0.034c-0.006,0-0.011-0.006-0.011-0.013V-3.38
		c0-0.007,0.005-0.013,0.011-0.013h0.034c0.006,0,0.011,0.006,0.011,0.013L-0.46-3.197z"/>
</g>
<g id="CAP_0603_1_" transform="matrix(26.5941, 0, 0, 21.6802, 26.9369, 78.0798)">
	<rect id="rect13688_3_" x="-0.306" y="-2.848" fill="#303030" width="0.131" height="0.104"/>
	<path id="path13690_3_" fill="#BBBBBB" d="M-0.29-2.848h-0.025c-0.006,0-0.011,0.006-0.011,0.014v0.076
		c0,0.008,0.005,0.014,0.011,0.014h0.025c0.002-0.017,0.003-0.034,0.003-0.052C-0.286-2.814-0.287-2.832-0.29-2.848z"/>
	<path id="path13692_3_" fill="#BBBBBB" d="M-0.155-2.758v-0.076c0-0.008-0.005-0.014-0.011-0.014h-0.025
		c-0.002,0.016-0.004,0.034-0.004,0.052c0,0.019,0.001,0.035,0.003,0.052h0.025C-0.161-2.744-0.155-2.75-0.155-2.758z"/>
</g>
<g id="CAP_0805_2_" transform="matrix(26.5941, 0, 0, 21.6802, 26.9369, 78.0798)">
	<rect id="rect13688_2_" x="-0.3" y="-3.124" fill="#303030" width="0.164" height="0.162"/>
	<path id="path13690_2_" fill="#BBBBBB" d="M-0.276-3.124H-0.31c-0.008,0-0.015,0.01-0.015,0.022v0.119
		c0,0.012,0.007,0.022,0.015,0.022h0.034c0.003-0.026,0.004-0.053,0.004-0.081C-0.271-3.071-0.272-3.098-0.276-3.124z"/>
	<path id="path13692_2_" fill="#BBBBBB" d="M-0.111-2.983v-0.119c0-0.012-0.007-0.022-0.015-0.022H-0.16
		c-0.003,0.026-0.005,0.053-0.005,0.082s0.002,0.055,0.004,0.081h0.034C-0.119-2.962-0.111-2.971-0.111-2.983z"/>
	<path fill="#BBBBBB" d="M-0.276-2.974c0,0.007-0.005,0.013-0.011,0.013h-0.028c-0.006,0-0.011-0.006-0.011-0.013v-0.137
		c0-0.007,0.005-0.013,0.011-0.013h0.028c0.006,0,0.011,0.006,0.011,0.013V-2.974z"/>
	<path fill="#BBBBBB" d="M-0.111-2.974c0,0.007-0.005,0.013-0.011,0.013H-0.15c-0.006,0-0.011-0.006-0.011-0.013v-0.137
		c0-0.007,0.005-0.013,0.011-0.013h0.028c0.006,0,0.011,0.006,0.011,0.013V-2.974z"/>
</g>
<g id="CAP_1206_2_" transform="matrix(26.5941, 0, 0, 21.6802, 26.9369, 78.0798)">
	<rect id="rect13688_1_" x="-0.285" y="-3.392" fill="#303030" width="0.263" height="0.208"/>
	<path id="path13690_1_" fill="#BBBBBB" d="M-0.27-3.393h-0.038c-0.009,0-0.017,0.013-0.017,0.028v0.153
		c0,0.015,0.008,0.028,0.017,0.028h0.038c0.003-0.033,0.005-0.068,0.005-0.104C-0.265-3.325-0.266-3.36-0.27-3.393z"/>
	<path id="path13692_1_" fill="#BBBBBB" d="M0.017-3.212v-0.153C0.017-3.38,0.009-3.393,0-3.393h-0.038
		C-0.041-3.36-0.043-3.325-0.043-3.288s0.002,0.071,0.005,0.104H0C0.009-3.185,0.017-3.196,0.017-3.212z"/>
	<path fill="#BBBBBB" d="M-0.27-3.197c0,0.007-0.005,0.013-0.011,0.013h-0.034c-0.006,0-0.011-0.006-0.011-0.013V-3.38
		c0-0.007,0.005-0.013,0.011-0.013h0.034c0.006,0,0.011,0.006,0.011,0.013V-3.197z"/>
	<path fill="#BBBBBB" d="M0.017-3.197c0,0.007-0.005,0.013-0.011,0.013h-0.034c-0.006,0-0.011-0.006-0.011-0.013V-3.38
		c0-0.007,0.005-0.013,0.011-0.013h0.034c0.006,0,0.011,0.006,0.011,0.013L0.017-3.197z"/>
</g>
<g id="CAP_0805_11_" transform="matrix(26.5941, 0, 0, 21.6802, 26.9369, 78.0798)">
	<rect id="rect13688_11_" x="3.449" y="-2.076" fill="#303030" width="0.339" height="0.63"/>
	<path id="path13690_11_" fill="#BBBBBB" d="M3.788-2.087v-0.061c0-0.014-0.021-0.027-0.046-0.027H3.493
		c-0.025,0-0.046,0.013-0.046,0.027v0.061C3.501-2.082,3.558-2.08,3.616-2.08C3.677-2.078,3.734-2.079,3.788-2.087z"/>
	<path id="path13692_11_" fill="#BBBBBB" d="M3.493-1.353h0.249c0.025,0,0.046-0.013,0.046-0.027v-0.062
		C3.734-1.448,3.677-1.451,3.617-1.451c-0.06,0-0.115,0.003-0.17,0.007v0.062C3.449-1.368,3.468-1.353,3.493-1.353z"/>
	<path fill="#BBBBBB" d="M3.474-2.087c-0.015,0-0.027-0.009-0.027-0.02v-0.051c0-0.011,0.013-0.02,0.027-0.02h0.287
		c0.015,0,0.027,0.009,0.027,0.02v0.051c0,0.011-0.013,0.02-0.027,0.02H3.474z"/>
	<path fill="#BBBBBB" d="M3.474-1.353c-0.015,0-0.027-0.009-0.027-0.02v-0.051c0-0.011,0.013-0.02,0.027-0.02h0.287
		c0.015,0,0.027,0.009,0.027,0.02v0.051c0,0.011-0.013,0.02-0.027,0.02H3.474z"/>
</g>
</svg>
