<?xml version="1.0" encoding="utf-8"?>
<!-- Generator: Adobe Illustrator 16.0.0, SVG Export Plug-In . SVG Version: 6.00 Build 0)  -->
<!DOCTYPE svg PUBLIC "-//W3C//DTD SVG 1.1//EN" "http://www.w3.org/Graphics/SVG/1.1/DTD/svg11.dtd">
<svg version="1.1" id="svg2524" xmlns="http://www.w3.org/2000/svg" xmlns:xlink="http://www.w3.org/1999/xlink" x="0px" y="0px"
	 width="32px" height="32px" viewBox="0 0 32 32" enable-background="new 0 0 32 32" xml:space="preserve">
<rect id="rect2383_2_" x="-0.028" y="-0.028" fill="#86A28C" stroke="#568B53" stroke-width="1.9445" width="32.055" height="32.055"/>
<rect id="rect2385_1_" x="4.4" y="5.032" fill="#F5C930" stroke="#F5C930" stroke-width="1.0017" width="6.704" height="7.334"/>
<path id="path3157_1_" fill="none" stroke="#F5C930" stroke-width="2.764" d="M24.786,22.234c0,1.897-1.538,3.438-3.438,3.438
	c-1.896,0-3.438-1.537-3.438-3.438c0-1.898,1.54-3.438,3.438-3.438C23.248,18.796,24.786,20.336,24.786,22.234z"/>
<path id="path3159_1_" fill="none" stroke="#F5C930" stroke-width="2.0035" d="M7.688,9.08l0.127,6.197l9.865,5.946"/>
<path id="path3161_1_" fill="none" stroke="#F5C930" stroke-width="2.0035" d="M21.477,18.945l0.125-9.485l7.158-5.793l0.01-2.7"/>
<text transform="matrix(1 0 0 1 3.2832 30.0273)" fill="#FFFFFF" font-family="'DroidSans'" font-size="12">UNO</text>
<text transform="matrix(1 0 0 1 2.9839 29.748)" font-family="'DroidSans'" font-size="12">UNO</text>
</svg>
