<?xml version="1.0" encoding="utf-8"?>
<!-- Generator: Adobe Illustrator 16.0.0, SVG Export Plug-In . SVG Version: 6.00 Build 0)  -->
<!DOCTYPE svg PUBLIC "-//W3C//DTD SVG 1.1//EN" "http://www.w3.org/Graphics/SVG/1.1/DTD/svg11.dtd">
<svg version="1.1" id="Layer_1" xmlns:svg="http://www.w3.org/2000/svg"
	 xmlns="http://www.w3.org/2000/svg" xmlns:xlink="http://www.w3.org/1999/xlink" x="0px" y="0px" width="226.771px"
	 height="56.691px" viewBox="0 0 226.771 56.691" enable-background="new 0 0 226.771 56.691" xml:space="preserve">
<g id="breadboard">
	<g id="boardline">
		<path fill="#008000" d="M0.06,0v56.691h226.771V0H0.06z M4.17,54.854c-1.25,0-2.271-1.021-2.271-2.271s1.017-2.271,2.271-2.271
			c1.255,0,2.271,1.017,2.271,2.271S5.42,54.854,4.17,54.854z M4.17,6.38c-1.254,0-2.271-1.017-2.271-2.271
			c0-1.255,1.017-2.271,2.271-2.271c1.255,0,2.271,1.021,2.271,2.271S5.424,6.38,4.17,6.38z M16.246,48.472
			c-1.174,0-2.126-0.95-2.126-2.126c0-1.178,0.952-2.126,2.126-2.126s2.126,0.943,2.126,2.126
			C18.372,47.522,17.42,48.472,16.246,48.472z M16.246,41.272c-1.174,0-2.126-0.952-2.126-2.126c0-1.175,0.952-2.126,2.126-2.126
			s2.126,0.95,2.126,2.126C18.372,40.32,17.42,41.272,16.246,41.272z M16.246,34.072c-1.174,0-2.126-0.952-2.126-2.126
			c0-1.175,0.952-2.126,2.126-2.126s2.126,0.951,2.126,2.126C18.372,33.12,17.42,34.072,16.246,34.072z M16.246,26.871
			c-1.174,0-2.126-0.952-2.126-2.126s0.952-2.126,2.126-2.126s2.126,0.952,2.126,2.126S17.42,26.871,16.246,26.871z M16.246,19.671
			c-1.174,0-2.126-0.943-2.126-2.126c0-1.174,0.952-2.126,2.126-2.126s2.126,0.952,2.126,2.126
			C18.372,18.723,17.42,19.671,16.246,19.671z M16.246,12.471c-1.174,0-2.126-0.95-2.126-2.126c0-1.178,0.952-2.131,2.126-2.131
			s2.126,0.948,2.126,2.131C18.372,11.521,17.42,12.471,16.246,12.471z M23.446,48.472c-1.175,0-2.126-0.95-2.126-2.126
			c0-1.178,0.951-2.126,2.126-2.126c1.174,0,2.126,0.943,2.126,2.126C25.572,47.522,24.62,48.472,23.446,48.472z M23.446,41.272
			c-1.175,0-2.126-0.952-2.126-2.126c0-1.175,0.951-2.126,2.126-2.126c1.174,0,2.126,0.95,2.126,2.126
			C25.572,40.32,24.62,41.272,23.446,41.272z M23.446,34.072c-1.175,0-2.126-0.952-2.126-2.126c0-1.175,0.951-2.126,2.126-2.126
			c1.174,0,2.126,0.951,2.126,2.126C25.572,33.12,24.62,34.072,23.446,34.072z M23.446,26.871c-1.175,0-2.126-0.952-2.126-2.126
			s0.951-2.126,2.126-2.126c1.174,0,2.126,0.952,2.126,2.126S24.62,26.871,23.446,26.871z M23.446,19.671
			c-1.175,0-2.126-0.943-2.126-2.126c0-1.174,0.951-2.126,2.126-2.126c1.174,0,2.126,0.952,2.126,2.126
			C25.572,18.723,24.62,19.671,23.446,19.671z M23.446,12.471c-1.175,0-2.126-0.95-2.126-2.126c0-1.178,0.951-2.131,2.126-2.131
			c1.174,0,2.126,0.948,2.126,2.131C25.572,11.521,24.62,12.471,23.446,12.471z M30.646,48.472c-1.176,0-2.126-0.95-2.126-2.126
			c0-1.178,0.951-2.126,2.126-2.126c1.174,0,2.126,0.943,2.126,2.126C32.772,47.522,31.82,48.472,30.646,48.472z M30.646,41.272
			c-1.176,0-2.126-0.952-2.126-2.126c0-1.175,0.951-2.126,2.126-2.126c1.174,0,2.126,0.95,2.126,2.126
			C32.772,40.32,31.82,41.272,30.646,41.272z M30.646,34.072c-1.176,0-2.126-0.952-2.126-2.126c0-1.175,0.951-2.126,2.126-2.126
			c1.174,0,2.126,0.951,2.126,2.126C32.772,33.12,31.82,34.072,30.646,34.072z M30.646,26.871c-1.176,0-2.126-0.952-2.126-2.126
			s0.951-2.126,2.126-2.126c1.174,0,2.126,0.952,2.126,2.126S31.82,26.871,30.646,26.871z M30.646,19.671
			c-1.176,0-2.126-0.943-2.126-2.126c0-1.174,0.951-2.126,2.126-2.126c1.174,0,2.126,0.952,2.126,2.126
			C32.772,18.723,31.82,19.671,30.646,19.671z M30.646,12.471c-1.176,0-2.126-0.95-2.126-2.126c0-1.178,0.951-2.131,2.126-2.131
			c1.174,0,2.126,0.948,2.126,2.131C32.772,11.521,31.82,12.471,30.646,12.471z M37.845,48.472c-1.183,0-2.131-0.95-2.131-2.126
			c0-1.178,0.953-2.126,2.131-2.126c1.176,0,2.126,0.943,2.126,2.126C39.971,47.522,39.021,48.472,37.845,48.472z M37.845,41.272
			c-1.183,0-2.131-0.952-2.131-2.126c0-1.175,0.953-2.126,2.131-2.126c1.176,0,2.126,0.95,2.126,2.126
			C39.971,40.32,39.021,41.272,37.845,41.272z M37.845,34.072c-1.183,0-2.131-0.952-2.131-2.126c0-1.175,0.953-2.126,2.131-2.126
			c1.176,0,2.126,0.951,2.126,2.126C39.971,33.12,39.021,34.072,37.845,34.072z M37.845,26.871c-1.183,0-2.131-0.952-2.131-2.126
			s0.953-2.126,2.131-2.126c1.176,0,2.126,0.952,2.126,2.126S39.021,26.871,37.845,26.871z M37.845,19.671
			c-1.183,0-2.131-0.943-2.131-2.126c0-1.174,0.953-2.126,2.131-2.126c1.176,0,2.126,0.952,2.126,2.126
			C39.971,18.723,39.021,19.671,37.845,19.671z M37.845,12.471c-1.183,0-2.131-0.95-2.131-2.126c0-1.178,0.953-2.131,2.131-2.131
			c1.176,0,2.126,0.948,2.126,2.131C39.971,11.521,39.021,12.471,37.845,12.471z M45.046,48.472c-1.174,0-2.126-0.95-2.126-2.126
			c0-1.178,0.952-2.126,2.126-2.126c1.184,0,2.126,0.943,2.126,2.126C47.172,47.522,46.225,48.472,45.046,48.472z M45.046,41.272
			c-1.174,0-2.126-0.952-2.126-2.126c0-1.175,0.952-2.126,2.126-2.126c1.184,0,2.126,0.95,2.126,2.126
			C47.172,40.32,46.225,41.272,45.046,41.272z M45.046,34.072c-1.174,0-2.126-0.952-2.126-2.126c0-1.175,0.952-2.126,2.126-2.126
			c1.184,0,2.126,0.951,2.126,2.126C47.172,33.12,46.225,34.072,45.046,34.072z M45.046,26.871c-1.174,0-2.126-0.952-2.126-2.126
			s0.952-2.126,2.126-2.126c1.184,0,2.126,0.952,2.126,2.126S46.225,26.871,45.046,26.871z M45.046,19.671
			c-1.174,0-2.126-0.943-2.126-2.126c0-1.174,0.952-2.126,2.126-2.126c1.184,0,2.126,0.952,2.126,2.126
			C47.172,18.723,46.225,19.671,45.046,19.671z M45.046,12.471c-1.174,0-2.126-0.95-2.126-2.126c0-1.178,0.952-2.131,2.126-2.131
			c1.184,0,2.126,0.948,2.126,2.131C47.172,11.521,46.225,12.471,45.046,12.471z M52.246,48.472c-1.174,0-2.126-0.95-2.126-2.126
			c0-1.178,0.952-2.126,2.126-2.126s2.126,0.943,2.126,2.126C54.372,47.522,53.42,48.472,52.246,48.472z M52.246,41.272
			c-1.174,0-2.126-0.952-2.126-2.126c0-1.175,0.952-2.126,2.126-2.126s2.126,0.95,2.126,2.126
			C54.372,40.32,53.42,41.272,52.246,41.272z M52.246,34.072c-1.174,0-2.126-0.952-2.126-2.126c0-1.175,0.952-2.126,2.126-2.126
			s2.126,0.951,2.126,2.126C54.372,33.12,53.42,34.072,52.246,34.072z M52.246,26.871c-1.174,0-2.126-0.952-2.126-2.126
			s0.952-2.126,2.126-2.126s2.126,0.952,2.126,2.126S53.42,26.871,52.246,26.871z M52.246,19.671c-1.174,0-2.126-0.943-2.126-2.126
			c0-1.174,0.952-2.126,2.126-2.126s2.126,0.952,2.126,2.126C54.372,18.723,53.42,19.671,52.246,19.671z M52.246,12.471
			c-1.174,0-2.126-0.95-2.126-2.126c0-1.178,0.952-2.131,2.126-2.131s2.126,0.948,2.126,2.131
			C54.372,11.521,53.42,12.471,52.246,12.471z M59.446,48.472c-1.175,0-2.126-0.95-2.126-2.126c0-1.178,0.951-2.126,2.126-2.126
			c1.174,0,2.126,0.943,2.126,2.126C61.572,47.522,60.62,48.472,59.446,48.472z M59.446,41.272c-1.175,0-2.126-0.952-2.126-2.126
			c0-1.175,0.951-2.126,2.126-2.126c1.174,0,2.126,0.95,2.126,2.126C61.572,40.32,60.62,41.272,59.446,41.272z M59.446,34.072
			c-1.175,0-2.126-0.952-2.126-2.126c0-1.175,0.951-2.126,2.126-2.126c1.174,0,2.126,0.951,2.126,2.126
			C61.572,33.12,60.62,34.072,59.446,34.072z M59.446,26.871c-1.175,0-2.126-0.952-2.126-2.126s0.951-2.126,2.126-2.126
			c1.174,0,2.126,0.952,2.126,2.126S60.62,26.871,59.446,26.871z M59.446,19.671c-1.175,0-2.126-0.943-2.126-2.126
			c0-1.174,0.951-2.126,2.126-2.126c1.174,0,2.126,0.952,2.126,2.126C61.572,18.723,60.62,19.671,59.446,19.671z M59.446,12.471
			c-1.175,0-2.126-0.95-2.126-2.126c0-1.178,0.951-2.131,2.126-2.131c1.174,0,2.126,0.948,2.126,2.131
			C61.572,11.521,60.62,12.471,59.446,12.471z M66.646,48.472c-1.176,0-2.126-0.95-2.126-2.126c0-1.178,0.951-2.126,2.126-2.126
			c1.174,0,2.126,0.943,2.126,2.126C68.772,47.522,67.82,48.472,66.646,48.472z M66.646,41.272c-1.176,0-2.126-0.952-2.126-2.126
			c0-1.175,0.951-2.126,2.126-2.126c1.174,0,2.126,0.95,2.126,2.126C68.772,40.32,67.82,41.272,66.646,41.272z M66.646,34.072
			c-1.176,0-2.126-0.952-2.126-2.126c0-1.175,0.951-2.126,2.126-2.126c1.174,0,2.126,0.951,2.126,2.126
			C68.772,33.12,67.82,34.072,66.646,34.072z M66.646,26.871c-1.176,0-2.126-0.952-2.126-2.126s0.951-2.126,2.126-2.126
			c1.174,0,2.126,0.952,2.126,2.126S67.82,26.871,66.646,26.871z M66.646,19.671c-1.176,0-2.126-0.943-2.126-2.126
			c0-1.174,0.951-2.126,2.126-2.126c1.174,0,2.126,0.952,2.126,2.126C68.772,18.723,67.82,19.671,66.646,19.671z M66.646,12.471
			c-1.176,0-2.126-0.95-2.126-2.126c0-1.178,0.951-2.131,2.126-2.131c1.174,0,2.126,0.948,2.126,2.131
			C68.772,11.521,67.82,12.471,66.646,12.471z M73.845,48.472c-1.183,0-2.131-0.95-2.131-2.126c0-1.178,0.953-2.126,2.131-2.126
			c1.176,0,2.126,0.943,2.126,2.126C75.971,47.522,75.021,48.472,73.845,48.472z M73.845,41.272c-1.183,0-2.131-0.952-2.131-2.126
			c0-1.175,0.953-2.126,2.131-2.126c1.176,0,2.126,0.95,2.126,2.126C75.971,40.32,75.021,41.272,73.845,41.272z M73.845,34.072
			c-1.183,0-2.131-0.952-2.131-2.126c0-1.175,0.953-2.126,2.131-2.126c1.176,0,2.126,0.951,2.126,2.126
			C75.971,33.12,75.021,34.072,73.845,34.072z M73.845,26.871c-1.183,0-2.131-0.952-2.131-2.126s0.953-2.126,2.131-2.126
			c1.176,0,2.126,0.952,2.126,2.126S75.021,26.871,73.845,26.871z M73.845,19.671c-1.183,0-2.131-0.943-2.131-2.126
			c0-1.174,0.953-2.126,2.131-2.126c1.176,0,2.126,0.952,2.126,2.126C75.971,18.723,75.021,19.671,73.845,19.671z M73.845,12.471
			c-1.183,0-2.131-0.95-2.131-2.126c0-1.178,0.953-2.131,2.131-2.131c1.176,0,2.126,0.948,2.126,2.131
			C75.971,11.521,75.021,12.471,73.845,12.471z M81.046,48.472c-1.174,0-2.126-0.95-2.126-2.126c0-1.178,0.952-2.126,2.126-2.126
			c1.184,0,2.126,0.943,2.126,2.126C83.172,47.522,82.225,48.472,81.046,48.472z M81.046,41.272c-1.174,0-2.126-0.952-2.126-2.126
			c0-1.175,0.952-2.126,2.126-2.126c1.184,0,2.126,0.95,2.126,2.126C83.172,40.32,82.225,41.272,81.046,41.272z M81.046,34.072
			c-1.174,0-2.126-0.952-2.126-2.126c0-1.175,0.952-2.126,2.126-2.126c1.184,0,2.126,0.951,2.126,2.126
			C83.172,33.12,82.225,34.072,81.046,34.072z M81.046,26.871c-1.174,0-2.126-0.952-2.126-2.126s0.952-2.126,2.126-2.126
			c1.184,0,2.126,0.952,2.126,2.126S82.225,26.871,81.046,26.871z M81.046,19.671c-1.174,0-2.126-0.943-2.126-2.126
			c0-1.174,0.952-2.126,2.126-2.126c1.184,0,2.126,0.952,2.126,2.126C83.172,18.723,82.225,19.671,81.046,19.671z M81.046,12.471
			c-1.174,0-2.126-0.95-2.126-2.126c0-1.178,0.952-2.131,2.126-2.131c1.184,0,2.126,0.948,2.126,2.131
			C83.172,11.521,82.225,12.471,81.046,12.471z M88.246,48.472c-1.174,0-2.126-0.95-2.126-2.126c0-1.178,0.952-2.126,2.126-2.126
			s2.126,0.943,2.126,2.126C90.372,47.522,89.42,48.472,88.246,48.472z M88.246,41.272c-1.174,0-2.126-0.952-2.126-2.126
			c0-1.175,0.952-2.126,2.126-2.126s2.126,0.95,2.126,2.126C90.372,40.32,89.42,41.272,88.246,41.272z M88.246,34.072
			c-1.174,0-2.126-0.952-2.126-2.126c0-1.175,0.952-2.126,2.126-2.126s2.126,0.951,2.126,2.126
			C90.372,33.12,89.42,34.072,88.246,34.072z M88.246,26.871c-1.174,0-2.126-0.952-2.126-2.126s0.952-2.126,2.126-2.126
			s2.126,0.952,2.126,2.126S89.42,26.871,88.246,26.871z M88.246,19.671c-1.174,0-2.126-0.943-2.126-2.126
			c0-1.174,0.952-2.126,2.126-2.126s2.126,0.952,2.126,2.126C90.372,18.723,89.42,19.671,88.246,19.671z M88.246,12.471
			c-1.174,0-2.126-0.95-2.126-2.126c0-1.178,0.952-2.131,2.126-2.131s2.126,0.948,2.126,2.131
			C90.372,11.521,89.42,12.471,88.246,12.471z M95.446,48.472c-1.175,0-2.126-0.95-2.126-2.126c0-1.178,0.951-2.126,2.126-2.126
			c1.174,0,2.126,0.943,2.126,2.126C97.572,47.522,96.62,48.472,95.446,48.472z M95.446,41.272c-1.175,0-2.126-0.952-2.126-2.126
			c0-1.175,0.951-2.126,2.126-2.126c1.174,0,2.126,0.95,2.126,2.126C97.572,40.32,96.62,41.272,95.446,41.272z M95.446,34.072
			c-1.175,0-2.126-0.952-2.126-2.126c0-1.175,0.951-2.126,2.126-2.126c1.174,0,2.126,0.951,2.126,2.126
			C97.572,33.12,96.62,34.072,95.446,34.072z M95.446,26.871c-1.175,0-2.126-0.952-2.126-2.126s0.951-2.126,2.126-2.126
			c1.174,0,2.126,0.952,2.126,2.126S96.62,26.871,95.446,26.871z M95.446,19.671c-1.175,0-2.126-0.943-2.126-2.126
			c0-1.174,0.951-2.126,2.126-2.126c1.174,0,2.126,0.952,2.126,2.126C97.572,18.723,96.62,19.671,95.446,19.671z M95.446,12.471
			c-1.175,0-2.126-0.95-2.126-2.126c0-1.178,0.951-2.131,2.126-2.131c1.174,0,2.126,0.948,2.126,2.131
			C97.572,11.521,96.62,12.471,95.446,12.471z M102.646,48.472c-1.176,0-2.126-0.95-2.126-2.126c0-1.178,0.951-2.126,2.126-2.126
			c1.174,0,2.126,0.943,2.126,2.126C104.772,47.522,103.82,48.472,102.646,48.472z M102.646,41.272
			c-1.176,0-2.126-0.952-2.126-2.126c0-1.175,0.951-2.126,2.126-2.126c1.174,0,2.126,0.95,2.126,2.126
			C104.772,40.32,103.82,41.272,102.646,41.272z M102.646,34.072c-1.176,0-2.126-0.952-2.126-2.126c0-1.175,0.951-2.126,2.126-2.126
			c1.174,0,2.126,0.951,2.126,2.126C104.772,33.12,103.82,34.072,102.646,34.072z M102.646,26.871c-1.176,0-2.126-0.952-2.126-2.126
			s0.951-2.126,2.126-2.126c1.174,0,2.126,0.952,2.126,2.126S103.82,26.871,102.646,26.871z M102.646,19.671
			c-1.176,0-2.126-0.943-2.126-2.126c0-1.174,0.951-2.126,2.126-2.126c1.174,0,2.126,0.952,2.126,2.126
			C104.772,18.723,103.82,19.671,102.646,19.671z M102.646,12.471c-1.176,0-2.126-0.95-2.126-2.126c0-1.178,0.951-2.131,2.126-2.131
			c1.174,0,2.126,0.948,2.126,2.131C104.772,11.521,103.82,12.471,102.646,12.471z M109.845,48.472c-1.183,0-2.131-0.95-2.131-2.126
			c0-1.178,0.953-2.126,2.131-2.126c1.176,0,2.126,0.943,2.126,2.126C111.971,47.522,111.021,48.472,109.845,48.472z
			 M109.845,41.272c-1.183,0-2.131-0.952-2.131-2.126c0-1.175,0.953-2.126,2.131-2.126c1.176,0,2.126,0.95,2.126,2.126
			C111.971,40.32,111.021,41.272,109.845,41.272z M109.845,34.072c-1.183,0-2.131-0.952-2.131-2.126
			c0-1.175,0.953-2.126,2.131-2.126c1.176,0,2.126,0.951,2.126,2.126C111.971,33.12,111.021,34.072,109.845,34.072z M109.845,26.871
			c-1.183,0-2.131-0.952-2.131-2.126s0.953-2.126,2.131-2.126c1.176,0,2.126,0.952,2.126,2.126S111.021,26.871,109.845,26.871z
			 M109.845,19.671c-1.183,0-2.131-0.943-2.131-2.126c0-1.174,0.953-2.126,2.131-2.126c1.176,0,2.126,0.952,2.126,2.126
			C111.971,18.723,111.021,19.671,109.845,19.671z M109.845,12.471c-1.183,0-2.131-0.95-2.131-2.126
			c0-1.178,0.953-2.131,2.131-2.131c1.176,0,2.126,0.948,2.126,2.131C111.971,11.521,111.021,12.471,109.845,12.471z
			 M117.046,48.472c-1.174,0-2.126-0.95-2.126-2.126c0-1.178,0.952-2.126,2.126-2.126c1.184,0,2.126,0.943,2.126,2.126
			C119.172,47.522,118.225,48.472,117.046,48.472z M117.046,41.272c-1.174,0-2.126-0.952-2.126-2.126
			c0-1.175,0.952-2.126,2.126-2.126c1.184,0,2.126,0.95,2.126,2.126C119.172,40.32,118.225,41.272,117.046,41.272z M117.046,34.072
			c-1.174,0-2.126-0.952-2.126-2.126c0-1.175,0.952-2.126,2.126-2.126c1.184,0,2.126,0.951,2.126,2.126
			C119.172,33.12,118.225,34.072,117.046,34.072z M117.046,26.871c-1.174,0-2.126-0.952-2.126-2.126s0.952-2.126,2.126-2.126
			c1.184,0,2.126,0.952,2.126,2.126S118.225,26.871,117.046,26.871z M117.046,19.671c-1.174,0-2.126-0.943-2.126-2.126
			c0-1.174,0.952-2.126,2.126-2.126c1.184,0,2.126,0.952,2.126,2.126C119.172,18.723,118.225,19.671,117.046,19.671z
			 M117.046,12.471c-1.174,0-2.126-0.95-2.126-2.126c0-1.178,0.952-2.131,2.126-2.131c1.184,0,2.126,0.948,2.126,2.131
			C119.172,11.521,118.225,12.471,117.046,12.471z M124.246,48.472c-1.174,0-2.126-0.95-2.126-2.126
			c0-1.178,0.952-2.126,2.126-2.126s2.126,0.943,2.126,2.126C126.372,47.522,125.42,48.472,124.246,48.472z M124.246,41.272
			c-1.174,0-2.126-0.952-2.126-2.126c0-1.175,0.952-2.126,2.126-2.126s2.126,0.95,2.126,2.126
			C126.372,40.32,125.42,41.272,124.246,41.272z M124.246,34.072c-1.174,0-2.126-0.952-2.126-2.126c0-1.175,0.952-2.126,2.126-2.126
			s2.126,0.951,2.126,2.126C126.372,33.12,125.42,34.072,124.246,34.072z M124.246,26.871c-1.174,0-2.126-0.952-2.126-2.126
			s0.952-2.126,2.126-2.126s2.126,0.952,2.126,2.126S125.42,26.871,124.246,26.871z M124.246,19.671
			c-1.174,0-2.126-0.943-2.126-2.126c0-1.174,0.952-2.126,2.126-2.126s2.126,0.952,2.126,2.126
			C126.372,18.723,125.42,19.671,124.246,19.671z M124.246,12.471c-1.174,0-2.126-0.95-2.126-2.126c0-1.178,0.952-2.131,2.126-2.131
			s2.126,0.948,2.126,2.131C126.372,11.521,125.42,12.471,124.246,12.471z M131.445,48.472c-1.175,0-2.126-0.95-2.126-2.126
			c0-1.178,0.951-2.126,2.126-2.126c1.174,0,2.126,0.943,2.126,2.126C133.571,47.522,132.619,48.472,131.445,48.472z
			 M131.445,41.272c-1.175,0-2.126-0.952-2.126-2.126c0-1.175,0.951-2.126,2.126-2.126c1.174,0,2.126,0.95,2.126,2.126
			C133.571,40.32,132.619,41.272,131.445,41.272z M131.445,34.072c-1.175,0-2.126-0.952-2.126-2.126
			c0-1.175,0.951-2.126,2.126-2.126c1.174,0,2.126,0.951,2.126,2.126C133.571,33.12,132.619,34.072,131.445,34.072z M131.445,26.871
			c-1.175,0-2.126-0.952-2.126-2.126s0.951-2.126,2.126-2.126c1.174,0,2.126,0.952,2.126,2.126S132.619,26.871,131.445,26.871z
			 M131.445,19.671c-1.175,0-2.126-0.943-2.126-2.126c0-1.174,0.951-2.126,2.126-2.126c1.174,0,2.126,0.952,2.126,2.126
			C133.571,18.723,132.619,19.671,131.445,19.671z M131.445,12.471c-1.175,0-2.126-0.95-2.126-2.126
			c0-1.178,0.951-2.131,2.126-2.131c1.174,0,2.126,0.948,2.126,2.131C133.571,11.521,132.619,12.471,131.445,12.471z
			 M138.647,48.472c-1.176,0-2.126-0.95-2.126-2.126c0-1.178,0.951-2.126,2.126-2.126c1.174,0,2.126,0.943,2.126,2.126
			C140.773,47.522,139.821,48.472,138.647,48.472z M138.647,41.272c-1.176,0-2.126-0.952-2.126-2.126
			c0-1.175,0.951-2.126,2.126-2.126c1.174,0,2.126,0.95,2.126,2.126C140.773,40.32,139.821,41.272,138.647,41.272z M138.647,34.072
			c-1.176,0-2.126-0.952-2.126-2.126c0-1.175,0.951-2.126,2.126-2.126c1.174,0,2.126,0.951,2.126,2.126
			C140.773,33.12,139.821,34.072,138.647,34.072z M138.647,26.871c-1.176,0-2.126-0.952-2.126-2.126s0.951-2.126,2.126-2.126
			c1.174,0,2.126,0.952,2.126,2.126S139.821,26.871,138.647,26.871z M138.647,19.671c-1.176,0-2.126-0.943-2.126-2.126
			c0-1.174,0.951-2.126,2.126-2.126c1.174,0,2.126,0.952,2.126,2.126C140.773,18.723,139.821,19.671,138.647,19.671z
			 M138.647,12.471c-1.176,0-2.126-0.95-2.126-2.126c0-1.178,0.951-2.131,2.126-2.131c1.174,0,2.126,0.948,2.126,2.131
			C140.773,11.521,139.821,12.471,138.647,12.471z M145.845,48.472c-1.183,0-2.131-0.95-2.131-2.126
			c0-1.178,0.953-2.126,2.131-2.126c1.176,0,2.126,0.943,2.126,2.126C147.971,47.522,147.021,48.472,145.845,48.472z
			 M145.845,41.272c-1.183,0-2.131-0.952-2.131-2.126c0-1.175,0.953-2.126,2.131-2.126c1.176,0,2.126,0.95,2.126,2.126
			C147.971,40.32,147.021,41.272,145.845,41.272z M145.845,34.072c-1.183,0-2.131-0.952-2.131-2.126
			c0-1.175,0.953-2.126,2.131-2.126c1.176,0,2.126,0.951,2.126,2.126C147.971,33.12,147.021,34.072,145.845,34.072z M145.845,26.871
			c-1.183,0-2.131-0.952-2.131-2.126s0.953-2.126,2.131-2.126c1.176,0,2.126,0.952,2.126,2.126S147.021,26.871,145.845,26.871z
			 M145.845,19.671c-1.183,0-2.131-0.943-2.131-2.126c0-1.174,0.953-2.126,2.131-2.126c1.176,0,2.126,0.952,2.126,2.126
			C147.971,18.723,147.021,19.671,145.845,19.671z M145.845,12.471c-1.183,0-2.131-0.95-2.131-2.126
			c0-1.178,0.953-2.131,2.131-2.131c1.176,0,2.126,0.948,2.126,2.131C147.971,11.521,147.021,12.471,145.845,12.471z
			 M153.047,48.472c-1.174,0-2.126-0.95-2.126-2.126c0-1.178,0.952-2.126,2.126-2.126c1.184,0,2.126,0.943,2.126,2.126
			C155.173,47.522,154.226,48.472,153.047,48.472z M153.047,41.272c-1.174,0-2.126-0.952-2.126-2.126
			c0-1.175,0.952-2.126,2.126-2.126c1.184,0,2.126,0.95,2.126,2.126C155.173,40.32,154.226,41.272,153.047,41.272z M153.047,34.072
			c-1.174,0-2.126-0.952-2.126-2.126c0-1.175,0.952-2.126,2.126-2.126c1.184,0,2.126,0.951,2.126,2.126
			C155.173,33.12,154.226,34.072,153.047,34.072z M153.047,26.871c-1.174,0-2.126-0.952-2.126-2.126s0.952-2.126,2.126-2.126
			c1.184,0,2.126,0.952,2.126,2.126S154.226,26.871,153.047,26.871z M153.047,19.671c-1.174,0-2.126-0.943-2.126-2.126
			c0-1.174,0.952-2.126,2.126-2.126c1.184,0,2.126,0.952,2.126,2.126C155.173,18.723,154.226,19.671,153.047,19.671z
			 M153.047,12.471c-1.174,0-2.126-0.95-2.126-2.126c0-1.178,0.952-2.131,2.126-2.131c1.184,0,2.126,0.948,2.126,2.131
			C155.173,11.521,154.226,12.471,153.047,12.471z M160.246,48.472c-1.174,0-2.126-0.95-2.126-2.126
			c0-1.178,0.952-2.126,2.126-2.126s2.126,0.943,2.126,2.126C162.372,47.522,161.42,48.472,160.246,48.472z M160.246,41.272
			c-1.174,0-2.126-0.952-2.126-2.126c0-1.175,0.952-2.126,2.126-2.126s2.126,0.95,2.126,2.126
			C162.372,40.32,161.42,41.272,160.246,41.272z M160.246,34.072c-1.174,0-2.126-0.952-2.126-2.126c0-1.175,0.952-2.126,2.126-2.126
			s2.126,0.951,2.126,2.126C162.372,33.12,161.42,34.072,160.246,34.072z M160.246,26.871c-1.174,0-2.126-0.952-2.126-2.126
			s0.952-2.126,2.126-2.126s2.126,0.952,2.126,2.126S161.42,26.871,160.246,26.871z M160.246,19.671
			c-1.174,0-2.126-0.943-2.126-2.126c0-1.174,0.952-2.126,2.126-2.126s2.126,0.952,2.126,2.126
			C162.372,18.723,161.42,19.671,160.246,19.671z M160.246,12.471c-1.174,0-2.126-0.95-2.126-2.126c0-1.178,0.952-2.131,2.126-2.131
			s2.126,0.948,2.126,2.131C162.372,11.521,161.42,12.471,160.246,12.471z M167.447,48.472c-1.175,0-2.126-0.95-2.126-2.126
			c0-1.178,0.951-2.126,2.126-2.126c1.174,0,2.126,0.943,2.126,2.126C169.573,47.522,168.621,48.472,167.447,48.472z
			 M167.447,41.272c-1.175,0-2.126-0.952-2.126-2.126c0-1.175,0.951-2.126,2.126-2.126c1.174,0,2.126,0.95,2.126,2.126
			C169.573,40.32,168.621,41.272,167.447,41.272z M167.447,34.072c-1.175,0-2.126-0.952-2.126-2.126
			c0-1.175,0.951-2.126,2.126-2.126c1.174,0,2.126,0.951,2.126,2.126C169.573,33.12,168.621,34.072,167.447,34.072z M167.447,26.871
			c-1.175,0-2.126-0.952-2.126-2.126s0.951-2.126,2.126-2.126c1.174,0,2.126,0.952,2.126,2.126S168.621,26.871,167.447,26.871z
			 M167.447,19.671c-1.175,0-2.126-0.943-2.126-2.126c0-1.174,0.951-2.126,2.126-2.126c1.174,0,2.126,0.952,2.126,2.126
			C169.573,18.723,168.621,19.671,167.447,19.671z M167.447,12.471c-1.175,0-2.126-0.95-2.126-2.126
			c0-1.178,0.951-2.131,2.126-2.131c1.174,0,2.126,0.948,2.126,2.131C169.573,11.521,168.621,12.471,167.447,12.471z
			 M174.647,48.472c-1.176,0-2.126-0.95-2.126-2.126c0-1.178,0.951-2.126,2.126-2.126c1.174,0,2.126,0.943,2.126,2.126
			C176.773,47.522,175.821,48.472,174.647,48.472z M174.647,41.272c-1.176,0-2.126-0.952-2.126-2.126
			c0-1.175,0.951-2.126,2.126-2.126c1.174,0,2.126,0.95,2.126,2.126C176.773,40.32,175.821,41.272,174.647,41.272z M174.647,34.072
			c-1.176,0-2.126-0.952-2.126-2.126c0-1.175,0.951-2.126,2.126-2.126c1.174,0,2.126,0.951,2.126,2.126
			C176.773,33.12,175.821,34.072,174.647,34.072z M174.647,26.871c-1.176,0-2.126-0.952-2.126-2.126s0.951-2.126,2.126-2.126
			c1.174,0,2.126,0.952,2.126,2.126S175.821,26.871,174.647,26.871z M174.647,19.671c-1.176,0-2.126-0.943-2.126-2.126
			c0-1.174,0.951-2.126,2.126-2.126c1.174,0,2.126,0.952,2.126,2.126C176.773,18.723,175.821,19.671,174.647,19.671z
			 M174.647,12.471c-1.176,0-2.126-0.95-2.126-2.126c0-1.178,0.951-2.131,2.126-2.131c1.174,0,2.126,0.948,2.126,2.131
			C176.773,11.521,175.821,12.471,174.647,12.471z M181.845,48.472c-1.183,0-2.131-0.95-2.131-2.126
			c0-1.178,0.953-2.126,2.131-2.126c1.176,0,2.126,0.943,2.126,2.126C183.971,47.522,183.021,48.472,181.845,48.472z
			 M181.845,41.272c-1.183,0-2.131-0.952-2.131-2.126c0-1.175,0.953-2.126,2.131-2.126c1.176,0,2.126,0.95,2.126,2.126
			C183.971,40.32,183.021,41.272,181.845,41.272z M181.845,34.072c-1.183,0-2.131-0.952-2.131-2.126
			c0-1.175,0.953-2.126,2.131-2.126c1.176,0,2.126,0.951,2.126,2.126C183.971,33.12,183.021,34.072,181.845,34.072z M181.845,26.871
			c-1.183,0-2.131-0.952-2.131-2.126s0.953-2.126,2.131-2.126c1.176,0,2.126,0.952,2.126,2.126S183.021,26.871,181.845,26.871z
			 M181.845,19.671c-1.183,0-2.131-0.943-2.131-2.126c0-1.174,0.953-2.126,2.131-2.126c1.176,0,2.126,0.952,2.126,2.126
			C183.971,18.723,183.021,19.671,181.845,19.671z M181.845,12.471c-1.183,0-2.131-0.95-2.131-2.126
			c0-1.178,0.953-2.131,2.131-2.131c1.176,0,2.126,0.948,2.126,2.131C183.971,11.521,183.021,12.471,181.845,12.471z
			 M189.047,48.472c-1.174,0-2.126-0.95-2.126-2.126c0-1.178,0.952-2.126,2.126-2.126c1.184,0,2.126,0.943,2.126,2.126
			C191.173,47.522,190.226,48.472,189.047,48.472z M189.047,41.272c-1.174,0-2.126-0.952-2.126-2.126
			c0-1.175,0.952-2.126,2.126-2.126c1.184,0,2.126,0.95,2.126,2.126C191.173,40.32,190.226,41.272,189.047,41.272z M189.047,34.072
			c-1.174,0-2.126-0.952-2.126-2.126c0-1.175,0.952-2.126,2.126-2.126c1.184,0,2.126,0.951,2.126,2.126
			C191.173,33.12,190.226,34.072,189.047,34.072z M189.047,26.871c-1.174,0-2.126-0.952-2.126-2.126s0.952-2.126,2.126-2.126
			c1.184,0,2.126,0.952,2.126,2.126S190.226,26.871,189.047,26.871z M189.047,19.671c-1.174,0-2.126-0.943-2.126-2.126
			c0-1.174,0.952-2.126,2.126-2.126c1.184,0,2.126,0.952,2.126,2.126C191.173,18.723,190.226,19.671,189.047,19.671z
			 M189.047,12.471c-1.174,0-2.126-0.95-2.126-2.126c0-1.178,0.952-2.131,2.126-2.131c1.184,0,2.126,0.948,2.126,2.131
			C191.173,11.521,190.226,12.471,189.047,12.471z M196.246,48.472c-1.174,0-2.126-0.95-2.126-2.126
			c0-1.178,0.952-2.126,2.126-2.126s2.126,0.943,2.126,2.126C198.372,47.522,197.42,48.472,196.246,48.472z M196.246,41.272
			c-1.174,0-2.126-0.952-2.126-2.126c0-1.175,0.952-2.126,2.126-2.126s2.126,0.95,2.126,2.126
			C198.372,40.32,197.42,41.272,196.246,41.272z M196.246,34.072c-1.174,0-2.126-0.952-2.126-2.126c0-1.175,0.952-2.126,2.126-2.126
			s2.126,0.951,2.126,2.126C198.372,33.12,197.42,34.072,196.246,34.072z M196.246,26.871c-1.174,0-2.126-0.952-2.126-2.126
			s0.952-2.126,2.126-2.126s2.126,0.952,2.126,2.126S197.42,26.871,196.246,26.871z M196.246,19.671
			c-1.174,0-2.126-0.943-2.126-2.126c0-1.174,0.952-2.126,2.126-2.126s2.126,0.952,2.126,2.126
			C198.372,18.723,197.42,19.671,196.246,19.671z M196.246,12.471c-1.174,0-2.126-0.95-2.126-2.126c0-1.178,0.952-2.131,2.126-2.131
			s2.126,0.948,2.126,2.131C198.372,11.521,197.42,12.471,196.246,12.471z M203.445,48.472c-1.175,0-2.126-0.95-2.126-2.126
			c0-1.178,0.951-2.126,2.126-2.126c1.174,0,2.126,0.943,2.126,2.126C205.571,47.522,204.619,48.472,203.445,48.472z
			 M203.445,41.272c-1.175,0-2.126-0.952-2.126-2.126c0-1.175,0.951-2.126,2.126-2.126c1.174,0,2.126,0.95,2.126,2.126
			C205.571,40.32,204.619,41.272,203.445,41.272z M203.445,34.072c-1.175,0-2.126-0.952-2.126-2.126
			c0-1.175,0.951-2.126,2.126-2.126c1.174,0,2.126,0.951,2.126,2.126C205.571,33.12,204.619,34.072,203.445,34.072z M203.445,26.871
			c-1.175,0-2.126-0.952-2.126-2.126s0.951-2.126,2.126-2.126c1.174,0,2.126,0.952,2.126,2.126S204.619,26.871,203.445,26.871z
			 M203.445,19.671c-1.175,0-2.126-0.943-2.126-2.126c0-1.174,0.951-2.126,2.126-2.126c1.174,0,2.126,0.952,2.126,2.126
			C205.571,18.723,204.619,19.671,203.445,19.671z M203.445,12.471c-1.175,0-2.126-0.95-2.126-2.126
			c0-1.178,0.951-2.131,2.126-2.131c1.174,0,2.126,0.948,2.126,2.131C205.571,11.521,204.619,12.471,203.445,12.471z
			 M210.647,48.472c-1.176,0-2.126-0.95-2.126-2.126c0-1.178,0.951-2.126,2.126-2.126c1.174,0,2.126,0.943,2.126,2.126
			C212.773,47.522,211.821,48.472,210.647,48.472z M210.647,41.272c-1.176,0-2.126-0.952-2.126-2.126
			c0-1.175,0.951-2.126,2.126-2.126c1.174,0,2.126,0.95,2.126,2.126C212.773,40.32,211.821,41.272,210.647,41.272z M210.647,34.072
			c-1.176,0-2.126-0.952-2.126-2.126c0-1.175,0.951-2.126,2.126-2.126c1.174,0,2.126,0.951,2.126,2.126
			C212.773,33.12,211.821,34.072,210.647,34.072z M210.647,26.871c-1.176,0-2.126-0.952-2.126-2.126s0.951-2.126,2.126-2.126
			c1.174,0,2.126,0.952,2.126,2.126S211.821,26.871,210.647,26.871z M210.647,19.671c-1.176,0-2.126-0.943-2.126-2.126
			c0-1.174,0.951-2.126,2.126-2.126c1.174,0,2.126,0.952,2.126,2.126C212.773,18.723,211.821,19.671,210.647,19.671z
			 M210.647,12.471c-1.176,0-2.126-0.95-2.126-2.126c0-1.178,0.951-2.131,2.126-2.131c1.174,0,2.126,0.948,2.126,2.131
			C212.773,11.521,211.821,12.471,210.647,12.471z M222.722,54.854c-1.263,0-2.271-1.021-2.271-2.271s1.021-2.271,2.271-2.271
			c1.256,0,2.271,1.017,2.271,2.271S223.976,54.854,222.722,54.854z M222.722,6.38c-1.263,0-2.271-1.017-2.271-2.271
			c0.001-1.255,1.021-2.271,2.271-2.271c1.256,0,2.271,1.021,2.271,2.271S223.976,6.38,222.722,6.38z"/>
	</g>
	<g>
		<path fill="#A5A5A5" d="M10.407,17.544c0,1.566-1.269,2.835-2.835,2.835H3.32c-1.565,0-2.834-1.269-2.834-2.835l0,0
			c0-1.563,1.269-2.834,2.834-2.834h4.252C9.138,14.71,10.407,15.979,10.407,17.544L10.407,17.544z"/>
		<path fill="#A5A5A5" d="M10.407,24.744c0,1.566-1.269,2.835-2.835,2.835H3.32c-1.565,0-2.834-1.269-2.834-2.835l0,0
			c0-1.563,1.269-2.834,2.834-2.834h4.252C9.138,21.91,10.407,23.179,10.407,24.744L10.407,24.744z"/>
		<path fill="#A5A5A5" d="M10.407,31.945c0,1.563-1.269,2.835-2.835,2.835H3.32c-1.565,0-2.834-1.271-2.834-2.835l0,0
			c0-1.565,1.269-2.834,2.834-2.834h4.252C9.138,29.111,10.407,30.38,10.407,31.945L10.407,31.945z"/>
		<path fill="#A5A5A5" d="M10.407,39.146c0,1.563-1.269,2.835-2.835,2.835H3.32c-1.565,0-2.834-1.271-2.834-2.835l0,0
			c0-1.565,1.269-2.834,2.834-2.834h4.252C9.138,36.312,10.407,37.581,10.407,39.146L10.407,39.146z"/>
	</g>
	<g>
		<path fill="#A5A5A5" d="M226.406,17.544c0,1.566-1.269,2.835-2.835,2.835h-4.252c-1.565,0-2.834-1.269-2.834-2.835l0,0
			c0-1.563,1.269-2.834,2.834-2.834h4.252C225.137,14.71,226.406,15.978,226.406,17.544L226.406,17.544z"/>
		<path fill="#A5A5A5" d="M226.406,24.744c0,1.565-1.269,2.835-2.835,2.835h-4.252c-1.565,0-2.834-1.27-2.834-2.835l0,0
			c0-1.563,1.269-2.835,2.834-2.835h4.252C225.137,21.909,226.406,23.178,226.406,24.744L226.406,24.744z"/>
		<path fill="#A5A5A5" d="M226.406,31.944c0,1.563-1.269,2.836-2.835,2.836h-4.252c-1.565,0-2.834-1.271-2.834-2.836l0,0
			c0-1.564,1.269-2.834,2.834-2.834h4.252C225.137,29.11,226.406,30.38,226.406,31.944L226.406,31.944z"/>
		<path fill="#A5A5A5" d="M226.406,39.145c0,1.563-1.269,2.836-2.835,2.836h-4.252c-1.565,0-2.834-1.271-2.834-2.836l0,0
			c0-1.564,1.269-2.834,2.834-2.834h4.252C225.137,36.311,226.406,37.581,226.406,39.145L226.406,39.145z"/>
	</g>
	<g>
		<circle id="connector0pin" fill="none" stroke="#A5A5A5" stroke-miterlimit="10" cx="16.186" cy="10.345" r="1.98"/>
		<circle id="connector1pin" fill="none" stroke="#A5A5A5" stroke-miterlimit="10" cx="23.385" cy="10.345" r="1.98"/>
		<circle id="connector2pin" fill="none" stroke="#A5A5A5" stroke-miterlimit="10" cx="30.586" cy="10.345" r="1.98"/>
		<circle id="connector3pin" fill="none" stroke="#A5A5A5" stroke-miterlimit="10" cx="37.786" cy="10.345" r="1.98"/>
		<circle id="connector4pin" fill="none" stroke="#A5A5A5" stroke-miterlimit="10" cx="44.986" cy="10.345" r="1.98"/>
		<circle id="connector5pin" fill="none" stroke="#A5A5A5" stroke-miterlimit="10" cx="52.186" cy="10.345" r="1.98"/>
		<circle id="connector6pin" fill="none" stroke="#A5A5A5" stroke-miterlimit="10" cx="59.385" cy="10.345" r="1.98"/>
		<circle id="connector7pin" fill="none" stroke="#A5A5A5" stroke-miterlimit="10" cx="66.586" cy="10.345" r="1.98"/>
		<circle id="connector8pin" fill="none" stroke="#A5A5A5" stroke-miterlimit="10" cx="73.786" cy="10.345" r="1.98"/>
		<circle id="connector9pin" fill="none" stroke="#A5A5A5" stroke-miterlimit="10" cx="80.986" cy="10.345" r="1.98"/>
		<circle id="connector10pin" fill="none" stroke="#A5A5A5" stroke-miterlimit="10" cx="88.186" cy="10.345" r="1.98"/>
		<circle id="connector11pin" fill="none" stroke="#A5A5A5" stroke-miterlimit="10" cx="95.385" cy="10.345" r="1.98"/>
		<circle id="connector12pin" fill="none" stroke="#A5A5A5" stroke-miterlimit="10" cx="102.586" cy="10.345" r="1.98"/>
		<circle id="connector13pin" fill="none" stroke="#A5A5A5" stroke-miterlimit="10" cx="109.786" cy="10.345" r="1.98"/>
		<circle id="connector14pin" fill="none" stroke="#A5A5A5" stroke-miterlimit="10" cx="116.985" cy="10.345" r="1.98"/>
		<circle id="connector15pin" fill="none" stroke="#A5A5A5" stroke-miterlimit="10" cx="124.186" cy="10.345" r="1.98"/>
		<circle id="connector16pin" fill="none" stroke="#A5A5A5" stroke-miterlimit="10" cx="131.385" cy="10.345" r="1.98"/>
		<circle id="connector17pin" fill="none" stroke="#A5A5A5" stroke-miterlimit="10" cx="138.587" cy="10.345" r="1.98"/>
		<circle id="connector18pin" fill="none" stroke="#A5A5A5" stroke-miterlimit="10" cx="145.786" cy="10.345" r="1.98"/>
		<circle id="connector19pin" fill="none" stroke="#A5A5A5" stroke-miterlimit="10" cx="152.985" cy="10.345" r="1.98"/>
		<circle id="connector20pin" fill="none" stroke="#A5A5A5" stroke-miterlimit="10" cx="160.186" cy="10.345" r="1.98"/>
		<circle id="connector21pin" fill="none" stroke="#A5A5A5" stroke-miterlimit="10" cx="167.385" cy="10.345" r="1.98"/>
		<circle id="connector22pin" fill="none" stroke="#A5A5A5" stroke-miterlimit="10" cx="174.587" cy="10.345" r="1.98"/>
		<circle id="connector23pin" fill="none" stroke="#A5A5A5" stroke-miterlimit="10" cx="181.786" cy="10.345" r="1.98"/>
		<circle id="connector24pin" fill="none" stroke="#A5A5A5" stroke-miterlimit="10" cx="188.985" cy="10.345" r="1.98"/>
		<circle id="connector25pin" fill="none" stroke="#A5A5A5" stroke-miterlimit="10" cx="196.186" cy="10.345" r="1.98"/>
		<circle id="connector26pin" fill="none" stroke="#A5A5A5" stroke-miterlimit="10" cx="203.385" cy="10.345" r="1.98"/>
		<circle id="connector27pin" fill="none" stroke="#A5A5A5" stroke-miterlimit="10" cx="210.587" cy="10.345" r="1.98"/>
		<circle id="connector1000pin" fill="none" stroke="#A5A5A5" stroke-miterlimit="10" cx="16.186" cy="17.545" r="1.98"/>
		<circle id="connector1001pin" fill="none" stroke="#A5A5A5" stroke-miterlimit="10" cx="23.385" cy="17.545" r="1.98"/>
		<circle id="connector1002pin" fill="none" stroke="#A5A5A5" stroke-miterlimit="10" cx="30.586" cy="17.545" r="1.98"/>
		<circle id="connector1003pin" fill="none" stroke="#A5A5A5" stroke-miterlimit="10" cx="37.786" cy="17.545" r="1.98"/>
		<circle id="connector1004pin" fill="none" stroke="#A5A5A5" stroke-miterlimit="10" cx="44.986" cy="17.545" r="1.98"/>
		<circle id="connector1005pin" fill="none" stroke="#A5A5A5" stroke-miterlimit="10" cx="52.186" cy="17.545" r="1.98"/>
		<circle id="connector1006pin" fill="none" stroke="#A5A5A5" stroke-miterlimit="10" cx="59.385" cy="17.545" r="1.98"/>
		<circle id="connector1007pin" fill="none" stroke="#A5A5A5" stroke-miterlimit="10" cx="66.586" cy="17.545" r="1.98"/>
		<circle id="connector1008pin" fill="none" stroke="#A5A5A5" stroke-miterlimit="10" cx="73.786" cy="17.545" r="1.98"/>
		<circle id="connector1009pin" fill="none" stroke="#A5A5A5" stroke-miterlimit="10" cx="80.986" cy="17.545" r="1.98"/>
		<circle id="connector1010pin" fill="none" stroke="#A5A5A5" stroke-miterlimit="10" cx="88.186" cy="17.545" r="1.98"/>
		<circle id="connector1011pin" fill="none" stroke="#A5A5A5" stroke-miterlimit="10" cx="95.385" cy="17.545" r="1.98"/>
		<circle id="connector1012pin" fill="none" stroke="#A5A5A5" stroke-miterlimit="10" cx="102.586" cy="17.545" r="1.98"/>
		<circle id="connector1013pin" fill="none" stroke="#A5A5A5" stroke-miterlimit="10" cx="109.786" cy="17.545" r="1.98"/>
		<circle id="connector1014pin" fill="none" stroke="#A5A5A5" stroke-miterlimit="10" cx="116.985" cy="17.545" r="1.98"/>
		<circle id="connector1015pin" fill="none" stroke="#A5A5A5" stroke-miterlimit="10" cx="124.186" cy="17.545" r="1.98"/>
		<circle id="connector1016pin" fill="none" stroke="#A5A5A5" stroke-miterlimit="10" cx="131.385" cy="17.545" r="1.98"/>
		<circle id="connector1017pin" fill="none" stroke="#A5A5A5" stroke-miterlimit="10" cx="138.587" cy="17.545" r="1.98"/>
		<circle id="connector1018pin" fill="none" stroke="#A5A5A5" stroke-miterlimit="10" cx="145.786" cy="17.545" r="1.98"/>
		<circle id="connector1019pin" fill="none" stroke="#A5A5A5" stroke-miterlimit="10" cx="152.985" cy="17.545" r="1.98"/>
		<circle id="connector1020pin" fill="none" stroke="#A5A5A5" stroke-miterlimit="10" cx="160.186" cy="17.545" r="1.98"/>
		<circle id="connector1021pin" fill="none" stroke="#A5A5A5" stroke-miterlimit="10" cx="167.385" cy="17.545" r="1.98"/>
		<circle id="connector1022pin" fill="none" stroke="#A5A5A5" stroke-miterlimit="10" cx="174.587" cy="17.545" r="1.98"/>
		<circle id="connector1023pin" fill="none" stroke="#A5A5A5" stroke-miterlimit="10" cx="181.786" cy="17.545" r="1.98"/>
		<circle id="connector1024pin" fill="none" stroke="#A5A5A5" stroke-miterlimit="10" cx="188.985" cy="17.545" r="1.98"/>
		<circle id="connector1025pin" fill="none" stroke="#A5A5A5" stroke-miterlimit="10" cx="196.186" cy="17.545" r="1.98"/>
		<circle id="connector1026pin" fill="none" stroke="#A5A5A5" stroke-miterlimit="10" cx="203.385" cy="17.545" r="1.98"/>
		<circle id="connector1027pin" fill="none" stroke="#A5A5A5" stroke-miterlimit="10" cx="210.587" cy="17.545" r="1.98"/>
		<circle id="connector2000pin" fill="none" stroke="#A5A5A5" stroke-miterlimit="10" cx="16.186" cy="24.745" r="1.98"/>
		<circle id="connector2001pin" fill="none" stroke="#A5A5A5" stroke-miterlimit="10" cx="23.385" cy="24.745" r="1.98"/>
		<circle id="connector2002pin" fill="none" stroke="#A5A5A5" stroke-miterlimit="10" cx="30.586" cy="24.745" r="1.98"/>
		<circle id="connector2003pin" fill="none" stroke="#A5A5A5" stroke-miterlimit="10" cx="37.786" cy="24.745" r="1.98"/>
		<circle id="connector2004pin" fill="none" stroke="#A5A5A5" stroke-miterlimit="10" cx="44.986" cy="24.745" r="1.98"/>
		<circle id="connector2005pin" fill="none" stroke="#A5A5A5" stroke-miterlimit="10" cx="52.186" cy="24.745" r="1.98"/>
		<circle id="connector2006pin" fill="none" stroke="#A5A5A5" stroke-miterlimit="10" cx="59.385" cy="24.745" r="1.98"/>
		<circle id="connector2007pin" fill="none" stroke="#A5A5A5" stroke-miterlimit="10" cx="66.586" cy="24.745" r="1.98"/>
		<circle id="connector2008pin" fill="none" stroke="#A5A5A5" stroke-miterlimit="10" cx="73.786" cy="24.745" r="1.98"/>
		<circle id="connector2009pin" fill="none" stroke="#A5A5A5" stroke-miterlimit="10" cx="80.986" cy="24.745" r="1.98"/>
		<circle id="connector2010pin" fill="none" stroke="#A5A5A5" stroke-miterlimit="10" cx="88.186" cy="24.745" r="1.98"/>
		<circle id="connector2011pin" fill="none" stroke="#A5A5A5" stroke-miterlimit="10" cx="95.385" cy="24.745" r="1.98"/>
		<circle id="connector2012pin" fill="none" stroke="#A5A5A5" stroke-miterlimit="10" cx="102.586" cy="24.745" r="1.98"/>
		<circle id="connector2013pin" fill="none" stroke="#A5A5A5" stroke-miterlimit="10" cx="109.786" cy="24.745" r="1.98"/>
		<circle id="connector2014pin" fill="none" stroke="#A5A5A5" stroke-miterlimit="10" cx="116.985" cy="24.745" r="1.98"/>
		<circle id="connector2015pin" fill="none" stroke="#A5A5A5" stroke-miterlimit="10" cx="124.186" cy="24.745" r="1.98"/>
		<circle id="connector2016pin" fill="none" stroke="#A5A5A5" stroke-miterlimit="10" cx="131.385" cy="24.745" r="1.98"/>
		<circle id="connector2017pin" fill="none" stroke="#A5A5A5" stroke-miterlimit="10" cx="138.587" cy="24.745" r="1.98"/>
		<circle id="connector2018pin" fill="none" stroke="#A5A5A5" stroke-miterlimit="10" cx="145.786" cy="24.745" r="1.98"/>
		<circle id="connector2019pin" fill="none" stroke="#A5A5A5" stroke-miterlimit="10" cx="152.985" cy="24.745" r="1.98"/>
		<circle id="connector2020pin" fill="none" stroke="#A5A5A5" stroke-miterlimit="10" cx="160.186" cy="24.745" r="1.98"/>
		<circle id="connector2021pin" fill="none" stroke="#A5A5A5" stroke-miterlimit="10" cx="167.385" cy="24.745" r="1.98"/>
		<circle id="connector2022pin" fill="none" stroke="#A5A5A5" stroke-miterlimit="10" cx="174.587" cy="24.745" r="1.98"/>
		<circle id="connector2023pin" fill="none" stroke="#A5A5A5" stroke-miterlimit="10" cx="181.786" cy="24.745" r="1.98"/>
		<circle id="connector2024pin" fill="none" stroke="#A5A5A5" stroke-miterlimit="10" cx="188.985" cy="24.745" r="1.98"/>
		<circle id="connector2025pin" fill="none" stroke="#A5A5A5" stroke-miterlimit="10" cx="196.186" cy="24.745" r="1.98"/>
		<circle id="connector2026pin" fill="none" stroke="#A5A5A5" stroke-miterlimit="10" cx="203.385" cy="24.745" r="1.98"/>
		<circle id="connector2027pin" fill="none" stroke="#A5A5A5" stroke-miterlimit="10" cx="210.587" cy="24.745" r="1.98"/>
		<circle id="connector3000pin" fill="none" stroke="#A5A5A5" stroke-miterlimit="10" cx="16.186" cy="31.945" r="1.98"/>
		<circle id="connector3001pin" fill="none" stroke="#A5A5A5" stroke-miterlimit="10" cx="23.385" cy="31.945" r="1.98"/>
		<circle id="connector3002pin" fill="none" stroke="#A5A5A5" stroke-miterlimit="10" cx="30.586" cy="31.945" r="1.98"/>
		<circle id="connector3003pin" fill="none" stroke="#A5A5A5" stroke-miterlimit="10" cx="37.786" cy="31.945" r="1.98"/>
		<circle id="connector3004pin" fill="none" stroke="#A5A5A5" stroke-miterlimit="10" cx="44.986" cy="31.945" r="1.98"/>
		<circle id="connector3005pin" fill="none" stroke="#A5A5A5" stroke-miterlimit="10" cx="52.186" cy="31.945" r="1.98"/>
		<circle id="connector3006pin" fill="none" stroke="#A5A5A5" stroke-miterlimit="10" cx="59.385" cy="31.945" r="1.98"/>
		<circle id="connector3007pin" fill="none" stroke="#A5A5A5" stroke-miterlimit="10" cx="66.586" cy="31.945" r="1.98"/>
		<circle id="connector3008pin" fill="none" stroke="#A5A5A5" stroke-miterlimit="10" cx="73.786" cy="31.945" r="1.98"/>
		<circle id="connector3009pin" fill="none" stroke="#A5A5A5" stroke-miterlimit="10" cx="80.986" cy="31.945" r="1.98"/>
		<circle id="connector3010pin" fill="none" stroke="#A5A5A5" stroke-miterlimit="10" cx="88.186" cy="31.945" r="1.98"/>
		<circle id="connector3011pin" fill="none" stroke="#A5A5A5" stroke-miterlimit="10" cx="95.385" cy="31.945" r="1.98"/>
		<circle id="connector3012pin" fill="none" stroke="#A5A5A5" stroke-miterlimit="10" cx="102.586" cy="31.945" r="1.98"/>
		<circle id="connector3013pin" fill="none" stroke="#A5A5A5" stroke-miterlimit="10" cx="109.786" cy="31.945" r="1.98"/>
		<circle id="connector3014pin" fill="none" stroke="#A5A5A5" stroke-miterlimit="10" cx="116.985" cy="31.945" r="1.98"/>
		<circle id="connector3015pin" fill="none" stroke="#A5A5A5" stroke-miterlimit="10" cx="124.186" cy="31.945" r="1.98"/>
		<circle id="connector3016pin" fill="none" stroke="#A5A5A5" stroke-miterlimit="10" cx="131.385" cy="31.945" r="1.98"/>
		<circle id="connector3017pin" fill="none" stroke="#A5A5A5" stroke-miterlimit="10" cx="138.587" cy="31.945" r="1.98"/>
		<circle id="connector3018pin" fill="none" stroke="#A5A5A5" stroke-miterlimit="10" cx="145.786" cy="31.945" r="1.98"/>
		<circle id="connector3019pin" fill="none" stroke="#A5A5A5" stroke-miterlimit="10" cx="152.985" cy="31.945" r="1.98"/>
		<circle id="connector3020pin" fill="none" stroke="#A5A5A5" stroke-miterlimit="10" cx="160.186" cy="31.945" r="1.98"/>
		<circle id="connector3021pin" fill="none" stroke="#A5A5A5" stroke-miterlimit="10" cx="167.385" cy="31.945" r="1.98"/>
		<circle id="connector3022pin" fill="none" stroke="#A5A5A5" stroke-miterlimit="10" cx="174.587" cy="31.945" r="1.98"/>
		<circle id="connector3023pin" fill="none" stroke="#A5A5A5" stroke-miterlimit="10" cx="181.786" cy="31.945" r="1.98"/>
		<circle id="connector3024pin" fill="none" stroke="#A5A5A5" stroke-miterlimit="10" cx="188.985" cy="31.945" r="1.98"/>
		<circle id="connector3025pin" fill="none" stroke="#A5A5A5" stroke-miterlimit="10" cx="196.186" cy="31.945" r="1.98"/>
		<circle id="connector3026pin" fill="none" stroke="#A5A5A5" stroke-miterlimit="10" cx="203.385" cy="31.945" r="1.98"/>
		<circle id="connector3027pin" fill="none" stroke="#A5A5A5" stroke-miterlimit="10" cx="210.587" cy="31.945" r="1.98"/>
		<circle id="connector4000pin" fill="none" stroke="#A5A5A5" stroke-miterlimit="10" cx="16.186" cy="39.145" r="1.979"/>
		<circle id="connector4001pin" fill="none" stroke="#A5A5A5" stroke-miterlimit="10" cx="23.385" cy="39.145" r="1.979"/>
		<circle id="connector4002pin" fill="none" stroke="#A5A5A5" stroke-miterlimit="10" cx="30.586" cy="39.145" r="1.979"/>
		<circle id="connector4003pin" fill="none" stroke="#A5A5A5" stroke-miterlimit="10" cx="37.786" cy="39.145" r="1.979"/>
		<circle id="connector4004pin" fill="none" stroke="#A5A5A5" stroke-miterlimit="10" cx="44.986" cy="39.145" r="1.979"/>
		<circle id="connector4005pin" fill="none" stroke="#A5A5A5" stroke-miterlimit="10" cx="52.186" cy="39.145" r="1.979"/>
		<circle id="connector4006pin" fill="none" stroke="#A5A5A5" stroke-miterlimit="10" cx="59.385" cy="39.145" r="1.979"/>
		<circle id="connector4007pin" fill="none" stroke="#A5A5A5" stroke-miterlimit="10" cx="66.586" cy="39.145" r="1.979"/>
		<circle id="connector4008pin" fill="none" stroke="#A5A5A5" stroke-miterlimit="10" cx="73.786" cy="39.145" r="1.979"/>
		<circle id="connector4009pin" fill="none" stroke="#A5A5A5" stroke-miterlimit="10" cx="80.986" cy="39.145" r="1.979"/>
		<circle id="connector4010pin" fill="none" stroke="#A5A5A5" stroke-miterlimit="10" cx="88.186" cy="39.145" r="1.979"/>
		<circle id="connector4011pin" fill="none" stroke="#A5A5A5" stroke-miterlimit="10" cx="95.385" cy="39.145" r="1.979"/>
		<circle id="connector4012pin" fill="none" stroke="#A5A5A5" stroke-miterlimit="10" cx="102.586" cy="39.145" r="1.979"/>
		<circle id="connector4013pin" fill="none" stroke="#A5A5A5" stroke-miterlimit="10" cx="109.786" cy="39.145" r="1.979"/>
		<circle id="connector4014pin" fill="none" stroke="#A5A5A5" stroke-miterlimit="10" cx="116.985" cy="39.145" r="1.979"/>
		<circle id="connector4015pin" fill="none" stroke="#A5A5A5" stroke-miterlimit="10" cx="124.186" cy="39.145" r="1.979"/>
		<circle id="connector4016pin" fill="none" stroke="#A5A5A5" stroke-miterlimit="10" cx="131.385" cy="39.145" r="1.979"/>
		<circle id="connector4017pin" fill="none" stroke="#A5A5A5" stroke-miterlimit="10" cx="138.587" cy="39.145" r="1.979"/>
		<circle id="connector4018pin" fill="none" stroke="#A5A5A5" stroke-miterlimit="10" cx="145.786" cy="39.145" r="1.979"/>
		<circle id="connector4019pin" fill="none" stroke="#A5A5A5" stroke-miterlimit="10" cx="152.985" cy="39.145" r="1.979"/>
		<circle id="connector4020pin" fill="none" stroke="#A5A5A5" stroke-miterlimit="10" cx="160.186" cy="39.145" r="1.979"/>
		<circle id="connector4021pin" fill="none" stroke="#A5A5A5" stroke-miterlimit="10" cx="167.385" cy="39.145" r="1.979"/>
		<circle id="connector4022pin" fill="none" stroke="#A5A5A5" stroke-miterlimit="10" cx="174.587" cy="39.145" r="1.979"/>
		<circle id="connector4023pin" fill="none" stroke="#A5A5A5" stroke-miterlimit="10" cx="181.786" cy="39.145" r="1.979"/>
		<circle id="connector4024pin" fill="none" stroke="#A5A5A5" stroke-miterlimit="10" cx="188.985" cy="39.145" r="1.979"/>
		<circle id="connector4025pin" fill="none" stroke="#A5A5A5" stroke-miterlimit="10" cx="196.186" cy="39.145" r="1.979"/>
		<circle id="connector4026pin" fill="none" stroke="#A5A5A5" stroke-miterlimit="10" cx="203.385" cy="39.145" r="1.979"/>
		<circle id="connector4027pin" fill="none" stroke="#A5A5A5" stroke-miterlimit="10" cx="210.587" cy="39.145" r="1.979"/>
		<circle id="connector5000pin" fill="none" stroke="#A5A5A5" stroke-miterlimit="10" cx="16.186" cy="46.345" r="1.98"/>
		<circle id="connector5001pin" fill="none" stroke="#A5A5A5" stroke-miterlimit="10" cx="23.385" cy="46.345" r="1.98"/>
		<circle id="connector5002pin" fill="none" stroke="#A5A5A5" stroke-miterlimit="10" cx="30.586" cy="46.345" r="1.98"/>
		<circle id="connector5003pin" fill="none" stroke="#A5A5A5" stroke-miterlimit="10" cx="37.786" cy="46.345" r="1.98"/>
		<circle id="connector5004pin" fill="none" stroke="#A5A5A5" stroke-miterlimit="10" cx="44.986" cy="46.345" r="1.98"/>
		<circle id="connector5005pin" fill="none" stroke="#A5A5A5" stroke-miterlimit="10" cx="52.186" cy="46.345" r="1.98"/>
		<circle id="connector5006pin" fill="none" stroke="#A5A5A5" stroke-miterlimit="10" cx="59.385" cy="46.345" r="1.98"/>
		<circle id="connector5007pin" fill="none" stroke="#A5A5A5" stroke-miterlimit="10" cx="66.586" cy="46.345" r="1.98"/>
		<circle id="connector5008pin" fill="none" stroke="#A5A5A5" stroke-miterlimit="10" cx="73.786" cy="46.345" r="1.98"/>
		<circle id="connector5009pin" fill="none" stroke="#A5A5A5" stroke-miterlimit="10" cx="80.986" cy="46.345" r="1.98"/>
		<circle id="connector5010pin" fill="none" stroke="#A5A5A5" stroke-miterlimit="10" cx="88.186" cy="46.345" r="1.98"/>
		<circle id="connector5011pin" fill="none" stroke="#A5A5A5" stroke-miterlimit="10" cx="95.385" cy="46.345" r="1.98"/>
		<circle id="connector5012pin" fill="none" stroke="#A5A5A5" stroke-miterlimit="10" cx="102.586" cy="46.345" r="1.98"/>
		<circle id="connector5013pin" fill="none" stroke="#A5A5A5" stroke-miterlimit="10" cx="109.786" cy="46.345" r="1.98"/>
		<circle id="connector5014pin" fill="none" stroke="#A5A5A5" stroke-miterlimit="10" cx="116.985" cy="46.345" r="1.98"/>
		<circle id="connector5015pin" fill="none" stroke="#A5A5A5" stroke-miterlimit="10" cx="124.186" cy="46.345" r="1.98"/>
		<circle id="connector5016pin" fill="none" stroke="#A5A5A5" stroke-miterlimit="10" cx="131.385" cy="46.345" r="1.98"/>
		<circle id="connector5017pin" fill="none" stroke="#A5A5A5" stroke-miterlimit="10" cx="138.587" cy="46.345" r="1.98"/>
		<circle id="connector5018pin" fill="none" stroke="#A5A5A5" stroke-miterlimit="10" cx="145.786" cy="46.345" r="1.98"/>
		<circle id="connector5019pin" fill="none" stroke="#A5A5A5" stroke-miterlimit="10" cx="152.985" cy="46.345" r="1.98"/>
		<circle id="connector5020pin" fill="none" stroke="#A5A5A5" stroke-miterlimit="10" cx="160.186" cy="46.345" r="1.98"/>
		<circle id="connector5021pin" fill="none" stroke="#A5A5A5" stroke-miterlimit="10" cx="167.385" cy="46.345" r="1.98"/>
		<circle id="connector5022pin" fill="none" stroke="#A5A5A5" stroke-miterlimit="10" cx="174.587" cy="46.345" r="1.98"/>
		<circle id="connector5023pin" fill="none" stroke="#A5A5A5" stroke-miterlimit="10" cx="181.786" cy="46.345" r="1.98"/>
		<circle id="connector5024pin" fill="none" stroke="#A5A5A5" stroke-miterlimit="10" cx="188.985" cy="46.345" r="1.98"/>
		<circle id="connector5025pin" fill="none" stroke="#A5A5A5" stroke-miterlimit="10" cx="196.186" cy="46.345" r="1.98"/>
		<circle id="connector5026pin" fill="none" stroke="#A5A5A5" stroke-miterlimit="10" cx="203.385" cy="46.345" r="1.98"/>
		<circle id="connector5027pin" fill="none" stroke="#A5A5A5" stroke-miterlimit="10" cx="210.587" cy="46.345" r="1.98"/>
	</g>
	<text transform="matrix(1 0 0 1 50.3738 6.0759)" fill="#339933" font-family="'OCRAExtended'" font-size="6">F</text>
	<text transform="matrix(1 0 0 1 57.573 6.0759)" fill="#339933" font-family="'OCRAExtended'" font-size="6">G</text>
	<text transform="matrix(1 0 0 1 64.7742 6.0759)" fill="#339933" font-family="'OCRAExtended'" font-size="6">H</text>
	<text transform="matrix(1 0 0 1 71.9744 6.0759)" fill="#339933" font-family="'OCRAExtended'" font-size="6">I</text>
	<text transform="matrix(1 0 0 1 79.1736 6.0759)" fill="#339933" font-family="'OCRAExtended'" font-size="6">J</text>
	<text transform="matrix(1 0 0 1 86.3738 6.0759)" fill="#339933" font-family="'OCRAExtended'" font-size="6">K</text>
	<text transform="matrix(1 0 0 1 93.573 6.0759)" fill="#339933" font-family="'OCRAExtended'" font-size="6">L</text>
	<text transform="matrix(1 0 0 1 100.7742 6.0759)" fill="#339933" font-family="'OCRAExtended'" font-size="6">M</text>
	<text transform="matrix(1 0 0 1 107.9744 6.0759)" fill="#339933" font-family="'OCRAExtended'" font-size="6">N</text>
	<text transform="matrix(1 0 0 1 115.1736 6.0759)" fill="#339933" font-family="'OCRAExtended'" font-size="6">O</text>
	<text transform="matrix(1 0 0 1 122.3748 6.0759)" fill="#339933" font-family="'OCRAExtended'" font-size="6">P</text>
	<text transform="matrix(1 0 0 1 129.574 6.0759)" fill="#339933" font-family="'OCRAExtended'" font-size="6">Q</text>
	<text transform="matrix(1 0 0 1 136.7751 6.0759)" fill="#339933" font-family="'OCRAExtended'" font-size="6">R</text>
	<text transform="matrix(1 0 0 1 143.9744 6.0759)" fill="#339933" font-family="'OCRAExtended'" font-size="6">S</text>
	<text transform="matrix(1 0 0 1 151.1736 6.0759)" fill="#339933" font-family="'OCRAExtended'" font-size="6">T</text>
	<text transform="matrix(1 0 0 1 158.3748 6.0759)" fill="#339933" font-family="'OCRAExtended'" font-size="6">U</text>
	<text transform="matrix(1 0 0 1 165.574 6.0759)" fill="#339933" font-family="'OCRAExtended'" font-size="6">V</text>
	<text transform="matrix(1 0 0 1 172.7751 6.0759)" fill="#339933" font-family="'OCRAExtended'" font-size="6">W</text>
	<text transform="matrix(1 0 0 1 179.9744 6.0759)" fill="#339933" font-family="'OCRAExtended'" font-size="6">X</text>
	<text transform="matrix(1 0 0 1 187.1736 6.0759)" fill="#339933" font-family="'OCRAExtended'" font-size="6">Y</text>
	<text transform="matrix(1 0 0 1 194.3748 6.0759)" fill="#339933" font-family="'OCRAExtended'" font-size="6">Z</text>
	<text transform="matrix(1 0 0 1 201.574 6.0759)" fill="#339933" font-family="'OCRAExtended'" font-size="6">A</text>
	<text transform="matrix(1 0 0 1 208.7751 6.0759)" fill="#339933" font-family="'OCRAExtended'" font-size="6">B</text>
	<g>
		<text transform="matrix(1 0 0 1 14.3738 6.0759)" fill="#339933" font-family="'OCRAExtended'" font-size="6">A</text>
		<text transform="matrix(1 0 0 1 21.573 6.0759)" fill="#339933" font-family="'OCRAExtended'" font-size="6">B</text>
		<text transform="matrix(1 0 0 1 28.7742 6.0759)" fill="#339933" font-family="'OCRAExtended'" font-size="6">C</text>
		<text transform="matrix(1 0 0 1 35.9744 6.0759)" fill="#339933" font-family="'OCRAExtended'" font-size="6">D</text>
		<text transform="matrix(1 0 0 1 43.1736 6.0759)" fill="#339933" font-family="'OCRAExtended'" font-size="6">E</text>
		
			<text transform="matrix(-4.371139e-008 -1 1 -4.371139e-008 13.2 47.5544)" fill="#339933" font-family="'OCRAExtended'" font-size="4">1</text>
		
			<text transform="matrix(-4.371139e-008 -1 1 -4.371139e-008 13.2 40.3513)" fill="#339933" font-family="'OCRAExtended'" font-size="4">2</text>
		
			<text transform="matrix(-4.371139e-008 -1 1 -4.371139e-008 13.2 33.1521)" fill="#339933" font-family="'OCRAExtended'" font-size="4">3</text>
		
			<text transform="matrix(-4.371139e-008 -1 1 -4.371139e-008 13.2 25.9534)" fill="#339933" font-family="'OCRAExtended'" font-size="4">4</text>
		
			<text transform="matrix(-4.371139e-008 -1 1 -4.371139e-008 13.2 18.7522)" fill="#339933" font-family="'OCRAExtended'" font-size="4">5</text>
		
			<text transform="matrix(-4.371139e-008 -1 1 -4.371139e-008 13.2 11.553)" fill="#339933" font-family="'OCRAExtended'" font-size="4">6</text>
		<text transform="matrix(1 0 0 1 100.7009 54.6912)" fill="#339933" font-family="'OCRAExtended'" font-size="6">2cmX8cm</text>
	</g>
</g>
</svg>
